#N canvas 396 306 626 487 10;
#X obj 114 176 inlet;
#X obj 114 392 outlet;
#X obj 223 392 outlet;
#X obj 345 392 outlet;
#X floatatom 114 208 5 0 0 0 - - -;
#X text 13 28 Ben Pevsner;
#X text 12 11 Major Chord Calculator;
#X floatatom 114 365 5 0 0 0 - - -;
#X floatatom 223 365 5 0 0 0 - - -;
#X floatatom 345 365 5 0 0 0 - - -;
#X obj 78 67 cnv 15 400 60 empty empty empty 20 12 0 14 -233017 -66577
0;
#X obj 223 268 * 1.25;
#X obj 345 268 * 1.5;
#X obj 435 166 inlet;
#X obj 114 328 *;
#X obj 223 328 *;
#X msg 435 317 1;
#X msg 485 317 2;
#X msg 458 317 1;
#X msg 526 317 2;
#X obj 129 304 r \$0-1;
#X obj 238 305 r \$0-2;
#X obj 435 370 s \$0-1;
#X obj 458 352 s \$0-2;
#X obj 526 352 s \$0-1;
#X obj 526 370 s \$0-2;
#X obj 485 370 s \$0-1;
#X obj 435 388 s \$0-2;
#X obj 435 258 select 0 1 2;
#X text 104 69 Takes in a frequency \, and outputs the three notes
of a major chord \, using the base frequency as the root. The chord
can also be inverted by inputting a 0 \, 1 \, or 2 for varying inversions.
;
#X connect 0 0 4 0;
#X connect 4 0 11 0;
#X connect 4 0 12 0;
#X connect 4 0 14 0;
#X connect 7 0 1 0;
#X connect 8 0 2 0;
#X connect 9 0 3 0;
#X connect 11 0 15 0;
#X connect 12 0 9 0;
#X connect 13 0 28 0;
#X connect 14 0 7 0;
#X connect 15 0 8 0;
#X connect 16 0 22 0;
#X connect 16 0 27 0;
#X connect 17 0 26 0;
#X connect 18 0 23 0;
#X connect 19 0 24 0;
#X connect 19 0 25 0;
#X connect 20 0 14 1;
#X connect 21 0 15 1;
#X connect 28 0 16 0;
#X connect 28 1 18 0;
#X connect 28 1 17 0;
#X connect 28 2 19 0;
#X coords 0 0 1 1 85 60 0;
