#N canvas 962 497 514 367 10;
#X obj 211 79 select 1 0;
#X msg 211 106 1 1000;
#X msg 260 107 0 1000;
#X obj 211 132 line~;
#X obj 99 186 outlet~;
#X obj 98 150 *~;
#X obj 97 122 inlet~;
#X obj 211 55 inlet;
#X connect 0 0 1 0;
#X connect 0 1 2 0;
#X connect 1 0 3 0;
#X connect 2 0 3 0;
#X connect 3 0 5 1;
#X connect 5 0 4 0;
#X connect 6 0 5 0;
#X connect 7 0 0 0;
