#N canvas 1093 320 450 300 10;
#X obj 105 121 dbtorms;
#X obj 105 170 line~;
#X obj 33 187 *~;
#X obj 32 161 inlet~;
#X obj 33 214 outlet~;
#X obj 105 98 inlet;
#X obj 105 146 pack 0 30;
#X connect 0 0 6 0;
#X connect 1 0 2 1;
#X connect 2 0 4 0;
#X connect 3 0 2 0;
#X connect 5 0 0 0;
#X connect 6 0 1 0;
