#N canvas 168 19 946 761 10;
#X obj 217 286 cnv 15 190 60 empty empty empty 20 12 0 14 -128992 -66577
0;
#X obj 224 291 cnv 15 175 50 empty empty empty 20 12 0 14 -162280 -66577
0;
#X obj 466 622 pack 0 0;
#X msg 466 545 bang;
#X obj 466 603 f;
#X floatatom 481 563 5 0 0 0 - - -;
#X floatatom 511 580 5 0 0 0 - - -;
#X obj 343 294 cnv 15 50 25 empty empty empty 20 12 0 14 -33289 -66577
0;
#X obj 242 294 hsl 90 25 0 14.2163 0 0 \$0track_snd \$0track_rcv 0:0
112 12 1 14 -66577 -204786 -204786 0 1;
#X obj 340 323 bng 15 250 50 0 empty empty Open 17 7 0 10 -66577 -204786
-1;
#X obj 241 323 bng 15 250 50 0 empty empty Play 17 7 0 10 -66577 -204786
-1;
#X msg 241 354 bang;
#X obj 291 324 bng 15 250 50 0 empty empty Stop 17 7 0 10 -66577 -204786
-1;
#X msg 291 356 stop;
#X obj 466 347 openpanel;
#X obj 466 461 soundfiler;
#X floatatom 466 483 10 0 0 0 - - -;
#X obj 466 502 / 44100;
#X obj 466 522 t b f;
#X msg 291 377 0;
#N canvas 0 0 450 300 (subpatch) 0;
#X array \$0-Player 626941 float 2;
#X coords 0 300 626941 299 200 140 0;
#X restore 426 93 graph;
#X msg 293 539 bang;
#X obj 241 420 tabplay~ \$0-Player;
#X msg 293 562 normalize;
#X obj 293 584 s \$0-Player;
#X obj 540 386 symbol \$0-Player;
#X msg 540 364 bang;
#X msg 466 436 read -resize \$1 \$2;
#X obj 466 403 list 0 0;
#X obj 241 458 outlet~;
#X obj 466 665 s \$0track_rcv;
#X msg 466 641 range \$1 \$2;
#N canvas 0 0 309 248 counter 0;
#X obj 68 107 metro 1000;
#X obj 68 128 f 0;
#X obj 91 128 + 1;
#X floatatom 68 150 5 0 0 0 - - -;
#X obj 61 51 inlet;
#X obj 107 53 inlet;
#X obj 67 195 outlet;
#X connect 0 0 1 0;
#X connect 1 0 2 0;
#X connect 1 0 3 0;
#X connect 2 0 1 1;
#X connect 3 0 6 0;
#X connect 4 0 0 0;
#X connect 5 0 1 0;
#X restore 171 420 pd counter;
#N canvas 777 230 692 556 timer 0;
#X obj 33 75 inlet;
#X obj 32 280 f;
#X floatatom 77 262 5 0 0 0 - - -;
#X obj 32 162 % 60;
#X obj 80 160 moses 60;
#X msg 80 180 0;
#X obj 125 180 / 60;
#X obj 125 200 int;
#X msg 32 322 label \$1:\$2;
#X obj 32 346 s \$0track_rcv;
#X obj 32 299 pack 0 0;
#X text 84 75 in from time;
#X text 164 187 convert to min:sec;
#X obj 32 182 t b f;
#X connect 0 0 3 0;
#X connect 0 0 4 0;
#X connect 1 0 10 0;
#X connect 2 0 10 1;
#X connect 3 0 13 0;
#X connect 4 0 5 0;
#X connect 4 1 6 0;
#X connect 5 0 1 1;
#X connect 6 0 7 0;
#X connect 7 0 1 1;
#X connect 8 0 9 0;
#X connect 10 0 8 0;
#X connect 13 0 1 0;
#X connect 13 1 2 0;
#X restore 81 319 pd timer;
#X msg 292 255 0;
#X connect 2 0 31 0;
#X connect 3 0 4 0;
#X connect 4 0 2 0;
#X connect 5 0 4 1;
#X connect 6 0 2 1;
#X connect 8 0 33 0;
#X connect 9 0 14 0;
#X connect 10 0 11 0;
#X connect 11 0 22 0;
#X connect 11 0 32 0;
#X connect 12 0 13 0;
#X connect 12 0 19 0;
#X connect 12 0 34 0;
#X connect 13 0 22 0;
#X connect 13 0 32 0;
#X connect 14 0 26 0;
#X connect 14 0 28 0;
#X connect 15 0 16 0;
#X connect 16 0 17 0;
#X connect 17 0 18 0;
#X connect 18 0 3 0;
#X connect 18 0 21 0;
#X connect 18 1 6 0;
#X connect 19 0 32 1;
#X connect 21 0 23 0;
#X connect 22 0 29 0;
#X connect 23 0 24 0;
#X connect 25 0 28 1;
#X connect 26 0 25 0;
#X connect 27 0 15 0;
#X connect 28 0 27 0;
#X connect 31 0 30 0;
#X connect 32 0 8 0;
#X connect 34 0 8 0;
#X coords 0 -1 1 1 190 60 2 217 286;
