#N canvas 61 41 1387 908 10;
#X obj 27 123 cnv 15 1200 600 empty empty empty 20 12 0 14 -204786
-66577 0;
#X obj 655 661 cnv 15 300 100 empty empty empty 20 12 0 14 -261682
-66577 0;
#X obj 691 715 outlet~;
#X obj 802 715 outlet~;
#X obj 240 23 inlet;
#X obj 238 50 inlet;
#X obj 173 210 t b f;
#X obj 372 207 t b f;
#X obj 639 196 t b f;
#X obj 857 194 t b f;
#X obj 70 349 t b f;
#X obj 288 347 t b f;
#X obj 534 337 t b f;
#X obj 765 337 t b f;
#X obj 1006 339 t b f;
#X obj 210 492 t b f;
#X obj 445 495 t b f;
#X obj 675 496 t b f;
#X obj 924 496 t b f;
#X obj 405 89 s \$0-P60;
#X obj 461 89 s \$0-P61;
#X obj 517 89 s \$0-P62;
#X obj 573 89 s \$0-P63;
#X obj 629 89 s \$0-P64;
#X obj 685 89 s \$0-P65;
#X obj 741 88 s \$0-P66;
#X obj 797 88 s \$0-P67;
#X obj 853 88 s \$0-P68;
#X obj 909 88 s \$0-P69;
#X obj 965 88 s \$0-P70;
#X obj 1021 88 s \$0-P71;
#X obj 1077 87 s \$0-P72;
#X obj 295 56 s \$0-N;
#X obj 175 149 s \$0-L;
#X obj 264 210 r \$0-L;
#X obj 466 217 r \$0-L;
#X obj 730 205 r \$0-L;
#X obj 158 349 r \$0-L;
#X obj 378 344 r \$0-L;
#X obj 619 340 r \$0-L;
#X obj 856 337 r \$0-L;
#X obj 1096 337 r \$0-L;
#X obj 1013 494 r \$0-L;
#X obj 760 495 r \$0-L;
#X obj 530 495 r \$0-L;
#X obj 295 493 r \$0-L;
#X obj 173 187 r \$0-P60;
#X obj 218 210 r \$0-N;
#X obj 372 184 r \$0-P61;
#X obj 414 208 r \$0-N;
#X obj 639 173 r \$0-P62;
#X obj 684 202 r \$0-N;
#X obj 857 171 r \$0-P63;
#X obj 905 197 r \$0-N;
#X obj 949 201 r \$0-L;
#X obj 70 326 r \$0-P64;
#X obj 111 349 r \$0-N;
#X obj 291 321 r \$0-P65;
#X obj 332 345 r \$0-N;
#X obj 534 314 r \$0-P66;
#X obj 574 339 r \$0-N;
#X obj 765 314 r \$0-P67;
#X obj 808 338 r \$0-N;
#X obj 252 492 r \$0-N;
#X obj 210 469 r \$0-P69;
#X obj 445 472 r \$0-P70;
#X obj 484 495 r \$0-N;
#X obj 675 473 r \$0-P71;
#X obj 716 495 r \$0-N;
#X obj 924 473 r \$0-P72;
#X obj 964 496 r \$0-N;
#X obj 1006 316 r \$0-P68;
#X obj 1049 337 r \$0-N;
#X obj 173 286 throw~ \$0-Left;
#X obj 373 288 throw~ \$0-Left;
#X obj 638 287 throw~ \$0-Left;
#X obj 858 286 throw~ \$0-Left;
#X obj 71 431 throw~ \$0-Left;
#X obj 292 433 throw~ \$0-Left;
#X obj 534 431 throw~ \$0-Left;
#X obj 765 436 throw~ \$0-Left;
#X obj 1006 436 throw~ \$0-Left;
#X obj 210 578 throw~ \$0-Left;
#X obj 446 581 throw~ \$0-Left;
#X obj 676 582 throw~ \$0-Left;
#X obj 925 588 throw~ \$0-Left;
#X obj 229 266 throw~ \$0-Right;
#X obj 429 265 throw~ \$0-Right;
#X obj 696 259 throw~ \$0-Right;
#X obj 913 258 throw~ \$0-Right;
#X obj 128 413 throw~ \$0-Right;
#X obj 348 412 throw~ \$0-Right;
#X obj 591 403 throw~ \$0-Right;
#X obj 822 410 throw~ \$0-Right;
#X obj 1063 413 throw~ \$0-Right;
#X obj 268 558 throw~ \$0-Right;
#X obj 732 558 throw~ \$0-Right;
#X obj 979 562 throw~ \$0-Right;
#X obj 690 691 catch~ \$0-Left;
#X obj 801 691 catch~ \$0-Right;
#X obj 501 561 throw~ \$0-Right;
#X obj 34 11 cnv 15 200 100 empty empty empty 20 12 0 14 -99865 -66577
0;
#X obj 39 16 cnv 15 190 90 empty empty empty 20 12 0 14 -162280 -66577
0;
#X obj 46 32 cnv 15 69 69 empty empty empty 20 12 0 14 -228856 -66577
0;
#N canvas 0 0 450 300 (subpatch) 0;
#X array \$0-Synth 100 float 3;
#A 0 0 0 0 0 0 0 0 0 0 0 0 0 0 0 0 0 0 0 0 0 0 0 0 0 0 0 0 0 0 0 0
0 0 0 0 0 0 0 0 0 0 0 0 0 0 0 0 0 0 0 0 0 0 0 0 0 0 0 0 0 0 0 0 0 0
0 0 0 0 0 0 0 0 0 0 0 0 0 0 0 0 0 0 0 0 0 0 0 0 0 0 0 0 0 0 0 0 0 0
0;
#X coords 0 1 99 -1 70 70 1 0 0;
#X restore 45 31 graph;
#X obj 34 109 cnv 3 10 3 empty empty empty 20 12 0 14 -1 -66577 0;
#X obj 33 11 cnv 3 10 3 empty empty empty 20 12 0 14 -1 -66577 0;
#X obj 34 11 cnv 2 8 2 empty empty empty 20 12 0 14 -99865 -66577 0
;
#X obj 224 11 cnv 3 10 3 empty empty empty 20 12 0 14 -1 -66577 0;
#X obj 225 11 cnv 2 8 2 empty empty empty 20 12 0 14 -99865 -66577
0;
#X obj 224 109 cnv 3 10 3 empty empty empty 20 12 0 14 -1 -66577 0
;
#X text 135 64 Lop:;
#X floatatom 175 40 5 0 0 0 - - -;
#X floatatom 175 67 5 0 0 0 - - -;
#X text 131 39 Noise:;
#X obj 675 737 s~ \$0-leftarray;
#X obj 788 737 s~ \$0-rightarray;
#X obj 176 123 * 10;
#X obj 327 641 cnv 15 300 200 empty empty empty 20 12 0 14 -203904
-66577 0;
#X obj 476 769 metro 80;
#X obj 476 748 tgl 15 0 empty empty empty 17 7 0 10 -262144 -1 -1 1
1;
#X obj 476 725 loadbang;
#X obj 372 737 +~;
#X obj 372 790 *~ 0.5;
#X obj 371 680 r~ \$0-rightarray;
#X obj 404 703 r~ \$0-leftarray;
#X obj 476 807 tabwrite~ \$0-Synth;
#X text 69 246 Look inside ->;
#X obj 173 246 midi_strings;
#X obj 372 243 midi_strings;
#X obj 639 232 midi_strings;
#X obj 857 230 midi_strings;
#X obj 70 385 midi_strings;
#X obj 291 380 midi_strings;
#X obj 534 373 midi_strings;
#X obj 765 373 midi_strings;
#X obj 1006 375 midi_strings;
#X obj 210 528 midi_strings;
#X obj 445 531 midi_strings;
#X obj 675 531 midi_strings;
#X obj 924 532 midi_strings;
#N canvas 253 36 1404 819 _________________________midi_keys________________________
0;
#X obj 34 702 cnv 15 800 60 empty empty empty 20 12 0 14 -233017 -66577
0;
#X obj 49 457 keyup;
#X floatatom 49 495 5 0 0 0 - - -;
#X obj 49 589 sel 97 119 115 101 100 102 116 103 121 104 117 106 107
;
#X msg 49 654 bang;
#X msg 110 654 bang;
#X msg 171 654 bang;
#X msg 232 654 bang;
#X msg 293 654 bang;
#X msg 354 654 bang;
#X msg 415 654 bang;
#X msg 476 654 bang;
#X msg 537 654 bang;
#X msg 598 654 bang;
#X msg 659 654 bang;
#X msg 720 654 bang;
#X msg 781 654 bang;
#X obj 49 714 outlet;
#X obj 110 714 outlet;
#X obj 171 714 outlet;
#X obj 232 714 outlet;
#X obj 781 714 outlet;
#X obj 293 714 outlet;
#X obj 354 714 outlet;
#X obj 415 714 outlet;
#X obj 476 714 outlet;
#X obj 537 714 outlet;
#X obj 598 714 outlet;
#X obj 659 714 outlet;
#X obj 720 714 outlet;
#X text 56 738 60u;
#X text 119 738 61u;
#X text 180 738 62u;
#X text 240 738 63u;
#X text 305 738 64u;
#X text 366 738 65u;
#X text 426 738 66u;
#X text 488 738 67u;
#X text 551 738 68u;
#X text 613 738 69u;
#X text 672 738 70u;
#X text 733 738 71u;
#X obj 21 361 cnv 15 800 60 empty empty empty 20 12 0 14 -233017 -66577
0;
#X obj 824 116 cnv 15 100 150 empty empty empty 20 12 0 14 -233017
-66577 0;
#X obj 30 113 key;
#X msg 30 266 60;
#X obj 30 307 +;
#X obj 91 307 +;
#X msg 91 266 61;
#X obj 152 307 +;
#X msg 152 266 62;
#X obj 213 307 +;
#X obj 274 307 +;
#X obj 335 307 +;
#X obj 396 307 +;
#X obj 457 307 +;
#X obj 518 307 +;
#X obj 579 307 +;
#X obj 640 307 +;
#X obj 701 307 +;
#X obj 762 307 +;
#X obj 30 222 sel 97 119 115 101 100 102 116 103 121 104 117 106 107
;
#X obj 840 130 sel 122 120;
#X floatatom 864 216 5 0 0 0 - - -;
#X msg 871 169 1;
#X msg 840 169 -1;
#X obj 840 199 +;
#X obj 864 290 * 12;
#X msg 213 266 63;
#X msg 274 266 64;
#X msg 335 266 65;
#X msg 396 268 66;
#X msg 457 268 67;
#X msg 518 268 68;
#X msg 579 268 69;
#X msg 640 268 70;
#X msg 701 268 71;
#X msg 762 268 72;
#X obj 30 375 outlet;
#X obj 91 375 outlet;
#X text 39 394 60;
#X text 100 394 61;
#X obj 152 375 outlet;
#X obj 213 375 outlet;
#X text 161 394 62;
#X text 223 394 63;
#X text 286 394 64;
#X text 347 394 65;
#X text 407 394 66;
#X text 469 394 67;
#X text 532 394 68;
#X text 594 394 69;
#X text 653 394 70;
#X text 714 394 71;
#X obj 762 375 outlet;
#X text 780 394 72;
#X obj 274 375 outlet;
#X obj 335 375 outlet;
#X obj 396 375 outlet;
#X obj 457 375 outlet;
#X obj 518 375 outlet;
#X obj 579 375 outlet;
#X obj 640 375 outlet;
#X obj 701 375 outlet;
#X text 753 98 8va / 8vb is controlled by the z and x keys.;
#X text 289 439 midi 60-72 are controlled by keys a-k;
#X text 286 768 midi off 60-72 are controlled by keys a-k as well;
#X obj 40 0 cnv 15 707 57 empty empty Midikeys 260 30 1 36 -233017
-66577 0;
#X obj 108 494 s \$0-stopkey;
#X msg 108 474 bang;
#X obj 106 136 r \$0-stopkey;
#X floatatom 30 174 5 0 0 0 - - -;
#X obj 108 542 bng 15 250 50 0 empty empty empty 17 7 0 10 -262144
-1 -1;
#X msg 106 157 0;
#X obj 30 202 change;
#X connect 1 0 2 0;
#X connect 1 0 109 0;
#X connect 2 0 112 0;
#X connect 2 0 3 0;
#X connect 3 0 4 0;
#X connect 3 1 5 0;
#X connect 3 2 6 0;
#X connect 3 3 7 0;
#X connect 3 4 8 0;
#X connect 3 5 9 0;
#X connect 3 6 10 0;
#X connect 3 7 11 0;
#X connect 3 8 12 0;
#X connect 3 9 13 0;
#X connect 3 10 14 0;
#X connect 3 11 15 0;
#X connect 3 12 16 0;
#X connect 4 0 17 0;
#X connect 5 0 18 0;
#X connect 6 0 19 0;
#X connect 7 0 20 0;
#X connect 8 0 22 0;
#X connect 9 0 23 0;
#X connect 10 0 24 0;
#X connect 11 0 25 0;
#X connect 12 0 26 0;
#X connect 13 0 27 0;
#X connect 14 0 28 0;
#X connect 15 0 29 0;
#X connect 16 0 21 0;
#X connect 44 0 111 0;
#X connect 44 0 62 0;
#X connect 45 0 46 0;
#X connect 46 0 78 0;
#X connect 47 0 79 0;
#X connect 48 0 47 0;
#X connect 49 0 82 0;
#X connect 50 0 49 0;
#X connect 51 0 83 0;
#X connect 52 0 96 0;
#X connect 53 0 97 0;
#X connect 54 0 98 0;
#X connect 55 0 99 0;
#X connect 56 0 100 0;
#X connect 57 0 101 0;
#X connect 58 0 102 0;
#X connect 59 0 103 0;
#X connect 60 0 94 0;
#X connect 61 0 45 0;
#X connect 61 1 48 0;
#X connect 61 2 50 0;
#X connect 61 3 68 0;
#X connect 61 4 69 0;
#X connect 61 5 70 0;
#X connect 61 6 71 0;
#X connect 61 7 72 0;
#X connect 61 8 73 0;
#X connect 61 9 74 0;
#X connect 61 10 75 0;
#X connect 61 11 76 0;
#X connect 61 12 77 0;
#X connect 62 0 65 0;
#X connect 62 1 64 0;
#X connect 63 0 66 1;
#X connect 63 0 67 0;
#X connect 64 0 66 0;
#X connect 65 0 66 0;
#X connect 66 0 63 0;
#X connect 67 0 53 1;
#X connect 67 0 52 1;
#X connect 67 0 51 1;
#X connect 67 0 49 1;
#X connect 67 0 47 1;
#X connect 67 0 46 1;
#X connect 67 0 60 1;
#X connect 67 0 59 1;
#X connect 67 0 58 1;
#X connect 67 0 57 1;
#X connect 67 0 56 1;
#X connect 67 0 55 1;
#X connect 67 0 54 1;
#X connect 68 0 51 0;
#X connect 69 0 52 0;
#X connect 70 0 53 0;
#X connect 71 0 54 0;
#X connect 72 0 55 0;
#X connect 73 0 56 0;
#X connect 74 0 57 0;
#X connect 75 0 58 0;
#X connect 76 0 59 0;
#X connect 77 0 60 0;
#X connect 109 0 108 0;
#X connect 110 0 113 0;
#X connect 111 0 114 0;
#X connect 113 0 111 0;
#X connect 114 0 61 0;
#X coords 0 819 1 818 707 60 0;
#X restore 405 32 pd _________________________midi_keys________________________
;
#X connect 4 0 112 0;
#X connect 5 0 113 0;
#X connect 6 0 128 0;
#X connect 6 1 128 1;
#X connect 7 0 129 0;
#X connect 7 1 129 1;
#X connect 8 0 130 0;
#X connect 8 1 130 1;
#X connect 9 0 131 0;
#X connect 9 1 131 1;
#X connect 10 0 132 0;
#X connect 10 1 132 1;
#X connect 11 0 133 0;
#X connect 11 1 133 1;
#X connect 12 0 134 0;
#X connect 12 1 134 1;
#X connect 13 0 135 0;
#X connect 13 1 135 1;
#X connect 14 0 136 0;
#X connect 14 1 136 1;
#X connect 15 0 137 0;
#X connect 15 1 137 1;
#X connect 16 0 138 0;
#X connect 16 1 138 1;
#X connect 17 0 139 0;
#X connect 17 1 139 1;
#X connect 18 0 140 0;
#X connect 18 1 140 1;
#X connect 34 0 128 3;
#X connect 35 0 129 3;
#X connect 36 0 130 3;
#X connect 37 0 132 3;
#X connect 38 0 133 3;
#X connect 39 0 134 3;
#X connect 40 0 135 3;
#X connect 41 0 136 3;
#X connect 42 0 140 3;
#X connect 43 0 139 3;
#X connect 44 0 138 3;
#X connect 45 0 137 3;
#X connect 46 0 6 0;
#X connect 47 0 128 2;
#X connect 48 0 7 0;
#X connect 49 0 129 2;
#X connect 50 0 8 0;
#X connect 51 0 130 2;
#X connect 52 0 9 0;
#X connect 53 0 131 2;
#X connect 54 0 131 3;
#X connect 55 0 10 0;
#X connect 56 0 132 2;
#X connect 57 0 11 0;
#X connect 58 0 133 2;
#X connect 59 0 12 0;
#X connect 60 0 134 2;
#X connect 61 0 13 0;
#X connect 62 0 135 2;
#X connect 63 0 137 2;
#X connect 64 0 15 0;
#X connect 65 0 16 0;
#X connect 66 0 138 2;
#X connect 67 0 17 0;
#X connect 68 0 139 2;
#X connect 69 0 18 0;
#X connect 70 0 140 2;
#X connect 71 0 14 0;
#X connect 72 0 136 2;
#X connect 98 0 2 0;
#X connect 98 0 115 0;
#X connect 99 0 3 0;
#X connect 99 0 116 0;
#X connect 112 0 32 0;
#X connect 113 0 117 0;
#X connect 117 0 33 0;
#X connect 119 0 126 0;
#X connect 120 0 119 0;
#X connect 121 0 120 0;
#X connect 122 0 123 0;
#X connect 123 0 126 0;
#X connect 124 0 122 0;
#X connect 125 0 122 1;
#X connect 128 0 73 0;
#X connect 128 1 86 0;
#X connect 129 0 74 0;
#X connect 129 1 87 0;
#X connect 130 0 75 0;
#X connect 130 1 88 0;
#X connect 131 0 76 0;
#X connect 131 1 89 0;
#X connect 132 0 77 0;
#X connect 132 1 90 0;
#X connect 133 0 78 0;
#X connect 133 1 91 0;
#X connect 134 0 79 0;
#X connect 134 1 92 0;
#X connect 135 0 80 0;
#X connect 135 1 93 0;
#X connect 136 0 81 0;
#X connect 136 1 94 0;
#X connect 137 0 82 0;
#X connect 137 1 95 0;
#X connect 138 0 83 0;
#X connect 138 1 100 0;
#X connect 139 0 84 0;
#X connect 139 1 96 0;
#X connect 140 0 85 0;
#X connect 140 1 97 0;
#X connect 141 0 19 0;
#X connect 141 2 20 0;
#X connect 141 4 21 0;
#X connect 141 6 22 0;
#X connect 141 8 23 0;
#X connect 141 10 24 0;
#X connect 141 12 25 0;
#X connect 141 14 26 0;
#X connect 141 16 27 0;
#X connect 141 18 28 0;
#X connect 141 20 29 0;
#X connect 141 22 30 0;
#X connect 141 24 31 0;
#X coords 0 -1 1 1 202 102 2 33 10;
