#N canvas 73 93 800 600 10;
#X obj 106 286 osc~ 2;
#X obj 248 270 pack 0 30;
#X obj 248 292 line~;
#X floatatom 248 244 5 0 0 0 - - -;
#X floatatom 106 253 5 0 0 0 - - -;
#X obj 106 309 *~;
#X obj 100 35 inlet~;
#X obj 100 129 cnv 15 100 100 empty empty empty 20 20 0 14 -128992
-1 0;
#X obj 100 129 cnv 1 7 2 empty empty empty 20 12 0 14 -1 -66577 0;
#X obj 107 393 outlet~;
#X obj 100 227 cnv 1 7 2 empty empty empty 20 12 0 14 -1 -66577 0;
#X obj 100 66 delwrite~ \$0-vibrato 50;
#X obj 106 360 vd~ \$0-vibrato;
#X obj 103 133 cnv 15 92 92 empty empty Vibrato 16 20 0 14 -66577 -191407
0;
#X obj 109 169 hsl 80 20 0 15 0 0 \$0-vib_spd_out \$0-vib_spd_in Speed
27 9 0 10 -191407 -1 -1 1053 1;
#X obj 109 197 hsl 80 20 0 13 0 0 empty empty Depth 27 9 0 10 -191407
-1 -1 0 1;
#X obj 330 82 inlet;
#X obj 396 84 inlet;
#X obj 145 128 cnv 1 7 2 empty empty empty 20 12 0 14 -1 -66577 0;
#X obj 192 128 cnv 1 7 2 empty empty empty 20 12 0 14 -1 -66577 0;
#X obj 106 335 +~ 10;
#X obj 533 42 key;
#X floatatom 533 62 5 0 0 0 - - -;
#X obj 533 381 osc~ 2;
#X floatatom 533 348 5 0 0 0 - - -;
#X obj 533 404 *~;
#X obj 533 455 vd~ \$0-vibrato;
#X obj 533 430 +~ 10;
#X obj 534 487 s~ \$0-vib-out;
#X msg 656 387 0.4;
#X obj 531 265 / 2;
#N canvas 635 418 445 405 counter 0;
#X obj 127 253 f;
#X obj 152 253 + 1;
#X obj 118 205 bng 15 250 50 0 empty empty empty 17 7 0 10 -262144
-1 -1;
#X floatatom 152 286 5 0 0 0 - - -;
#X msg 167 205 -1;
#X msg 63 201 1;
#X obj 75 325 > 0;
#X floatatom 75 347 5 0 0 0 - - -;
#X obj 167 228 spigot;
#X obj 63 172 inlet;
#X obj 167 177 inlet;
#X obj 152 359 outlet;
#X floatatom 210 347 5 0 0 0 - - -;
#X obj 63 223 spigot;
#X obj 210 326 < 30;
#X text 106 120 Min:;
#X floatatom 139 121 5 0 0 0 - - -;
#X floatatom 140 140 5 0 0 0 - - -;
#X text 108 141 Max:;
#X msg 131 63 30;
#X obj 130 39 loadbang;
#X connect 0 0 1 0;
#X connect 1 0 0 1;
#X connect 1 0 3 0;
#X connect 2 0 0 0;
#X connect 3 0 6 0;
#X connect 3 0 11 0;
#X connect 3 0 14 0;
#X connect 4 0 8 0;
#X connect 5 0 13 0;
#X connect 6 0 7 0;
#X connect 6 0 5 0;
#X connect 7 0 8 1;
#X connect 8 0 1 1;
#X connect 9 0 5 0;
#X connect 9 0 2 0;
#X connect 10 0 4 0;
#X connect 10 0 2 0;
#X connect 12 0 13 1;
#X connect 13 0 1 1;
#X connect 14 0 12 0;
#X connect 14 0 4 0;
#X connect 16 0 6 1;
#X connect 17 0 14 1;
#X connect 19 0 17 0;
#X connect 20 0 19 0;
#X coords 0 -1 1 1 85 60 1 100 100;
#X restore 531 188 pd counter;
#X obj 533 82 sel 118 99;
#X obj 531 286 s \$0-vib_spd_in;
#X obj 533 325 r \$0-vib_spd_out;
#X obj 655 362 loadbang;
#X connect 0 0 5 0;
#X connect 1 0 2 0;
#X connect 2 0 5 1;
#X connect 3 0 1 0;
#X connect 4 0 0 0;
#X connect 5 0 20 0;
#X connect 6 0 11 0;
#X connect 12 0 9 0;
#X connect 14 0 4 0;
#X connect 15 0 3 0;
#X connect 16 0 14 0;
#X connect 17 0 15 0;
#X connect 20 0 12 0;
#X connect 21 0 22 0;
#X connect 22 0 32 0;
#X connect 23 0 25 0;
#X connect 24 0 23 0;
#X connect 25 0 27 0;
#X connect 26 0 28 0;
#X connect 27 0 26 0;
#X connect 29 0 25 1;
#X connect 30 0 33 0;
#X connect 31 0 30 0;
#X connect 32 0 31 0;
#X connect 32 1 31 1;
#X connect 34 0 24 0;
#X connect 35 0 29 0;
#X coords 0 -1 1 1 100 102 1 100 128;
