#N canvas 142 176 1020 622 10;
#X obj 142 279 bp~;
#X obj 143 347 *~;
#X obj 192 331 dbtorms~;
#X floatatom 192 285 5 0 0 0 - a1 -;
#X floatatom 191 243 5 0 0 0 - f1 -;
#X floatatom 192 263 5 0 0 0 - q -;
#X text 228 261 Q;
#X text 225 242 f1;
#X text 226 282 a1;
#X obj 288 279 bp~;
#X obj 289 347 *~;
#X obj 338 331 dbtorms~;
#X floatatom 338 285 5 0 0 0 - a2 -;
#X floatatom 337 243 5 0 0 0 - f2 -;
#X floatatom 338 263 5 0 0 0 - q -;
#X text 374 261 Q;
#X obj 408 279 bp~;
#X obj 409 347 *~;
#X obj 458 331 dbtorms~;
#X floatatom 458 285 5 0 0 0 - a3 -;
#X floatatom 457 243 5 0 0 0 - f3 -;
#X floatatom 458 263 5 0 0 0 - q -;
#X text 494 261 Q;
#X text 371 242 f2;
#X text 372 282 a2;
#X text 491 242 f3;
#X text 492 282 a3;
#X obj 567 322 s q;
#X floatatom 567 302 5 0 0 0 - - -;
#X obj 286 163 mtof;
#X obj 407 431 +~;
#X obj 287 141 inlet;
#X obj 407 497 outlet~;
#X obj 567 257 loadbang;
#X obj 125 493 s a1;
#X obj 159 491 s a2;
#X obj 195 494 s a3;
#X floatatom 125 462 5 0 0 0 - - -;
#X obj 408 473 clip~ -1 1;
#X obj 290 185 phasor~;
#X msg 567 280 98;
#X msg 124 443 110;
#X obj 120 422 loadbang;
#X text 360 179 running a phasor \, cuz it hits enough frequencies
that the filters actually do something.;
#X connect 0 0 1 0;
#X connect 1 0 30 0;
#X connect 2 0 1 1;
#X connect 3 0 2 0;
#X connect 4 0 0 1;
#X connect 5 0 0 2;
#X connect 9 0 10 0;
#X connect 10 0 30 0;
#X connect 11 0 10 1;
#X connect 12 0 11 0;
#X connect 13 0 9 1;
#X connect 14 0 9 2;
#X connect 16 0 17 0;
#X connect 17 0 30 0;
#X connect 18 0 17 1;
#X connect 19 0 18 0;
#X connect 20 0 16 1;
#X connect 21 0 16 2;
#X connect 28 0 27 0;
#X connect 29 0 39 0;
#X connect 30 0 38 0;
#X connect 31 0 29 0;
#X connect 33 0 40 0;
#X connect 37 0 34 0;
#X connect 37 0 35 0;
#X connect 37 0 36 0;
#X connect 38 0 32 0;
#X connect 39 0 0 0;
#X connect 39 0 9 0;
#X connect 39 0 16 0;
#X connect 40 0 28 0;
#X connect 41 0 37 0;
#X connect 42 0 41 0;
