#N canvas 587 153 989 614 10;
#X obj 416 165 BP_Stringsynth;
#X obj 417 458 BP_output;
#X floatatom 417 137 5 0 0 0 - - -;
#X floatatom 611 135 5 0 0 0 - - -;
#X obj 39 453 BP_output;
#X obj 39 223 BP_adsr;
#X obj 40 337 bx_vibrato;
#X obj 133 301 loadbang;
#X msg 133 319 0.5;
#X obj 416 329 bx_vibrato;
#X obj 509 293 loadbang;
#X msg 509 311 0.5;
#N canvas 0 22 853 551 voices 0;
#X obj 317 324 unpack f f f;
#X obj 316 369 s f1;
#X obj 355 371 s f2;
#X obj 394 373 s f3;
#X msg 143 184 400 1900 2550;
#X msg 233 183 550 1770 2490;
#X text 168 162 i;
#X text 268 167 eh;
#X msg 323 183 690 1660 2490;
#X text 351 163 a;
#X msg 420 183 710 1100 2640;
#X text 439 166 ah;
#X msg 510 184 310 870 2250;
#X text 532 164 oo;
#X obj 101 101 bng 25 250 50 0 empty empty i 10 13 0 12 -99865 -204786
-204786;
#X obj 153 101 bng 25 250 50 0 empty empty a 10 13 0 12 -99865 -204786
-204786;
#X obj 127 101 bng 25 250 50 0 empty empty eh 6 13 0 12 -99865 -204786
-204786;
#X obj 205 101 bng 25 250 50 0 empty empty oo 6 13 0 12 -99865 -204786
-204786;
#X obj 179 101 bng 25 250 50 0 empty empty ah 6 13 0 12 -99865 -204786
-204786;
#X text 605 183 voice harmonics;
#X text 418 322 unpacks them and sends it to the guts sub-patch;
#X obj 358 115 bng 15 250 50 0 empty empty empty 17 7 0 10 -262144
-1 -1;
#X obj 350 87 loadbang;
#X connect 0 0 1 0;
#X connect 0 1 2 0;
#X connect 0 2 3 0;
#X connect 4 0 0 0;
#X connect 5 0 0 0;
#X connect 8 0 0 0;
#X connect 10 0 0 0;
#X connect 12 0 0 0;
#X connect 14 0 4 0;
#X connect 15 0 8 0;
#X connect 16 0 5 0;
#X connect 17 0 12 0;
#X connect 18 0 10 0;
#X connect 21 0 10 0;
#X connect 22 0 21 0;
#X coords 0 -1 1 1 130 26 1 100 100;
#X restore 53 153 pd voices;
#X obj 696 140 cnv 15 200 200 empty empty README 20 12 0 18 -261234
-66577 0;
#X text 710 163 The voice formant one works;
#X text 713 176 better in a lower register.;
#X text 711 187 Type z once or twice to do;
#X text 712 201 that.;
#X text 713 237 speed.;
#X text 712 226 c and v control the vibrato;
#X obj 32 62 cnv 15 220 30 empty empty Voice_formant_simulator 20 12
0 14 -233017 -66577 0;
#X obj 437 68 cnv 15 180 30 empty empty string_simulator 20 12 0 14
-233017 -66577 0;
#X text 711 261 The inside of the voice;
#X text 712 272 isn't as pretty as my other;
#X text 715 283 patches \, but it's pretty;
#X text 713 295 simple \, so I guess that;
#X text 712 307 doesn't matter so much.;
#X text 711 324 feel free to explore them.;
#N canvas 0 22 627 393 midi 0;
#X obj 160 185 formant;
#X obj 265 187 bng 15 250 50 0 empty empty empty 17 7 0 10 -262144
-1 -1;
#X obj 370 185 del 500;
#X obj 472 167 loadbang;
#X msg 472 185 29 300 0.652287 1000;
#N canvas 253 36 1404 819 _________________________midi_keys________________________
0;
#X obj 34 702 cnv 15 800 60 empty empty empty 20 12 0 14 -233017 -66577
0;
#X obj 49 457 keyup;
#X floatatom 49 495 5 0 0 0 - - -;
#X obj 49 589 sel 97 119 115 101 100 102 116 103 121 104 117 106 107
;
#X msg 49 654 bang;
#X msg 110 654 bang;
#X msg 171 654 bang;
#X msg 232 654 bang;
#X msg 293 654 bang;
#X msg 354 654 bang;
#X msg 415 654 bang;
#X msg 476 654 bang;
#X msg 537 654 bang;
#X msg 598 654 bang;
#X msg 659 654 bang;
#X msg 720 654 bang;
#X msg 781 654 bang;
#X obj 49 714 outlet;
#X obj 110 714 outlet;
#X obj 171 714 outlet;
#X obj 232 714 outlet;
#X obj 781 714 outlet;
#X obj 293 714 outlet;
#X obj 354 714 outlet;
#X obj 415 714 outlet;
#X obj 476 714 outlet;
#X obj 537 714 outlet;
#X obj 598 714 outlet;
#X obj 659 714 outlet;
#X obj 720 714 outlet;
#X text 56 738 60u;
#X text 119 738 61u;
#X text 180 738 62u;
#X text 240 738 63u;
#X text 305 738 64u;
#X text 366 738 65u;
#X text 426 738 66u;
#X text 488 738 67u;
#X text 551 738 68u;
#X text 613 738 69u;
#X text 672 738 70u;
#X text 733 738 71u;
#X obj 21 361 cnv 15 800 60 empty empty empty 20 12 0 14 -233017 -66577
0;
#X obj 824 116 cnv 15 100 150 empty empty empty 20 12 0 14 -233017
-66577 0;
#X obj 30 113 key;
#X msg 30 266 60;
#X obj 30 307 +;
#X obj 91 307 +;
#X msg 91 266 61;
#X obj 152 307 +;
#X msg 152 266 62;
#X obj 213 307 +;
#X obj 274 307 +;
#X obj 335 307 +;
#X obj 396 307 +;
#X obj 457 307 +;
#X obj 518 307 +;
#X obj 579 307 +;
#X obj 640 307 +;
#X obj 701 307 +;
#X obj 762 307 +;
#X obj 30 222 sel 97 119 115 101 100 102 116 103 121 104 117 106 107
;
#X obj 840 130 sel 122 120;
#X floatatom 864 216 5 0 0 0 - - -;
#X msg 871 169 1;
#X msg 840 169 -1;
#X obj 840 199 +;
#X obj 864 290 * 12;
#X msg 213 266 63;
#X msg 274 266 64;
#X msg 335 266 65;
#X msg 396 268 66;
#X msg 457 268 67;
#X msg 518 268 68;
#X msg 579 268 69;
#X msg 640 268 70;
#X msg 701 268 71;
#X msg 762 268 72;
#X obj 30 375 outlet;
#X obj 91 375 outlet;
#X text 39 394 60;
#X text 100 394 61;
#X obj 152 375 outlet;
#X obj 213 375 outlet;
#X text 161 394 62;
#X text 223 394 63;
#X text 286 394 64;
#X text 347 394 65;
#X text 407 394 66;
#X text 469 394 67;
#X text 532 394 68;
#X text 594 394 69;
#X text 653 394 70;
#X text 714 394 71;
#X obj 762 375 outlet;
#X text 780 394 72;
#X obj 274 375 outlet;
#X obj 335 375 outlet;
#X obj 396 375 outlet;
#X obj 457 375 outlet;
#X obj 518 375 outlet;
#X obj 579 375 outlet;
#X obj 640 375 outlet;
#X obj 701 375 outlet;
#X text 753 98 8va / 8vb is controlled by the z and x keys.;
#X text 289 439 midi 60-72 are controlled by keys a-k;
#X text 286 768 midi off 60-72 are controlled by keys a-k as well;
#X obj 40 0 cnv 15 707 57 empty empty Midikeys 260 30 1 36 -233017
-66577 0;
#X obj 108 494 s \$0-stopkey;
#X msg 108 474 bang;
#X obj 106 136 r \$0-stopkey;
#X floatatom 30 174 5 0 0 0 - - -;
#X obj 108 542 bng 15 250 50 0 empty empty empty 17 7 0 10 -262144
-1 -1;
#X msg 106 157 0;
#X obj 30 202 change;
#X connect 1 0 2 0;
#X connect 1 0 109 0;
#X connect 2 0 112 0;
#X connect 2 0 3 0;
#X connect 3 0 4 0;
#X connect 3 1 5 0;
#X connect 3 2 6 0;
#X connect 3 3 7 0;
#X connect 3 4 8 0;
#X connect 3 5 9 0;
#X connect 3 6 10 0;
#X connect 3 7 11 0;
#X connect 3 8 12 0;
#X connect 3 9 13 0;
#X connect 3 10 14 0;
#X connect 3 11 15 0;
#X connect 3 12 16 0;
#X connect 4 0 17 0;
#X connect 5 0 18 0;
#X connect 6 0 19 0;
#X connect 7 0 20 0;
#X connect 8 0 22 0;
#X connect 9 0 23 0;
#X connect 10 0 24 0;
#X connect 11 0 25 0;
#X connect 12 0 26 0;
#X connect 13 0 27 0;
#X connect 14 0 28 0;
#X connect 15 0 29 0;
#X connect 16 0 21 0;
#X connect 44 0 111 0;
#X connect 44 0 62 0;
#X connect 45 0 46 0;
#X connect 46 0 78 0;
#X connect 47 0 79 0;
#X connect 48 0 47 0;
#X connect 49 0 82 0;
#X connect 50 0 49 0;
#X connect 51 0 83 0;
#X connect 52 0 96 0;
#X connect 53 0 97 0;
#X connect 54 0 98 0;
#X connect 55 0 99 0;
#X connect 56 0 100 0;
#X connect 57 0 101 0;
#X connect 58 0 102 0;
#X connect 59 0 103 0;
#X connect 60 0 94 0;
#X connect 61 0 45 0;
#X connect 61 1 48 0;
#X connect 61 2 50 0;
#X connect 61 3 68 0;
#X connect 61 4 69 0;
#X connect 61 5 70 0;
#X connect 61 6 71 0;
#X connect 61 7 72 0;
#X connect 61 8 73 0;
#X connect 61 9 74 0;
#X connect 61 10 75 0;
#X connect 61 11 76 0;
#X connect 61 12 77 0;
#X connect 62 0 65 0;
#X connect 62 1 64 0;
#X connect 63 0 66 1;
#X connect 63 0 67 0;
#X connect 64 0 66 0;
#X connect 65 0 66 0;
#X connect 66 0 63 0;
#X connect 67 0 53 1;
#X connect 67 0 52 1;
#X connect 67 0 51 1;
#X connect 67 0 49 1;
#X connect 67 0 47 1;
#X connect 67 0 46 1;
#X connect 67 0 60 1;
#X connect 67 0 59 1;
#X connect 67 0 58 1;
#X connect 67 0 57 1;
#X connect 67 0 56 1;
#X connect 67 0 55 1;
#X connect 67 0 54 1;
#X connect 68 0 51 0;
#X connect 69 0 52 0;
#X connect 70 0 53 0;
#X connect 71 0 54 0;
#X connect 72 0 55 0;
#X connect 73 0 56 0;
#X connect 74 0 57 0;
#X connect 75 0 58 0;
#X connect 76 0 59 0;
#X connect 77 0 60 0;
#X connect 109 0 108 0;
#X connect 110 0 113 0;
#X connect 111 0 114 0;
#X connect 113 0 111 0;
#X connect 114 0 61 0;
#X coords 0 819 1 818 707 60 0;
#X restore 160 129 pd _________________________midi_keys________________________
;
#X obj 272 225 outlet;
#X obj 371 231 outlet;
#X obj 472 229 outlet;
#X obj 161 221 outlet~;
#X text 101 184 in here:;
#X text 26 168 interesting stuff;
#X connect 0 0 9 0;
#X connect 1 0 2 0;
#X connect 1 0 6 0;
#X connect 2 0 7 0;
#X connect 3 0 4 0;
#X connect 4 0 8 0;
#X connect 5 0 0 0;
#X connect 5 1 1 0;
#X connect 5 2 0 0;
#X connect 5 3 1 0;
#X connect 5 4 0 0;
#X connect 5 5 1 0;
#X connect 5 6 0 0;
#X connect 5 7 1 0;
#X connect 5 8 0 0;
#X connect 5 9 1 0;
#X connect 5 10 0 0;
#X connect 5 11 1 0;
#X connect 5 12 0 0;
#X connect 5 13 1 0;
#X connect 5 14 0 0;
#X connect 5 15 1 0;
#X connect 5 16 0 0;
#X connect 5 17 1 0;
#X connect 5 18 0 0;
#X connect 5 19 1 0;
#X connect 5 20 0 0;
#X connect 5 21 1 0;
#X connect 5 22 0 0;
#X connect 5 23 1 0;
#X connect 5 24 0 0;
#X connect 5 25 1 0;
#X restore 39 206 pd midi;
#X connect 0 0 9 0;
#X connect 0 1 9 0;
#X connect 2 0 0 0;
#X connect 3 0 0 1;
#X connect 5 0 6 0;
#X connect 6 0 4 0;
#X connect 6 0 4 2;
#X connect 7 0 8 0;
#X connect 8 0 6 2;
#X connect 9 0 1 0;
#X connect 9 0 1 2;
#X connect 10 0 11 0;
#X connect 11 0 9 2;
#X connect 28 0 5 0;
#X connect 28 1 5 1;
#X connect 28 2 5 2;
#X connect 28 3 5 3;
