#N canvas 59 229 1217 728 10;
#X obj 841 322 cnv 15 250 300 empty empty empty 20 12 0 14 -262130
-66577 0;
#X obj 958 12 cnv 15 130 300 empty empty empty 20 12 0 14 -233017 -66577
0;
#X obj 429 322 cnv 15 400 300 empty empty empty 20 12 0 14 -232576
-66577 0;
#X obj 13 321 cnv 15 400 300 empty empty empty 20 12 0 14 -203904 -66577
0;
#X obj 430 12 cnv 15 200 300 empty empty empty 20 12 0 14 -261234 -66577
0;
#X obj 643 10 cnv 15 300 300 empty empty empty 20 12 0 14 -204786 -66577
0;
#X obj 12 11 cnv 15 400 300 empty empty empty 20 12 0 14 -261682 -66577
0;
#X obj 720 217 line~;
#X msg 720 194 1 10;
#X msg 762 172 bang;
#X msg 720 127 bang;
#X obj 42 442 *~;
#X obj 41 525 +~;
#X obj 42 419 noise~;
#X obj 233 424 lop~;
#X obj 533 195 1000;
#X obj 533 172 t b f;
#X obj 533 218 /;
#X floatatom 533 241 5 0 0 0 - - -;
#X obj 234 509 *~ 0.99;
#X obj 762 149 del 10;
#X msg 762 195 0 10;
#X obj 434 265 inlet;
#X obj 533 149 mtof;
#X obj 845 265 inlet;
#X obj 964 261 inlet;
#X obj 32 -12 cnv 15 300 40 empty empty Karplus-Strong_Synthesizer
20 20 0 17 -191407 -1 0;
#X obj 84 135 cnv 15 200 100 empty empty empty 20 12 0 14 -99865 -66577
0;
#X obj 89 140 cnv 15 190 90 empty empty empty 20 12 0 14 -162280 -66577
0;
#X obj 96 156 cnv 15 69 69 empty empty empty 20 12 0 14 -228856 -66577
0;
#N canvas 0 0 450 300 (subpatch) 0;
#X array \$0-Wave 70 float 3;
#A 0 0 0 0 0 0 0 0 0 0 0 0 0 0 0 0 0 0 0 0 0 0 0 0 0 0 0 0 0 0 0 0
0 0 0 0 0 0 0 0 0 0 0 0 0 0 0 0 0 0 0 0 0 0 0 0 0 0 0 0 0 0 0 0 0 0
0 0 0 0 0;
#X coords 0 -1 70 1 70 70 1 0 0;
#X restore 95 155 graph;
#X floatatom 533 127 5 0 0 0 - - -;
#X obj 971 551 tabwrite~ \$0-Wave;
#X obj 233 576 outlet~;
#X obj 971 513 metro 80;
#X obj 971 492 tgl 15 0 empty empty empty 17 7 0 10 -262144 -1 -1 1
1;
#X obj 971 469 loadbang;
#X obj 146 135 cnv 3 10 3 empty empty empty 20 12 0 14 -1 -66577 0
;
#X obj 84 233 cnv 3 10 3 empty empty empty 20 12 0 14 -1 -66577 0;
#X obj 147 135 cnv 2 8 2 empty empty empty 20 12 0 14 -99865 -66577
0;
#X obj 83 135 cnv 3 10 3 empty empty empty 20 12 0 14 -1 -66577 0;
#X obj 84 135 cnv 2 8 2 empty empty empty 20 12 0 14 -99865 -66577
0;
#X obj 274 135 cnv 3 10 3 empty empty empty 20 12 0 14 -1 -66577 0
;
#X obj 275 135 cnv 2 8 2 empty empty empty 20 12 0 14 -99865 -66577
0;
#X obj 233 401 vd~ \$0-karplus1;
#X obj 720 81 r \$0-envelope_in;
#X obj 720 240 s~ \$0-envelope_out;
#X obj 102 426 r~ \$0-envelope_out;
#X obj 457 441 *~;
#X obj 456 525 +~;
#X obj 457 418 noise~;
#X obj 645 422 lop~;
#X obj 646 509 *~ 0.99;
#X obj 645 576 outlet~;
#X obj 517 425 r~ \$0-envelope_out;
#X obj 645 399 vd~ \$0-karplus2;
#X obj 274 233 cnv 3 10 3 empty empty empty 20 12 0 14 -1 -66577 0
;
#X obj 373 110 inlet;
#X obj 284 576 s~ \$0-L;
#X obj 696 576 s~ \$0-R;
#X obj 899 447 r~ \$0-L;
#X obj 866 424 r~ \$0-R;
#X obj 867 481 +~;
#X obj 867 534 *~ 0.5;
#X text 183 202 Lop:;
#X obj 213 135 cnv 3 10 3 empty empty empty 20 12 0 14 -1 -66577 0
;
#X obj 214 135 cnv 2 8 2 empty empty empty 20 12 0 14 -99865 -66577
0;
#X floatatom 223 178 5 0 0 0 - - -;
#X floatatom 223 205 5 0 0 0 - - -;
#X obj 533 104 r \$0-pitch_in;
#X obj 533 263 s \$0-pitch_out;
#X obj 233 378 r \$0-pitch_out;
#X obj 645 376 r \$0-pitch_out;
#X floatatom 223 151 5 0 0 0 - - -;
#X text 977 53 To the lops in;
#X text 977 67 the blue and;
#X text 979 79 purple boxes.;
#X text 460 37 Takes in a midi pitch.;
#X text 440 148 midi to freq;
#X obj 41 565 delwrite~ \$0-karplus1 1000;
#X text 432 190 length of delay;
#X text 430 194 ________________;
#X text 449 208 frequency;
#X text 127 88 pitch in;
#X text 262 92 lop in;
#X text 82 116 |;
#X text 82 106 |;
#X text 213 112 |;
#X text 213 102 |;
#X text 146 112 |;
#X text 146 102 |;
#X text 274 116 |;
#X text 63 91 bang in;
#X text 274 106 |;
#X obj 885 242 loadbang;
#X msg 885 265 10;
#X text 48 590 delay line with feedback;
#X text 581 338 Right Output;
#X text 118 345 Left Output;
#X text 270 523 0.99 prevent feedback;
#X text 276 538 from killing us;
#X text 246 446 recurring lop~ creates;
#X text 247 461 texture;
#X text 907 339 Writes to the array;
#X text 733 44 The envelope for the noise.;
#X obj 795 126 r \$0-noise;
#X obj 320 188 r \$0-3;
#X obj 964 286 s \$0-3;
#X obj 322 161 r \$0-2;
#X obj 322 134 r \$0-1;
#X obj 1011 238 loadbang;
#X msg 1011 261 6000;
#X obj 477 242 loadbang;
#X msg 477 265 60;
#X text 177 71 noise length in;
#X text 213 92 |;
#X text 213 82 |;
#X obj 225 286 s \$0-lop;
#X obj 748 405 r \$0-lop;
#X obj 331 407 r \$0-lop;
#X obj 434 288 s \$0-1;
#X obj 845 288 s \$0-2;
#X text 178 149 Pitch:;
#X text 179 177 Noise:;
#X obj 224 244 s \$0-pitch_in;
#X obj 224 265 s \$0-noise;
#X obj 456 565 delwrite~ \$0-karplus2 1000;
#X text 23 625 Design By: Benjamin Pevsner;
#X text 23 667 by Thomas Rossing \, Richard Moore \, and Paul Wheeler
;
#X text 24 652 Based off diagrams/descriptions in "The Science of Sound"
;
#X connect 7 0 46 0;
#X connect 8 0 7 0;
#X connect 9 0 21 0;
#X connect 10 0 8 0;
#X connect 10 0 20 0;
#X connect 11 0 12 0;
#X connect 12 0 79 0;
#X connect 13 0 11 0;
#X connect 14 0 19 0;
#X connect 15 0 17 0;
#X connect 16 0 15 0;
#X connect 16 1 17 1;
#X connect 17 0 18 0;
#X connect 18 0 70 0;
#X connect 19 0 12 1;
#X connect 19 0 33 0;
#X connect 19 0 58 0;
#X connect 20 0 9 0;
#X connect 21 0 7 0;
#X connect 22 0 120 0;
#X connect 23 0 16 0;
#X connect 24 0 121 0;
#X connect 25 0 107 0;
#X connect 31 0 23 0;
#X connect 34 0 32 0;
#X connect 35 0 34 0;
#X connect 36 0 35 0;
#X connect 44 0 14 0;
#X connect 45 0 10 0;
#X connect 47 0 11 1;
#X connect 48 0 49 0;
#X connect 49 0 126 0;
#X connect 50 0 48 0;
#X connect 51 0 52 0;
#X connect 52 0 49 1;
#X connect 52 0 53 0;
#X connect 52 0 59 0;
#X connect 54 0 48 1;
#X connect 55 0 51 0;
#X connect 57 0 10 0;
#X connect 60 0 62 1;
#X connect 61 0 62 0;
#X connect 62 0 63 0;
#X connect 63 0 32 0;
#X connect 67 0 125 0;
#X connect 68 0 117 0;
#X connect 69 0 31 0;
#X connect 71 0 44 0;
#X connect 72 0 55 0;
#X connect 73 0 124 0;
#X connect 94 0 95 0;
#X connect 95 0 121 0;
#X connect 105 0 20 1;
#X connect 106 0 68 0;
#X connect 108 0 67 0;
#X connect 109 0 73 0;
#X connect 110 0 111 0;
#X connect 111 0 107 0;
#X connect 112 0 113 0;
#X connect 113 0 120 0;
#X connect 118 0 51 1;
#X connect 119 0 14 1;
#X coords 0 728 1 727 202 102 0;
