#N canvas 106 0 1039 703 10;
#X obj 48 393 dbtorms;
#X obj 48 413 pack 0 30;
#X obj 48 434 line~;
#X floatatom 145 -122 19 0 90 0 - - -;
#X obj 55 -99 s on/off;
#X obj 145 -100 s volume;
#X obj 48 373 r volume;
#X obj 48 455 s~ volume 1;
#X obj 56 -126 tgl 25 0 empty empty empty 17 7 0 10 -117339 -1 -1 0
1;
#X obj 530 451 *~;
#X obj 530 476 dac~;
#X obj 569 435 r~ volume 1;
#X obj 530 366 *~;
#X obj 570 350 line~;
#N canvas 0 0 450 300 (subpatch) 0;
#X array Sample 90321 float 2;
#X coords 0 1 90321 -1 200 140 1;
#X restore 319 -131 graph;
#X obj 531 282 +~ 1;
#X obj 532 256 *~ 44100;
#X obj 533 234 line~;
#X obj 533 196 pack 0 10000;
#X obj 617 196 pack 0 0;
#X obj 533 171 +;
#X obj 533 144 t f f;
#X obj 533 116 / 100;
#X obj 533 93 float;
#X obj 533 57 t b f;
#X obj 300 429 soundfiler;
#X obj 393 80 t b f b;
#X obj 351 116 del 5;
#X msg 351 137 1 5;
#X obj 397 134 f;
#X obj 397 191 t b f;
#X obj 397 245 pow;
#X obj 427 219 / 12;
#X msg 397 220 2;
#X obj 397 268 * 10;
#X msg 448 117 0 5;
#X obj 397 160 - 60;
#X obj 585 76 r start time;
#X obj 731 282 s start time;
#X text 709 68 point for the sample;
#X text 40 354 - Volume Control -;
#X text 321 354 - reading file -;
#X obj 60 90 float;
#X obj 60 114 + 1;
#X obj 60 138 mod 16;
#X obj 59 163 sel 1 2 3 4 5 6 7 8 9 10 11 12 13 14 15 16;
#X msg 59 204 60;
#X msg 90 204 64;
#X msg 121 204 67;
#X msg 245 204 67;
#X msg 276 204 64;
#X msg 152 204 69;
#X msg 183 204 72;
#X msg 214 204 69;
#X obj 59 257 s notes;
#X obj 178 389 r on/off;
#X obj 178 413 select 1 0;
#X obj 178 438 1 1000;
#X obj 228 437 0 1000;
#X obj 178 467 s on/off 1;
#X obj 570 329 r hit;
#X obj 448 139 s hit;
#X obj 530 417 *~;
#X obj 569 400 line~;
#X obj 569 379 r on/off;
#X obj 351 160 s hit;
#X text 161 355 - On/Off Switch -;
#X msg 300 406 read -resize orch.wav Sample;
#X obj 531 305 tabread4~ Sample;
#X obj 393 33 r notes;
#X obj 393 55 - 41;
#X obj 397 297 s segment;
#X obj 533 32 r segment;
#X obj 146 -63 tgl 25 0 empty empty empty 17 7 0 10 -114916 -1 -1 0
1;
#X obj 55 -35 s read file;
#X obj 300 381 r read file;
#X obj 731 205 float;
#X obj 731 229 + 1;
#X obj 731 255 mod 8;
#X obj 727 107 r extra credit;
#X obj 55 -62 bng 25 250 50 0 empty empty empty 17 7 0 10 -2081 -1
-1;
#X obj 146 -36 s extra credit;
#X text 724 22 - Extra Credit -;
#X text 709 51 Changes the starting;
#X obj 727 129 select 1 0;
#X obj 731 179 metro;
#X msg 753 156 200;
#X msg 720 156 0;
#X floatatom 129 294 5 0 0 0 - - -;
#X obj 60 67 metro 200;
#X obj 60 31 bng 25 250 50 0 empty empty empty 17 7 0 10 -258113 -1
-1;
#X text 94 35 Reset das metro-g-nome;
#X text 54 -4 * Patch reads from left to right.;
#X text 51 328 ------------------------------------------------------------
;
#X text 54 11 ------------------------------------------------------------
;
#X text 414 11 --------------------------------------------;
#X text 412 328 -----------------;
#X connect 0 0 1 0;
#X connect 1 0 2 0;
#X connect 2 0 7 0;
#X connect 3 0 5 0;
#X connect 6 0 0 0;
#X connect 8 0 4 0;
#X connect 9 0 10 0;
#X connect 9 0 10 1;
#X connect 11 0 9 1;
#X connect 12 0 62 0;
#X connect 13 0 12 1;
#X connect 15 0 68 0;
#X connect 16 0 15 0;
#X connect 17 0 16 0;
#X connect 18 0 17 0;
#X connect 19 0 17 0;
#X connect 20 0 18 0;
#X connect 21 0 20 0;
#X connect 21 1 19 0;
#X connect 22 0 21 0;
#X connect 23 0 22 0;
#X connect 24 0 23 0;
#X connect 24 1 20 1;
#X connect 26 0 27 0;
#X connect 26 1 29 1;
#X connect 26 2 35 0;
#X connect 27 0 28 0;
#X connect 27 0 29 0;
#X connect 28 0 65 0;
#X connect 29 0 36 0;
#X connect 30 0 33 0;
#X connect 30 1 32 0;
#X connect 31 0 34 0;
#X connect 32 0 31 1;
#X connect 33 0 31 0;
#X connect 34 0 71 0;
#X connect 35 0 61 0;
#X connect 36 0 30 0;
#X connect 37 0 23 1;
#X connect 42 0 43 0;
#X connect 43 0 44 0;
#X connect 43 0 45 0;
#X connect 44 0 42 1;
#X connect 45 0 46 0;
#X connect 45 1 46 0;
#X connect 45 2 47 0;
#X connect 45 3 47 0;
#X connect 45 4 48 0;
#X connect 45 5 48 0;
#X connect 45 6 51 0;
#X connect 45 7 51 0;
#X connect 45 8 52 0;
#X connect 45 9 52 0;
#X connect 45 10 53 0;
#X connect 45 11 53 0;
#X connect 45 12 49 0;
#X connect 45 13 49 0;
#X connect 45 14 50 0;
#X connect 45 15 50 0;
#X connect 46 0 54 0;
#X connect 46 0 88 0;
#X connect 47 0 54 0;
#X connect 47 0 88 0;
#X connect 48 0 54 0;
#X connect 48 0 88 0;
#X connect 49 0 54 0;
#X connect 49 0 88 0;
#X connect 50 0 54 0;
#X connect 50 0 88 0;
#X connect 51 0 54 0;
#X connect 51 0 88 0;
#X connect 52 0 54 0;
#X connect 52 0 88 0;
#X connect 53 0 54 0;
#X connect 53 0 88 0;
#X connect 55 0 56 0;
#X connect 56 0 57 0;
#X connect 56 1 58 0;
#X connect 57 0 59 0;
#X connect 58 0 59 0;
#X connect 60 0 13 0;
#X connect 62 0 9 0;
#X connect 63 0 62 1;
#X connect 64 0 63 0;
#X connect 67 0 25 0;
#X connect 68 0 12 0;
#X connect 69 0 70 0;
#X connect 70 0 26 0;
#X connect 72 0 24 0;
#X connect 73 0 81 0;
#X connect 75 0 67 0;
#X connect 76 0 77 0;
#X connect 77 0 78 0;
#X connect 78 0 76 1;
#X connect 78 0 38 0;
#X connect 79 0 84 0;
#X connect 80 0 74 0;
#X connect 84 0 86 0;
#X connect 84 1 87 0;
#X connect 85 0 76 0;
#X connect 86 0 85 1;
#X connect 86 0 85 0;
#X connect 87 0 85 0;
#X connect 89 0 42 0;
#X connect 90 0 89 0;
