#N canvas 304 115 572 655 10;
#N canvas 0 0 954 881 Assignment 0;
#X obj 79 610 *~;
#X obj 80 630 *~;
#X obj 80 663 dac~;
#X obj 27 -50 s on/off;
#X obj 112 -37 s volume;
#X obj 655 677 pack n 30;
#X obj 655 698 line~;
#X obj 655 658 dbtorms;
#X obj 655 637 r volume;
#X obj 654 722 s~ volumeOut;
#X obj 155 592 r~ volumeOut;
#X obj 756 660 select 1 0;
#X msg 756 683 1 1000;
#X msg 804 682 0 1000;
#X obj 756 705 line~;
#X obj 756 726 s~ on/off_2;
#X obj 756 640 r on/off;
#X obj 156 614 r~ on/off_2;
#X text 653 599 Volume;
#X text 751 600 On/Off;
#X obj 79 204 mtof;
#X obj 421 218 mtof;
#X floatatom 79 181 5 0 0 0 - - -;
#X obj 521 128 line;
#X obj 421 191 +;
#X msg 451 145 bang;
#X obj 521 107 pack f f;
#X floatatom 77 236 5 0 0 0 - - -;
#N canvas 178 232 499 592 note_high 0;
#X obj 122 150 t b f;
#X obj 147 225 f;
#X obj 190 184 t b l;
#X obj 200 227 unpack f f;
#X obj 158 259 *;
#X obj 225 258 *;
#X floatatom 158 277 5 0 0 0 - - -;
#X floatatom 225 276 5 0 0 0 - - -;
#X obj 158 294 sig~;
#X obj 225 293 sig~;
#X obj 157 312 lop~ 30;
#X obj 225 310 lop~ 30;
#X msg 297 256 2;
#X msg 348 256 6;
#X floatatom 297 274 5 0 0 0 - - -;
#X floatatom 348 274 5 0 0 0 - - -;
#X obj 297 291 sig~;
#X obj 348 291 sig~;
#X obj 297 309 lop~ 30;
#X obj 348 309 *~;
#X obj 297 337 +~;
#X obj 281 361 *~;
#X obj 226 336 *~ 1;
#X obj 227 361 osc~;
#X obj 227 387 *~;
#X obj 158 404 +~;
#X obj 158 426 osc~;
#X obj 122 122 inlet;
#X obj 159 456 outlet~;
#X obj 202 122 inlet;
#X obj 297 226 inlet;
#X connect 0 0 2 0;
#X connect 0 1 1 0;
#X connect 1 0 4 0;
#X connect 1 0 5 0;
#X connect 2 0 1 0;
#X connect 2 1 3 0;
#X connect 3 0 4 1;
#X connect 3 1 5 1;
#X connect 4 0 6 0;
#X connect 5 0 7 0;
#X connect 6 0 8 0;
#X connect 7 0 9 0;
#X connect 8 0 10 0;
#X connect 9 0 11 0;
#X connect 10 0 25 0;
#X connect 11 0 22 0;
#X connect 12 0 14 0;
#X connect 13 0 15 0;
#X connect 14 0 16 0;
#X connect 15 0 17 0;
#X connect 16 0 18 0;
#X connect 17 0 19 0;
#X connect 18 0 20 0;
#X connect 19 0 20 1;
#X connect 20 0 21 1;
#X connect 21 0 24 1;
#X connect 22 0 21 0;
#X connect 22 0 23 0;
#X connect 23 0 24 0;
#X connect 24 0 25 1;
#X connect 25 0 26 0;
#X connect 26 0 28 0;
#X connect 27 0 0 0;
#X connect 29 0 2 0;
#X connect 30 0 12 0;
#X connect 30 0 13 0;
#X restore 77 369 pd note_high;
#N canvas 697 272 450 548 note_low 0;
#X obj 103 142 t b f;
#X obj 128 217 f;
#X obj 171 176 t b l;
#X obj 181 219 unpack f f;
#X obj 139 251 *;
#X obj 206 250 *;
#X floatatom 139 269 5 0 0 0 - - -;
#X floatatom 206 268 5 0 0 0 - - -;
#X obj 139 286 sig~;
#X obj 206 285 sig~;
#X obj 138 304 lop~ 30;
#X obj 206 302 lop~ 30;
#X msg 278 248 2;
#X msg 329 248 6;
#X floatatom 278 266 5 0 0 0 - - -;
#X floatatom 329 266 5 0 0 0 - - -;
#X obj 278 283 sig~;
#X obj 329 283 sig~;
#X obj 278 301 lop~ 30;
#X obj 329 301 *~;
#X obj 278 329 +~;
#X obj 262 353 *~;
#X obj 207 328 *~ 1;
#X obj 208 353 osc~;
#X obj 208 379 *~;
#X obj 139 396 +~;
#X obj 139 418 osc~;
#X obj 103 114 inlet;
#X obj 140 448 outlet~;
#X obj 183 114 inlet;
#X obj 278 213 inlet;
#X connect 0 0 2 0;
#X connect 0 1 1 0;
#X connect 1 0 4 0;
#X connect 1 0 5 0;
#X connect 2 0 1 0;
#X connect 2 1 3 0;
#X connect 3 0 4 1;
#X connect 3 1 5 1;
#X connect 4 0 6 0;
#X connect 5 0 7 0;
#X connect 6 0 8 0;
#X connect 7 0 9 0;
#X connect 8 0 10 0;
#X connect 9 0 11 0;
#X connect 10 0 25 0;
#X connect 11 0 22 0;
#X connect 12 0 14 0;
#X connect 13 0 15 0;
#X connect 14 0 16 0;
#X connect 15 0 17 0;
#X connect 16 0 18 0;
#X connect 17 0 19 0;
#X connect 18 0 20 0;
#X connect 19 0 20 1;
#X connect 20 0 21 1;
#X connect 21 0 24 1;
#X connect 22 0 21 0;
#X connect 22 0 23 0;
#X connect 23 0 24 0;
#X connect 24 0 25 1;
#X connect 25 0 26 0;
#X connect 26 0 28 0;
#X connect 27 0 0 0;
#X connect 29 0 2 0;
#X connect 30 0 12 0;
#X connect 30 0 13 0;
#X restore 420 397 pd note_low;
#X obj 78 514 +~;
#X floatatom 200 -59 5 0 99 0 - - -;
#X obj 200 -39 s 2nd_note;
#X obj 510 442 pack n 30;
#X obj 510 463 line~;
#X obj 510 423 dbtorms;
#X obj 510 402 r 2nd_note;
#X obj 422 479 *~;
#X msg 538 80 0 5000;
#X msg 536 36 bang;
#X obj 538 57 del 5000;
#X floatatom 145 248 5 0 0 0 - - -;
#X floatatom 181 248 5 0 0 0 - - -;
#X obj 146 290 t b f;
#X obj 181 289 t b f;
#X obj 146 327 pack 0 0;
#X floatatom 450 270 5 0 0 0 - - -;
#X floatatom 484 270 5 0 0 0 - - -;
#X obj 450 312 t b f;
#X obj 485 311 t b f;
#X obj 450 349 pack 0 0;
#X msg 79 154 59;
#X msg 421 162 47;
#X obj 79 569 cos~;
#X msg 522 13 0.3 3000;
#X obj 27 -78 inlet;
#X obj 112 -79 inlet;
#X floatatom 112 -58 5 0 0 0 - - -;
#X obj 200 -81 inlet;
#X obj 77 437 *~ 0.3;
#X obj 421 435 *~ 0.3;
#X obj 553 -79 inlet;
#X obj 552 -47 s bang_stuff;
#X obj 186 352 r bang_stuff;
#X obj 508 380 r bang_stuff;
#X obj 79 83 r bang_stuff;
#X obj 284 -81 inlet;
#X obj 361 -81 inlet;
#X obj 451 -80 inlet;
#X floatatom 284 -58 5 0 0 0 - - -;
#X floatatom 361 -57 5 0 0 0 - - -;
#X obj 285 -32 s tone_q1;
#X obj 361 -36 s tone_q2;
#X obj 454 -50 s go;
#X obj 140 201 r tone_q1;
#X obj 436 240 r tone_q1;
#X obj 202 204 r tone_q2;
#X obj 525 231 r tone_q2;
#X obj 529 -18 r go;
#X connect 0 0 1 0;
#X connect 1 0 2 0;
#X connect 1 0 2 1;
#X connect 5 0 6 0;
#X connect 6 0 9 0;
#X connect 7 0 5 0;
#X connect 8 0 7 0;
#X connect 10 0 0 1;
#X connect 11 0 12 0;
#X connect 11 1 13 0;
#X connect 12 0 14 0;
#X connect 13 0 14 0;
#X connect 14 0 15 0;
#X connect 16 0 11 0;
#X connect 17 0 1 1;
#X connect 20 0 27 0;
#X connect 21 0 29 0;
#X connect 22 0 20 0;
#X connect 23 0 24 1;
#X connect 23 0 25 0;
#X connect 24 0 21 0;
#X connect 25 0 52 0;
#X connect 26 0 23 0;
#X connect 27 0 28 0;
#X connect 28 0 59 0;
#X connect 29 0 60 0;
#X connect 30 0 53 0;
#X connect 31 0 32 0;
#X connect 33 0 34 0;
#X connect 34 0 37 1;
#X connect 35 0 33 0;
#X connect 36 0 35 0;
#X connect 37 0 30 1;
#X connect 38 0 26 0;
#X connect 39 0 40 0;
#X connect 40 0 38 0;
#X connect 41 0 43 0;
#X connect 42 0 44 0;
#X connect 43 0 45 0;
#X connect 43 1 45 0;
#X connect 44 0 45 0;
#X connect 44 1 45 1;
#X connect 45 0 28 1;
#X connect 46 0 48 0;
#X connect 47 0 49 0;
#X connect 48 0 50 0;
#X connect 48 1 50 0;
#X connect 49 0 50 0;
#X connect 49 1 50 1;
#X connect 50 0 29 1;
#X connect 51 0 22 0;
#X connect 52 0 24 0;
#X connect 53 0 0 0;
#X connect 54 0 26 0;
#X connect 54 0 39 0;
#X connect 55 0 3 0;
#X connect 56 0 57 0;
#X connect 57 0 4 0;
#X connect 58 0 31 0;
#X connect 59 0 30 0;
#X connect 60 0 37 0;
#X connect 61 0 62 0;
#X connect 63 0 28 2;
#X connect 64 0 29 2;
#X connect 65 0 51 0;
#X connect 65 0 52 0;
#X connect 66 0 69 0;
#X connect 67 0 70 0;
#X connect 68 0 73 0;
#X connect 69 0 71 0;
#X connect 70 0 72 0;
#X connect 74 0 41 0;
#X connect 75 0 46 0;
#X connect 76 0 42 0;
#X connect 77 0 47 0;
#X connect 78 0 54 0;
#X restore 101 297 pd Assignment 6;
#X obj 101 70 tgl 35 0 empty empty empty 17 7 0 10 -159808 -1 -1 0
1;
#X floatatom 115 147 3 0 0 0 - - -;
#X floatatom 130 194 3 0 0 0 - - -;
#X obj 286 207 bng 90 250 50 0 empty empty empty 17 7 0 10 -44054 -1
-1;
#X text 94 49 ON / OFF;
#X text 130 174 Low Tone Volume;
#X text 465 218 PANIC;
#X text 423 230 (aka bang everything);
#X text 269 166 MAKE IT DO SOMETHING;
#N canvas 505 567 450 300 t` 0;
#X floatatom 101 101 2 0 0 0 - - -;
#X floatatom 115 101 2 0 0 0 - - -;
#X obj 113 27 loadbang;
#X msg 114 67 2;
#X msg 145 67 1;
#X obj 103 201 outlet;
#X obj 164 204 outlet;
#X connect 0 0 5 0;
#X connect 1 0 6 0;
#X connect 2 0 3 0;
#X connect 2 0 4 0;
#X connect 3 0 0 0;
#X connect 4 0 1 0;
#X coords 0 -1 1 1 15 20 1 100 100;
#X restore 141 255 pd t`;
#X text 139 233 Tone Quality;
#N canvas 83 338 635 538 (subpatch) 0;
#X obj 101 101 bng 37 250 50 0 empty empty empty 17 7 0 10 -258113
-1 -1;
#X obj 101 55 loadbang;
#X obj 103 202 outlet;
#X connect 0 0 2 0;
#X connect 1 0 0 0;
#X coords 0 -1 1 1 40 40 1 100 100;
#X restore 456 257 pd;
#X text 103 422 3 Change tone settings for giggles;
#X text 65 361 Stuff to try out:;
#X text 103 389 1 The on button;
#X text 103 405 2 uhhh... idk. Make it loud so you can hear it?;
#X text 112 123 Main Volume;
#X text 273 184 (aka the homework);
#X connect 1 0 0 0;
#X connect 2 0 0 1;
#X connect 3 0 0 2;
#X connect 4 0 0 5;
#X connect 10 0 0 3;
#X connect 10 1 0 4;
#X connect 12 0 0 6;
