#N canvas 22 64 1774 866 10;
#X obj 62 651 outlet~;
#X obj 947 347 inlet;
#X obj 63 612 catch~ sum_voice;
#X text 819 176 Each voice contains an envelope and a wave generator.
;
#X text 176 613 All of the voices are caught \, and outputted;
#X text 985 346 The inlet allows for a custom waveshape;
#X text 989 370 I also plan to make an inlet for an adsr;
#X text 800 106 Midikeys handles the keyboard input;
#X obj 563 246 midi_voice;
#X obj 619 223 midi_voice;
#X obj 675 200 midi_voice;
#X obj 731 177 midi_voice;
#X obj 507 269 midi_voice;
#X obj 451 292 midi_voice;
#X obj 395 315 midi_voice;
#X obj 339 338 midi_voice;
#X obj 283 361 midi_voice;
#X obj 227 384 midi_voice;
#X obj 171 407 midi_voice;
#X obj 115 430 midi_voice;
#X obj 59 453 midi_voice;
#X obj 59 86 midi_keys;
#X connect 1 0 8 2;
#X connect 1 0 9 2;
#X connect 1 0 10 2;
#X connect 1 0 11 2;
#X connect 1 0 12 2;
#X connect 1 0 13 2;
#X connect 1 0 14 2;
#X connect 1 0 15 2;
#X connect 1 0 16 2;
#X connect 1 0 17 2;
#X connect 1 0 18 2;
#X connect 1 0 19 2;
#X connect 1 0 20 2;
#X connect 2 0 0 0;
#X connect 21 0 20 0;
#X connect 21 1 20 1;
#X connect 21 2 19 0;
#X connect 21 3 19 1;
#X connect 21 4 18 0;
#X connect 21 5 18 1;
#X connect 21 6 17 0;
#X connect 21 7 17 1;
#X connect 21 8 16 0;
#X connect 21 9 16 1;
#X connect 21 10 15 0;
#X connect 21 11 15 1;
#X connect 21 12 14 0;
#X connect 21 13 14 1;
#X connect 21 14 13 0;
#X connect 21 15 13 1;
#X connect 21 16 12 0;
#X connect 21 17 12 1;
#X connect 21 18 8 0;
#X connect 21 19 8 1;
#X connect 21 20 9 0;
#X connect 21 21 9 1;
#X connect 21 22 10 0;
#X connect 21 23 10 1;
#X connect 21 24 11 0;
#X connect 21 25 11 1;
