#N canvas 989 123 790 572 10;
#X obj 98 305 *~;
#X obj 365 260 line~;
#X obj 99 58 inlet;
#X obj 99 85 mtof;
#X msg 365 102 bang;
#X obj 364 287 *~;
#X obj 419 182 inlet;
#X msg 365 234 1 10;
#X msg 419 232 0 100;
#X msg 419 206 bang;
#X obj 511 134 inlet;
#X text 99 34 pitch;
#X text 424 163 off;
#X text 502 114 waveshape;
#X obj 99 330 throw~ sum_voice;
#X obj 99 151 midi_waveshape;
#X connect 0 0 14 0;
#X connect 1 0 5 0;
#X connect 1 0 5 1;
#X connect 2 0 3 0;
#X connect 3 0 4 0;
#X connect 3 0 15 0;
#X connect 4 0 7 0;
#X connect 5 0 0 1;
#X connect 6 0 9 0;
#X connect 7 0 1 0;
#X connect 8 0 1 0;
#X connect 9 0 8 0;
#X connect 10 0 15 1;
#X connect 15 0 0 0;
