#N canvas 524 69 1049 610 10;
#X obj 321 75 cnv 30 190 71 \$0border_snd \$0border_rcv empty 20 12
0 14 -128992 -262144 0;
#X obj 323 77 cnv 23 23 66 \$0min_ten_snd \$0min_ten_rcv 0 0 30 1 40
-1 -128992 0;
#X obj 346 77 cnv 23 23 66 \$0min_one_snd \$0min_one_rcv 0 0 30 1 40
-1 -128992 0;
#X obj 367 77 cnv 23 23 66 empty \$0colon_rcv : 0 26 1 40 -1 -128992
0;
#X obj 380 77 cnv 23 23 66 \$0sec_ten_snd \$0sec_ten_rcv 0 0 30 1 40
-1 -128992 0;
#X obj 403 77 cnv 23 23 66 \$0sec_one_snd \$0sec_one_rcv 0 0 30 1 40
-1 -128992 0;
#X obj 426 77 cnv 23 23 66 empty \$0period_rcv . 0 30 1 40 -1 -128992
0;
#X obj 440 77 cnv 23 23 66 \$0tenths_snd \$0tenths_rcv 0 0 30 1 40
-1 -128992 0;
#X obj 462 77 cnv 23 23 66 \$0hundreths_snd \$0hundreths_rcv 0 0 30
1 40 -1 -128992 0;
#X obj 485 77 cnv 23 23 66 \$0thousandths_snd \$0thousandths_rcv 0
0 30 1 40 -1 -128992 0;
#X msg 165 521 label \$1;
#X floatatom 165 476 5 0 9 0 - - -;
#X obj 165 500 makefilename %i;
#X msg 65 521 label \$1;
#X floatatom 65 480 5 0 9 0 - - -;
#X obj 65 500 makefilename %i;
#X msg 363 521 label \$1;
#X floatatom 363 476 5 0 9 0 - - -;
#X obj 363 500 makefilename %i;
#X msg 263 521 label \$1;
#X floatatom 263 480 5 0 9 0 - - -;
#X obj 263 500 makefilename %i;
#X obj 165 542 s \$0min_one_rcv;
#X obj 65 542 s \$0min_ten_rcv;
#X obj 263 542 s \$0sec_ten_rcv;
#X obj 363 542 s \$0sec_one_rcv;
#X msg 563 521 label \$1;
#X floatatom 563 480 5 0 9 0 - - -;
#X obj 563 500 makefilename %i;
#X msg 463 521 label \$1;
#X floatatom 463 480 5 0 9 0 - - -;
#X obj 463 500 makefilename %i;
#X obj 463 542 s \$0tenths_rcv;
#X obj 563 542 s \$0hundreths_rcv;
#X msg 675 521 label \$1;
#X floatatom 675 480 5 0 9 0 - - -;
#X obj 675 542 s \$0thousandths_rcv;
#X obj 675 500 makefilename %i;
#X obj 601 185 s \$0border_rcv;
#X floatatom 601 87 3 0 29 0 - - -;
#X msg 601 155 color \$1;
#X msg 601 65 11;
#X text 626 95 border color;
#X floatatom 401 294 10 0 0 0 - - -;
#X obj 675 459 mod 10;
#X obj 563 419 mod 100;
#X obj 563 439 / 10;
#X obj 563 459 int;
#X obj 463 417 mod 1000;
#X obj 463 438 / 100;
#X obj 463 459 int;
#X floatatom 65 348 5 0 0 0 - - -;
#X obj 314 310 / 1000;
#X obj 314 331 int;
#X obj 65 400 / 60;
#X obj 65 420 int;
#X floatatom 65 440 5 0 0 0 - - -;
#X obj 263 420 mod 60;
#X floatatom 263 440 5 0 0 0 - - -;
#X text 28 14 Timer;
#X text 29 28 Benjamin Pevsner;
#X obj 401 268 inlet;
#X text 446 267 in milliseconds;
#X text 62 330 seconds passed;
#X obj 846 454 f;
#X floatatom 861 322 3 0 29 0 - - -;
#X floatatom 891 359 3 0 29 0 - - -;
#X text 889 321 background;
#X text 916 361 label-color;
#X obj 846 479 pack 0 0;
#X msg 888 525 color \$1 \$2;
#X obj 888 549 s \$0period_rcv;
#X obj 888 567 s \$0colon_rcv;
#X obj 861 419 t b f;
#X obj 891 437 t b f;
#X msg 819 342 11;
#X obj 733 288 loadbang;
#X obj 601 33 loadbang;
#X msg 818 305 22;
#X obj 891 70 inlet;
#X obj 861 283 inlet;
#N canvas 498 171 352 429 digislit-99 0;
#X obj 64 34 inlet;
#X obj 64 372 outlet;
#X obj 162 374 outlet;
#X floatatom 162 328 5 0 9 0 - - -;
#X floatatom 64 328 5 0 9 0 - - -;
#X msg 64 190 0;
#X floatatom 64 77 5 0 99 0 - - -;
#X obj 64 123 route 1 2 3 4 5 6 7 8 9;
#X msg 64 99 \$1 \$1;
#X obj 199 145 unpack 0 0;
#X obj 256 194 mod 10;
#X obj 199 194 / 10;
#X floatatom 256 217 5 0 0 0 - - -;
#X floatatom 199 240 5 0 0 0 - - -;
#X obj 199 217 int;
#X obj 64 167 t b f;
#X connect 0 0 6 0;
#X connect 3 0 2 0;
#X connect 4 0 1 0;
#X connect 5 0 4 0;
#X connect 6 0 8 0;
#X connect 7 0 15 0;
#X connect 7 1 15 0;
#X connect 7 2 15 0;
#X connect 7 3 15 0;
#X connect 7 4 15 0;
#X connect 7 5 15 0;
#X connect 7 6 15 0;
#X connect 7 7 15 0;
#X connect 7 8 15 0;
#X connect 7 9 9 0;
#X connect 8 0 7 0;
#X connect 9 0 11 0;
#X connect 9 1 10 0;
#X connect 10 0 12 0;
#X connect 11 0 14 0;
#X connect 12 0 3 0;
#X connect 13 0 4 0;
#X connect 14 0 13 0;
#X connect 15 0 5 0;
#X connect 15 1 3 0;
#X restore 65 459 pd digislit-99;
#N canvas 498 171 352 429 digislit-99 0;
#X obj 64 34 inlet;
#X obj 64 372 outlet;
#X obj 162 374 outlet;
#X floatatom 162 328 5 0 9 0 - - -;
#X floatatom 64 328 5 0 9 0 - - -;
#X msg 64 190 0;
#X floatatom 64 77 5 0 99 0 - - -;
#X obj 64 123 route 1 2 3 4 5 6 7 8 9;
#X msg 64 99 \$1 \$1;
#X obj 199 145 unpack 0 0;
#X obj 256 194 mod 10;
#X obj 199 194 / 10;
#X floatatom 256 217 5 0 0 0 - - -;
#X floatatom 199 240 5 0 0 0 - - -;
#X obj 199 217 int;
#X obj 64 167 t b f;
#X connect 0 0 6 0;
#X connect 3 0 2 0;
#X connect 4 0 1 0;
#X connect 5 0 4 0;
#X connect 6 0 8 0;
#X connect 7 0 15 0;
#X connect 7 1 15 0;
#X connect 7 2 15 0;
#X connect 7 3 15 0;
#X connect 7 4 15 0;
#X connect 7 5 15 0;
#X connect 7 6 15 0;
#X connect 7 7 15 0;
#X connect 7 8 15 0;
#X connect 7 9 9 0;
#X connect 8 0 7 0;
#X connect 9 0 11 0;
#X connect 9 1 10 0;
#X connect 10 0 12 0;
#X connect 11 0 14 0;
#X connect 12 0 3 0;
#X connect 13 0 4 0;
#X connect 14 0 13 0;
#X connect 15 0 5 0;
#X connect 15 1 3 0;
#X restore 263 459 pd digislit-99;
#X connect 10 0 22 0;
#X connect 11 0 12 0;
#X connect 12 0 10 0;
#X connect 13 0 23 0;
#X connect 14 0 15 0;
#X connect 15 0 13 0;
#X connect 16 0 25 0;
#X connect 17 0 18 0;
#X connect 18 0 16 0;
#X connect 19 0 24 0;
#X connect 20 0 21 0;
#X connect 21 0 19 0;
#X connect 26 0 33 0;
#X connect 27 0 28 0;
#X connect 28 0 26 0;
#X connect 29 0 32 0;
#X connect 30 0 31 0;
#X connect 31 0 29 0;
#X connect 34 0 36 0;
#X connect 35 0 37 0;
#X connect 37 0 34 0;
#X connect 39 0 40 0;
#X connect 40 0 38 0;
#X connect 41 0 39 0;
#X connect 43 0 44 0;
#X connect 43 0 45 0;
#X connect 43 0 48 0;
#X connect 43 0 52 0;
#X connect 44 0 35 0;
#X connect 45 0 46 0;
#X connect 46 0 47 0;
#X connect 47 0 27 0;
#X connect 48 0 49 0;
#X connect 49 0 50 0;
#X connect 50 0 30 0;
#X connect 51 0 54 0;
#X connect 51 0 57 0;
#X connect 52 0 53 0;
#X connect 53 0 51 0;
#X connect 54 0 55 0;
#X connect 55 0 56 0;
#X connect 56 0 81 0;
#X connect 57 0 58 0;
#X connect 58 0 82 0;
#X connect 61 0 43 0;
#X connect 64 0 69 0;
#X connect 65 0 73 0;
#X connect 66 0 74 0;
#X connect 69 0 70 0;
#X connect 70 0 23 0;
#X connect 70 0 22 0;
#X connect 70 0 24 0;
#X connect 70 0 25 0;
#X connect 70 0 32 0;
#X connect 70 0 33 0;
#X connect 70 0 36 0;
#X connect 70 0 71 0;
#X connect 70 0 72 0;
#X connect 73 0 64 0;
#X connect 73 1 64 0;
#X connect 74 0 64 0;
#X connect 74 1 69 1;
#X connect 75 0 66 0;
#X connect 76 0 78 0;
#X connect 76 0 75 0;
#X connect 77 0 41 0;
#X connect 78 0 65 0;
#X connect 79 0 39 0;
#X connect 79 0 66 0;
#X connect 80 0 65 0;
#X connect 81 0 14 0;
#X connect 81 1 11 0;
#X connect 82 0 20 0;
#X connect 82 1 17 0;
#X coords 0 -1 1 1 191 72 2 320 74;
