#N canvas 412 431 688 1022 10;
#X obj 153 161 dac~;
#X obj 302 19 cnv 15 100 110 empty empty Volume 20 12 0 14 -66577 -162280
0;
#X obj 314 85 pack 0 30;
#X obj 314 107 line~;
#X obj 153 95 inlet~;
#X obj 153 123 *~;
#X obj 314 62 dbtorms;
#X obj 0 0 cnv 15 100 100 empty empty empty 20 12 0 14 -128992 -66577
0;
#X obj 1 1 cnv 1 7 2 empty empty empty 20 12 0 14 -1 -66577 0;
#X obj 204 95 inlet~;
#X obj 92 1 cnv 1 7 2 empty empty empty 20 12 0 14 -1 -66577 0;
#X obj 204 123 *~;
#X obj 7 7 vsl 85 85 0 99 0 0 empty \$0-volume_rcv 0 25 47 1 30 -66577
-1 -128992 0 1;
#X msg 18 229 label \$1;
#X obj 18 208 makefilename %i;
#X obj 18 250 s \$0-volume_rcv;
#X obj 12 114 s \$0-volume;
#X obj 18 185 r \$0-volume;
#X obj 21 17 cnv 1 1 1 empty empty Volume 5 12 1 14 -66577 -128992
0;
#X obj 314 40 r \$0-volume;
#X connect 2 0 3 0;
#X connect 3 0 11 1;
#X connect 3 0 5 1;
#X connect 4 0 5 0;
#X connect 5 0 0 0;
#X connect 6 0 2 0;
#X connect 9 0 11 0;
#X connect 11 0 0 1;
#X connect 12 0 16 0;
#X connect 13 0 15 0;
#X connect 14 0 13 0;
#X connect 17 0 14 0;
#X connect 19 0 6 0;
#X coords 0 -1 1 1 100 100 2 0 0;
