#N canvas 352 22 1091 982 10;
#X obj 473 320 *~;
#X obj 474 340 *~;
#X obj 562 502 dac~;
#X obj 91 60 tgl 25 0 empty empty empty 17 7 0 10 -159808 -1 -1 0 1
;
#X floatatom 226 70 8 0 99 0 - - -;
#X obj 91 88 s on/off;
#X obj 226 89 s volume;
#X floatatom 292 66 14 0 0 0 - - -;
#X obj 292 89 s pitch_change;
#X obj 666 315 *~;
#X obj 666 337 *~;
#X obj 81 681 random 2;
#X obj 474 425 *~;
#X obj 549 367 select 1 0;
#X obj 549 409 line~;
#X obj 551 347 r off_Left;
#X obj 666 423 *~;
#X obj 734 363 select 1 0;
#X obj 734 407 line~;
#X obj 734 342 r off_Right;
#X obj 90 595 s~ signal;
#X obj 474 295 r~ signal;
#X obj 665 290 r~ signal;
#X msg 50 745 1;
#X msg 76 744 0;
#X obj 55 798 s off_Right;
#X obj 127 798 s off_Left;
#X msg 105 744 0;
#X msg 134 744 1;
#X obj 541 669 s metro;
#X obj 96 123 r metro;
#X obj 81 653 r metro;
#X obj 264 624 pack n 30;
#X obj 264 645 line~;
#X obj 264 605 dbtorms;
#X obj 264 584 r volume;
#X obj 263 669 s~ volumeOut;
#X obj 549 302 r~ volumeOut;
#X obj 734 298 r~ volumeOut;
#X obj 422 603 select 1 0;
#X msg 422 626 1 1000;
#X msg 470 625 0 1000;
#X obj 422 648 line~;
#X obj 422 669 s~ on/off_2;
#X obj 422 583 r on/off;
#X obj 734 320 r~ on/off_2;
#X obj 550 324 r~ on/off_2;
#X text 262 546 Volume;
#X text 417 543 On/Off;
#X obj 81 711 sel 0 1;
#X text 517 265 Left;
#X text 708 261 Right;
#X msg 773 385 0 1;
#X msg 734 386 1 1;
#X msg 590 388 0 1;
#X msg 549 388 1 1;
#X obj 541 578 loadbang;
#X obj 160 88 s tempo;
#X obj 568 619 r tempo;
#X floatatom 160 62 7 0 0 0 - - -;
#X obj 160 14 loadbang;
#X text 538 545 tempo;
#X msg 160 32 200;
#X obj 541 645 metro;
#X floatatom 412 71 5 0 0 0 - - -;
#X obj 412 91 s note_length;
#X obj 89 572 catch~ sum;
#X obj 412 20 loadbang;
#X msg 412 37 85;
#X obj 96 202 t b f;
#X obj 58 235 f;
#X obj 90 235 + 1;
#X obj 90 261 mod 8;
#X obj 102 297 pack;
#X obj 102 321 route 0 1 2 3 4 5 6 7;
#X obj 266 358 r note_length;
#X obj 264 330 r pitch_change;
#X obj 210 491 sine-voice;
#X obj 96 174 + 36;
#X obj 193 469 sine-voice;
#X obj 102 347 sine-voice;
#X obj 132 387 sine-voice;
#X obj 149 408 sine-voice;
#X obj 179 450 sine-voice;
#X obj 163 429 sine-voice;
#X obj 117 367 sine-voice;
#X obj 96 147 random 36;
#X connect 0 0 1 0;
#X connect 1 0 12 0;
#X connect 3 0 5 0;
#X connect 4 0 6 0;
#X connect 7 0 8 0;
#X connect 9 0 10 0;
#X connect 10 0 16 0;
#X connect 11 0 49 0;
#X connect 12 0 2 0;
#X connect 13 0 55 0;
#X connect 13 1 54 0;
#X connect 14 0 12 1;
#X connect 15 0 13 0;
#X connect 16 0 2 1;
#X connect 17 0 53 0;
#X connect 17 1 52 0;
#X connect 18 0 16 1;
#X connect 19 0 17 0;
#X connect 21 0 0 0;
#X connect 22 0 9 0;
#X connect 23 0 25 0;
#X connect 24 0 26 0;
#X connect 27 0 25 0;
#X connect 28 0 26 0;
#X connect 30 0 86 0;
#X connect 31 0 11 0;
#X connect 32 0 33 0;
#X connect 33 0 36 0;
#X connect 34 0 32 0;
#X connect 35 0 34 0;
#X connect 37 0 0 1;
#X connect 38 0 9 1;
#X connect 39 0 40 0;
#X connect 39 1 41 0;
#X connect 40 0 42 0;
#X connect 41 0 42 0;
#X connect 42 0 43 0;
#X connect 44 0 39 0;
#X connect 45 0 10 1;
#X connect 46 0 1 1;
#X connect 49 0 23 0;
#X connect 49 0 24 0;
#X connect 49 1 27 0;
#X connect 49 1 28 0;
#X connect 52 0 18 0;
#X connect 53 0 18 0;
#X connect 54 0 14 0;
#X connect 55 0 14 0;
#X connect 56 0 63 0;
#X connect 58 0 63 1;
#X connect 59 0 57 0;
#X connect 60 0 62 0;
#X connect 62 0 59 0;
#X connect 63 0 29 0;
#X connect 64 0 65 0;
#X connect 66 0 20 0;
#X connect 67 0 68 0;
#X connect 68 0 64 0;
#X connect 69 0 70 0;
#X connect 69 1 73 1;
#X connect 70 0 71 0;
#X connect 70 0 73 0;
#X connect 71 0 72 0;
#X connect 72 0 70 1;
#X connect 73 0 74 0;
#X connect 74 0 80 0;
#X connect 74 1 85 0;
#X connect 74 2 81 0;
#X connect 74 3 82 0;
#X connect 74 4 84 0;
#X connect 74 5 83 0;
#X connect 74 6 79 0;
#X connect 74 7 77 0;
#X connect 75 0 77 2;
#X connect 75 0 79 2;
#X connect 75 0 80 2;
#X connect 75 0 81 2;
#X connect 75 0 82 2;
#X connect 75 0 83 2;
#X connect 75 0 84 2;
#X connect 75 0 85 2;
#X connect 76 0 77 1;
#X connect 76 0 79 1;
#X connect 76 0 80 1;
#X connect 76 0 81 1;
#X connect 76 0 82 1;
#X connect 76 0 83 1;
#X connect 76 0 84 1;
#X connect 76 0 85 1;
#X connect 78 0 69 0;
#X connect 86 0 78 0;
