#N canvas 1299 427 569 504 10;
#X obj 99 204 osc~;
#X obj 98 233 *~;
#X obj 154 171 line~;
#X obj 99 34 inlet;
#X obj 99 85 mtof;
#X msg 154 102 bang;
#X obj 153 203 *~;
#X obj 263 109 inlet;
#X obj 98 259 throw~ sum;
#X msg 154 140 1 10;
#X msg 208 103 bang;
#X obj 99 60 +;
#X obj 146 43 inlet;
#X obj 208 126 del 10;
#X msg 208 154 0 1000;
#X connect 0 0 1 0;
#X connect 1 0 8 0;
#X connect 2 0 6 0;
#X connect 2 0 6 1;
#X connect 3 0 11 0;
#X connect 4 0 0 0;
#X connect 4 0 5 0;
#X connect 4 0 10 0;
#X connect 5 0 9 0;
#X connect 6 0 1 1;
#X connect 7 0 13 1;
#X connect 9 0 2 0;
#X connect 10 0 13 0;
#X connect 11 0 4 0;
#X connect 12 0 11 1;
#X connect 13 0 14 0;
#X connect 14 0 2 0;
