#N canvas 60 43 1774 866 10;
#X obj 62 651 outlet~;
#X obj 59 453 BP_midivoice;
#X obj 1073 436 inlet;
#X obj 59 86 bp_midikeys;
#X obj 127 430 BP_midivoice;
#X obj 195 407 BP_midivoice;
#X obj 263 384 BP_midivoice;
#X obj 332 361 BP_midivoice;
#X obj 400 338 BP_midivoice;
#X obj 468 315 BP_midivoice;
#X obj 537 292 BP_midivoice;
#X obj 605 269 BP_midivoice;
#X obj 673 246 BP_midivoice;
#X obj 742 223 BP_midivoice;
#X obj 810 200 BP_midivoice;
#X obj 878 177 BP_midivoice;
#X obj 63 612 catch~ sum_voice;
#X connect 2 0 1 2;
#X connect 2 0 4 2;
#X connect 2 0 5 2;
#X connect 2 0 6 2;
#X connect 2 0 7 2;
#X connect 2 0 8 2;
#X connect 2 0 9 2;
#X connect 2 0 10 2;
#X connect 2 0 11 2;
#X connect 2 0 12 2;
#X connect 2 0 13 2;
#X connect 2 0 14 2;
#X connect 2 0 15 2;
#X connect 3 0 1 0;
#X connect 3 1 1 1;
#X connect 3 2 4 0;
#X connect 3 3 4 1;
#X connect 3 4 5 0;
#X connect 3 5 5 1;
#X connect 3 6 6 0;
#X connect 3 7 6 1;
#X connect 3 8 7 0;
#X connect 3 9 7 1;
#X connect 3 10 8 0;
#X connect 3 11 8 1;
#X connect 3 12 9 0;
#X connect 3 13 9 1;
#X connect 3 14 10 0;
#X connect 3 15 10 1;
#X connect 3 16 11 0;
#X connect 3 17 11 1;
#X connect 3 18 12 0;
#X connect 3 19 12 1;
#X connect 3 20 13 0;
#X connect 3 21 13 1;
#X connect 3 22 14 0;
#X connect 3 23 14 1;
#X connect 3 24 15 0;
#X connect 3 25 15 1;
#X connect 16 0 0 0;
