#N canvas 168 0 763 886 10;
#X obj 35 281 cnv 15 100 110 empty empty Volume 20 12 0 14 -66577 -162280
0;
#X obj 46 334 pack 0 30;
#X obj 46 356 line~;
#X obj 180 374 *~;
#X obj 203 214 loadbang;
#X msg 203 234 50;
#X obj 179 183 inlet~;
#X obj 0 19 cnv 15 650 60 empty empty Output2-(Horizontal) 20 29 0
38 -204786 -66577 0;
#X obj 46 311 dbtorms;
#X obj 206 300 hsl 90 15 0 100 0 0 empty empty Volume 16 8 1 11 -228856
-1 -1 6300 1;
#X obj 206 318 hsl 90 15 0 100.1 0 0 empty empty Pan 16 8 1 11 -228856
-1 -1 4300 1;
#X obj 299 300 nbx 2 15 -1e+037 1e+037 0 0 empty empty empty 0 -8 0
10 -228856 -1 -1 70.7865 256;
#X obj 299 318 nbx 2 15 -1e+037 1e+037 0 0 empty empty empty 0 -8 0
10 -228856 -1 -1 48.3629 256;
#X obj 393 179 inlet~;
#X obj 392 452 *~;
#X obj 181 678 dac~;
#X obj 180 612 *~;
#X obj 180 634 *~ 2;
#X obj 333 525 cnv 15 160 180 empty empty Pan 20 12 0 14 -66577 -162280
0;
#X obj 344 547 / 100;
#X obj 407 564 pack 0 30;
#X obj 407 584 line~;
#X obj 344 586 t b f;
#X msg 344 608 1;
#X obj 356 632 -;
#X obj 356 656 pack 0 30;
#X obj 356 681 line~;
#X obj 393 607 *~;
#X obj 393 631 *~ 2;
#X obj 341 301 tgl 30 0 empty empty DSP 1 15 0 16 -228856 -1 -1 1 1
;
#X msg 343 375 dsp \$1;
#X obj 343 399 s pd;
#X obj 305 227 sel 0;
#X msg 305 255 0;
#X msg 347 256 1;
#X obj 180 770 outlet~;
#X obj 228 770 outlet~;
#X connect 1 0 2 0;
#X connect 2 0 3 1;
#X connect 2 0 14 1;
#X connect 3 0 16 0;
#X connect 4 0 5 0;
#X connect 5 0 10 0;
#X connect 6 0 3 0;
#X connect 8 0 1 0;
#X connect 9 0 11 0;
#X connect 9 0 8 0;
#X connect 9 0 32 0;
#X connect 10 0 12 0;
#X connect 10 0 19 0;
#X connect 13 0 14 0;
#X connect 14 0 27 0;
#X connect 16 0 17 0;
#X connect 17 0 15 0;
#X connect 17 0 35 0;
#X connect 19 0 20 0;
#X connect 19 0 22 0;
#X connect 20 0 21 0;
#X connect 21 0 27 1;
#X connect 22 0 23 0;
#X connect 22 1 24 1;
#X connect 23 0 24 0;
#X connect 24 0 25 0;
#X connect 25 0 26 0;
#X connect 26 0 16 1;
#X connect 27 0 28 0;
#X connect 28 0 15 1;
#X connect 28 0 36 0;
#X connect 29 0 30 0;
#X connect 30 0 31 0;
#X connect 32 0 33 0;
#X connect 32 1 34 0;
#X connect 33 0 29 0;
#X connect 34 0 29 0;
#X coords 0 -1 1 1 190 42 2 194 296;
