#N canvas 898 21 944 570 10;
#X obj 328 174 /;
#X obj 414 174 /;
#X obj 499 174 /;
#X obj 586 174 /;
#X obj 672 174 /;
#X obj 757 174 /;
#X msg 343 147 1;
#X obj 151 326 pack 0 0 0 0 0 0 0 0 0 0 0 0 0;
#X msg 151 43 512;
#X msg 178 157 1;
#X obj 151 373 outlet;
#X obj 151 8 inlet;
#X obj 178 130 t b b;
#X obj 151 78 t f b;
#X obj 370 174 *;
#X msg 385 147 0;
#X obj 457 174 *;
#X msg 472 147 0;
#X obj 543 174 *;
#X msg 558 147 0;
#X obj 628 174 *;
#X msg 643 147 0;
#X msg 730 147 0;
#X obj 715 174 *;
#X msg 816 147 0;
#X obj 801 174 *;
#X msg 429 147 2;
#X msg 514 147 3;
#X msg 601 147 4;
#X msg 687 147 5;
#X msg 772 147 6;
#X connect 0 0 7 1;
#X connect 1 0 7 3;
#X connect 2 0 7 5;
#X connect 3 0 7 7;
#X connect 4 0 7 9;
#X connect 5 0 7 11;
#X connect 6 0 0 1;
#X connect 7 0 10 0;
#X connect 8 0 13 0;
#X connect 9 0 0 0;
#X connect 9 0 1 0;
#X connect 9 0 2 0;
#X connect 9 0 3 0;
#X connect 9 0 4 0;
#X connect 9 0 5 0;
#X connect 9 0 14 0;
#X connect 9 0 16 0;
#X connect 9 0 18 0;
#X connect 9 0 20 0;
#X connect 9 0 23 0;
#X connect 9 0 25 0;
#X connect 11 0 8 0;
#X connect 12 0 9 0;
#X connect 12 1 6 0;
#X connect 12 1 15 0;
#X connect 12 1 26 0;
#X connect 12 1 17 0;
#X connect 12 1 27 0;
#X connect 12 1 19 0;
#X connect 12 1 28 0;
#X connect 12 1 21 0;
#X connect 12 1 29 0;
#X connect 12 1 22 0;
#X connect 12 1 30 0;
#X connect 12 1 24 0;
#X connect 13 0 7 0;
#X connect 13 1 12 0;
#X connect 14 0 7 2;
#X connect 15 0 14 1;
#X connect 16 0 7 4;
#X connect 17 0 16 1;
#X connect 18 0 7 6;
#X connect 19 0 18 1;
#X connect 20 0 7 8;
#X connect 21 0 20 1;
#X connect 22 0 23 1;
#X connect 23 0 7 10;
#X connect 24 0 25 1;
#X connect 25 0 7 12;
#X connect 26 0 1 1;
#X connect 27 0 2 1;
#X connect 28 0 3 1;
#X connect 29 0 4 1;
#X connect 30 0 5 1;
