#N canvas 341 246 1145 613 10;
#X obj 308 154 /;
#X obj 394 154 /;
#X obj 350 154 /;
#X obj 437 154 /;
#X obj 523 154 /;
#X obj 479 154 /;
#X obj 566 154 /;
#X obj 652 154 /;
#X obj 608 154 /;
#X obj 695 154 /;
#X obj 781 154 /;
#X obj 737 154 /;
#X msg 323 127 1;
#X msg 365 127 2;
#X msg 409 127 3;
#X msg 452 127 4;
#X msg 494 127 5;
#X msg 538 127 6;
#X msg 581 127 7;
#X msg 623 127 8;
#X msg 667 127 9;
#X msg 752 127 11;
#X msg 796 127 12;
#X msg 710 127 10;
#X obj 131 306 pack 0 0 0 0 0 0 0 0 0 0 0 0 0;
#X msg 131 23 512;
#X msg 158 137 1;
#X obj 131 353 outlet;
#X obj 131 -12 inlet;
#X obj 158 110 t b b;
#X obj 131 58 t f b;
#X connect 0 0 24 1;
#X connect 1 0 24 3;
#X connect 2 0 24 2;
#X connect 3 0 24 4;
#X connect 4 0 24 6;
#X connect 5 0 24 5;
#X connect 6 0 24 7;
#X connect 7 0 24 9;
#X connect 8 0 24 8;
#X connect 9 0 24 10;
#X connect 10 0 24 12;
#X connect 11 0 24 11;
#X connect 12 0 0 1;
#X connect 13 0 2 1;
#X connect 14 0 1 1;
#X connect 15 0 3 1;
#X connect 16 0 5 1;
#X connect 17 0 4 1;
#X connect 18 0 6 1;
#X connect 19 0 8 1;
#X connect 20 0 7 1;
#X connect 21 0 11 1;
#X connect 22 0 10 1;
#X connect 23 0 9 1;
#X connect 24 0 27 0;
#X connect 25 0 30 0;
#X connect 26 0 0 0;
#X connect 26 0 2 0;
#X connect 26 0 1 0;
#X connect 26 0 3 0;
#X connect 26 0 5 0;
#X connect 26 0 4 0;
#X connect 26 0 6 0;
#X connect 26 0 8 0;
#X connect 26 0 7 0;
#X connect 26 0 9 0;
#X connect 26 0 11 0;
#X connect 26 0 10 0;
#X connect 28 0 25 0;
#X connect 29 0 26 0;
#X connect 29 1 12 0;
#X connect 29 1 13 0;
#X connect 29 1 14 0;
#X connect 29 1 15 0;
#X connect 29 1 16 0;
#X connect 29 1 17 0;
#X connect 29 1 18 0;
#X connect 29 1 19 0;
#X connect 29 1 20 0;
#X connect 29 1 23 0;
#X connect 29 1 21 0;
#X connect 29 1 22 0;
#X connect 30 0 24 0;
#X connect 30 1 29 0;
