#N canvas 73 93 794 722 10;
#X obj 106 286 osc~ 2;
#X obj 248 270 pack 0 30;
#X obj 248 292 line~;
#X floatatom 248 244 5 0 0 0 - - -;
#X floatatom 106 253 5 0 0 0 - - -;
#X obj 106 309 *~;
#X obj 100 35 inlet~;
#X obj 100 129 cnv 15 100 100 empty empty empty 20 20 0 14 -128992
-1 0;
#X obj 100 129 cnv 1 7 2 empty empty empty 20 12 0 14 -1 -66577 0;
#X obj 107 393 outlet~;
#X obj 100 227 cnv 1 7 2 empty empty empty 20 12 0 14 -1 -66577 0;
#X obj 100 66 delwrite~ \$0-vibrato 50;
#X obj 106 360 vd~ \$0-vibrato;
#X obj 103 133 cnv 15 92 92 empty empty Vibrato 16 20 0 14 -66577 -191407
0;
#X obj 109 169 hsl 80 20 0 15 0 0 empty empty Speed 27 9 0 10 -191407
-1 -1 2200 1;
#X obj 109 197 hsl 80 20 0 13 0 0 empty empty Depth 27 9 0 10 -191407
-1 -1 5400 1;
#X obj 330 82 inlet;
#X obj 396 84 inlet;
#X obj 145 128 cnv 1 7 2 empty empty empty 20 12 0 14 -1 -66577 0;
#X obj 192 128 cnv 1 7 2 empty empty empty 20 12 0 14 -1 -66577 0;
#X obj 106 335 +~ 10;
#X connect 0 0 5 0;
#X connect 1 0 2 0;
#X connect 2 0 5 1;
#X connect 3 0 1 0;
#X connect 4 0 0 0;
#X connect 5 0 20 0;
#X connect 6 0 11 0;
#X connect 12 0 9 0;
#X connect 14 0 4 0;
#X connect 15 0 3 0;
#X connect 16 0 14 0;
#X connect 17 0 15 0;
#X connect 20 0 12 0;
#X coords 0 -1 1 1 100 102 1 100 128;
