#N canvas 120 97 732 666 10;
#X obj -402 411 inlet~;
#X obj -402 480 +~;
#X obj -402 521 outlet~;
#X obj -270 136 inlet;
#X obj -270 239 t b f;
#X msg -270 258 1000;
#X obj -270 277 /;
#X obj -270 371 vd~ \$0-Comb;
#X obj -270 464 *~;
#X obj -120 429 pack 0 30;
#X obj -120 448 line~;
#X obj -120 346 inlet;
#X floatatom -120 365 5 0 0 0 - - -;
#X floatatom -270 155 5 0 0 0 - - -;
#X floatatom -270 221 5 0 0 0 - - -;
#X floatatom -270 296 5 0 0 0 - - -;
#X text -682 32 Ben Pevsner;
#X text -429 391 audio signal inlet;
#X text -290 114 pitch inlet;
#X text -134 327 ring inlet;
#X text -682 18 Basic Feedback Comb Filter;
#X obj -120 410 / 100;
#X obj -583 496 delwrite~ \$0-Comb 1000;
#X connect 0 0 1 0;
#X connect 1 0 2 0;
#X connect 1 0 22 0;
#X connect 3 0 13 0;
#X connect 4 0 5 0;
#X connect 4 1 6 1;
#X connect 5 0 6 0;
#X connect 6 0 15 0;
#X connect 7 0 8 0;
#X connect 8 0 1 1;
#X connect 9 0 10 0;
#X connect 10 0 8 1;
#X connect 11 0 12 0;
#X connect 12 0 21 0;
#X connect 13 0 14 0;
#X connect 14 0 4 0;
#X connect 15 0 7 0;
#X connect 21 0 9 0;
