#N canvas 454 334 450 300 10;
#X floatatom 113 48 5 0 0 0 - - -;
#X obj 113 66 mtof;
#X floatatom 113 85 5 0 0 0 - - -;
#X obj 113 103 t b f;
#X msg 113 122 1000;
#X obj 113 141 /;
#X floatatom 113 160 5 0 0 0 - - -;
#X obj 113 27 inlet;
#X obj 113 178 outlet;
#X connect 0 0 1 0;
#X connect 1 0 2 0;
#X connect 2 0 3 0;
#X connect 3 0 4 0;
#X connect 3 1 5 1;
#X connect 4 0 5 0;
#X connect 5 0 6 0;
#X connect 6 0 8 0;
#X connect 7 0 0 0;
