#N canvas 583 261 514 445 10;
#X obj 101 134 select 1 0;
#X msg 101 161 1 1000;
#X msg 150 162 0 1000;
#X obj 101 187 line~;
#X obj -11 241 outlet~;
#X obj -12 205 *~;
#X obj -13 177 inlet~;
#X obj 101 100 tgl 25 0 empty empty empty 3 13 0 16 -66577 -204786
-162280 0 1;
#X connect 0 0 1 0;
#X connect 0 1 2 0;
#X connect 1 0 3 0;
#X connect 2 0 3 0;
#X connect 3 0 5 1;
#X connect 5 0 4 0;
#X connect 6 0 5 0;
#X connect 7 0 0 0;
#X coords 0 -1 1 1 26 26 2 100 100;
