#N canvas 27 24 1694 784 10;
#X obj 772 82 key;
#X obj 304 91 keyup;
#X floatatom 772 105 5 0 0 0 - - -;
#X msg 772 213 a;
#X msg 799 213 b;
#X msg 826 213 c;
#X msg 854 213 d;
#X msg 882 213 e;
#X msg 909 213 f;
#X msg 937 213 g;
#X msg 965 213 h;
#X msg 993 213 i;
#X msg 1021 213 j;
#X msg 1049 213 k;
#X msg 1077 213 l;
#X msg 1106 213 m;
#X msg 1134 213 n;
#X msg 1161 213 o;
#X msg 1188 213 p;
#X msg 1216 213 q;
#X msg 1244 213 r;
#X msg 1272 213 s;
#X msg 1299 213 t;
#X msg 1327 213 u;
#X msg 1356 214 v;
#X msg 1384 214 w;
#X msg 1413 215 x;
#X msg 1442 215 y;
#X msg 1471 215 z;
#X obj 772 148 sel 97 98 99 100 101 102 103 104 105 106 107 108 109
110 111 112 113 114 115 116 117 118 119 120 121 122;
#X obj 772 302 symbol;
#X obj 772 327 makefilename %s;
#X symbolatom 772 358 10 0 0 0 - - -;
#X obj 386 140 sel 49 50 51 52 53 54 55 56 57 48;
#X floatatom 386 114 5 0 0 0 - - -;
#X msg 385 200 1;
#X msg 412 200 2;
#X msg 440 200 3;
#X msg 467 200 4;
#X msg 495 200 5;
#X msg 522 200 6;
#X msg 550 200 7;
#X msg 578 200 8;
#X msg 635 200 0;
#X msg 607 200 9;
#X floatatom 385 278 5 0 0 0 - - -;
#X connect 0 0 2 0;
#X connect 0 0 34 0;
#X connect 2 0 29 0;
#X connect 3 0 30 0;
#X connect 4 0 30 0;
#X connect 5 0 30 0;
#X connect 6 0 30 0;
#X connect 7 0 30 0;
#X connect 8 0 30 0;
#X connect 9 0 30 0;
#X connect 10 0 30 0;
#X connect 11 0 30 0;
#X connect 12 0 30 0;
#X connect 13 0 30 0;
#X connect 14 0 30 0;
#X connect 15 0 30 0;
#X connect 16 0 30 0;
#X connect 17 0 30 0;
#X connect 18 0 30 0;
#X connect 20 0 30 0;
#X connect 21 0 30 0;
#X connect 22 0 30 0;
#X connect 23 0 30 0;
#X connect 24 0 30 0;
#X connect 25 0 30 0;
#X connect 26 0 30 0;
#X connect 27 0 30 0;
#X connect 28 0 30 0;
#X connect 29 0 3 0;
#X connect 29 1 4 0;
#X connect 29 2 5 0;
#X connect 29 3 6 0;
#X connect 29 4 7 0;
#X connect 29 5 8 0;
#X connect 29 6 9 0;
#X connect 29 7 10 0;
#X connect 29 8 11 0;
#X connect 29 9 12 0;
#X connect 29 10 13 0;
#X connect 29 11 14 0;
#X connect 29 12 15 0;
#X connect 29 13 16 0;
#X connect 29 14 17 0;
#X connect 29 15 18 0;
#X connect 29 16 19 0;
#X connect 29 17 20 0;
#X connect 29 18 21 0;
#X connect 29 19 22 0;
#X connect 29 20 23 0;
#X connect 29 21 24 0;
#X connect 29 22 25 0;
#X connect 29 23 26 0;
#X connect 29 24 27 0;
#X connect 29 25 28 0;
#X connect 30 0 31 0;
#X connect 31 0 32 0;
#X connect 33 0 35 0;
#X connect 33 1 36 0;
#X connect 33 2 37 0;
#X connect 33 3 38 0;
#X connect 33 4 39 0;
#X connect 33 5 40 0;
#X connect 33 6 41 0;
#X connect 33 7 42 0;
#X connect 33 8 44 0;
#X connect 33 9 43 0;
#X connect 34 0 33 0;
#X connect 35 0 45 0;
#X connect 36 0 45 0;
#X connect 37 0 45 0;
#X connect 38 0 45 0;
#X connect 39 0 45 0;
#X connect 40 0 45 0;
#X connect 41 0 45 0;
#X connect 42 0 45 0;
#X connect 43 0 45 0;
#X connect 44 0 45 0;
