#N canvas 283 207 1136 612 10;
#X obj 318 164 /;
#X obj 404 164 /;
#X obj 489 164 /;
#X obj 576 164 /;
#X obj 662 164 /;
#X obj 747 164 /;
#X msg 333 137 1;
#X obj 141 316 pack 0 0 0 0 0 0 0 0 0 0 0 0 0;
#X msg 141 33 512;
#X msg 168 147 1;
#X obj 141 363 outlet;
#X obj 141 -2 inlet;
#X obj 168 120 t b b;
#X obj 141 68 t f b;
#X obj 360 164 *;
#X msg 375 137 0;
#X obj 447 164 *;
#X msg 462 137 0;
#X obj 533 164 *;
#X msg 548 137 0;
#X obj 618 164 *;
#X msg 633 137 0;
#X msg 720 137 0;
#X obj 705 164 *;
#X msg 806 137 0;
#X obj 791 164 *;
#X msg 419 137 -9;
#X msg 504 137 25;
#X msg 591 137 -49;
#X msg 677 137 81;
#X msg 762 137 -121;
#X connect 0 0 7 1;
#X connect 1 0 7 3;
#X connect 2 0 7 5;
#X connect 3 0 7 7;
#X connect 4 0 7 9;
#X connect 5 0 7 11;
#X connect 6 0 0 1;
#X connect 7 0 10 0;
#X connect 8 0 13 0;
#X connect 9 0 0 0;
#X connect 9 0 1 0;
#X connect 9 0 2 0;
#X connect 9 0 3 0;
#X connect 9 0 4 0;
#X connect 9 0 5 0;
#X connect 9 0 14 0;
#X connect 9 0 16 0;
#X connect 9 0 18 0;
#X connect 9 0 20 0;
#X connect 9 0 23 0;
#X connect 9 0 25 0;
#X connect 11 0 8 0;
#X connect 12 0 9 0;
#X connect 12 1 6 0;
#X connect 12 1 15 0;
#X connect 12 1 26 0;
#X connect 12 1 17 0;
#X connect 12 1 27 0;
#X connect 12 1 19 0;
#X connect 12 1 28 0;
#X connect 12 1 21 0;
#X connect 12 1 29 0;
#X connect 12 1 22 0;
#X connect 12 1 30 0;
#X connect 12 1 24 0;
#X connect 13 0 7 0;
#X connect 13 1 12 0;
#X connect 14 0 7 2;
#X connect 15 0 14 1;
#X connect 16 0 7 4;
#X connect 17 0 16 1;
#X connect 18 0 7 6;
#X connect 19 0 18 1;
#X connect 20 0 7 8;
#X connect 21 0 20 1;
#X connect 22 0 23 1;
#X connect 23 0 7 10;
#X connect 24 0 25 1;
#X connect 25 0 7 12;
#X connect 26 0 1 1;
#X connect 27 0 2 1;
#X connect 28 0 3 1;
#X connect 29 0 4 1;
#X connect 30 0 5 1;
