#N canvas 63 43 1584 828 10;
#X obj 359 54 cnv 15 320 300 empty empty Sample_Tables 20 12 0 14 -203904
-66577 0;
#X obj 391 128 table Sample-2 44100;
#X obj 391 163 loadbang;
#X obj 591 238 soundfiler;
#X obj 591 261 soundfiler;
#X obj 591 284 s Sample-1;
#X obj 591 307 s Sample-2;
#X obj 391 106 table Sample-1 396900;
#X obj 391 193 t b b;
#X msg 418 221 read Sample-1.wav Sample-1;
#X msg 418 244 read Sample-2.wav Sample-2;
#X msg 391 284 \; Sample-1 normalize \; Sample-2 normalize;
#X obj -17 366 cnv 15 1260 400 empty empty Melody 20 12 0 14 -204786
-66577 0;
#X obj 727 488 del 380;
#X obj 59 411 r time;
#X obj 439 407 r time;
#X obj 650 409 r time;
#X obj 909 409 r time;
#X obj 482 541 s A5;
#X obj 909 506 s A5;
#N canvas 168 127 1433 584 notes 0;
#X obj 31 123 inlet;
#X obj 31 307 outlet;
#X obj 66 140 delay;
#X obj 125 157 delay;
#X obj 183 174 delay;
#X obj 242 191 delay;
#X obj 299 208 delay;
#X obj 358 225 delay;
#X obj 414 242 delay;
#X obj 473 259 delay;
#X obj 531 276 delay;
#X obj 590 293 delay;
#X obj 648 310 delay;
#X obj 708 327 delay;
#X obj 79 307 outlet;
#X obj 234 346 outlet;
#X obj 425 384 outlet;
#X obj 638 402 outlet;
#X msg 670 128 390;
#X obj 668 88 loadbang;
#X connect 0 0 1 0;
#X connect 0 0 2 0;
#X connect 2 0 3 0;
#X connect 2 0 14 0;
#X connect 3 0 1 0;
#X connect 3 0 4 0;
#X connect 4 0 5 0;
#X connect 4 0 14 0;
#X connect 5 0 6 0;
#X connect 5 0 15 0;
#X connect 6 0 7 0;
#X connect 6 0 16 0;
#X connect 7 0 8 0;
#X connect 7 0 14 0;
#X connect 8 0 9 0;
#X connect 8 0 15 0;
#X connect 9 0 10 0;
#X connect 9 0 16 0;
#X connect 10 0 11 0;
#X connect 10 0 15 0;
#X connect 11 0 12 0;
#X connect 11 0 17 0;
#X connect 12 0 13 0;
#X connect 12 0 16 0;
#X connect 13 0 17 0;
#X connect 18 0 2 1;
#X connect 18 0 3 1;
#X connect 18 0 4 1;
#X connect 18 0 5 1;
#X connect 18 0 6 1;
#X connect 18 0 7 1;
#X connect 18 0 8 1;
#X connect 18 0 9 1;
#X connect 18 0 10 1;
#X connect 18 0 11 1;
#X connect 18 0 12 1;
#X connect 18 0 13 1;
#X connect 19 0 18 0;
#X restore 981 483 pd notes;
#X obj 439 509 s D5;
#X obj 650 543 s D5;
#X obj 727 543 s A5;
#X obj 981 519 s F5;
#X obj 1011 519 s E5;
#X obj 1041 519 s D5;
#X obj 1071 519 s C5;
#X obj 1101 519 s A5;
#X obj 693 488 s E5;
#X obj 59 520 s A5;
#X obj 56 656 s A5;
#X obj 56 605 r time;
#X obj 97 656 s D5;
#N canvas 316 353 923 584 notes 0;
#X obj 31 123 inlet;
#X obj 31 307 outlet;
#X obj 66 140 delay;
#X obj 125 157 delay;
#X obj 183 174 delay;
#X obj 242 191 delay;
#X obj 299 208 delay;
#X obj 358 225 delay;
#X obj 414 242 delay;
#X obj 473 259 delay;
#X obj 74 307 outlet;
#X obj 125 306 outlet;
#X obj 194 315 outlet;
#X obj 277 316 outlet;
#X msg 670 128 390;
#X obj 670 101 loadbang;
#X connect 0 0 1 0;
#X connect 0 0 2 0;
#X connect 2 0 3 0;
#X connect 2 0 10 0;
#X connect 3 0 4 0;
#X connect 3 0 11 0;
#X connect 4 0 5 0;
#X connect 4 0 10 0;
#X connect 5 0 6 0;
#X connect 5 0 1 0;
#X connect 6 0 7 0;
#X connect 6 0 10 0;
#X connect 7 0 8 0;
#X connect 7 0 1 0;
#X connect 8 0 9 0;
#X connect 8 0 12 0;
#X connect 9 0 13 0;
#X connect 14 0 2 1;
#X connect 14 0 3 1;
#X connect 14 0 4 1;
#X connect 14 0 5 1;
#X connect 14 0 6 1;
#X connect 14 0 7 1;
#X connect 14 0 8 1;
#X connect 14 0 9 1;
#X connect 15 0 14 0;
#X restore 138 656 pd notes;
#X obj 138 692 s E5;
#X obj 168 692 s F5;
#X obj 198 692 s G5;
#X obj 228 692 s A6;
#X obj 258 692 s C5;
#X obj 442 605 r time;
#X obj 442 692 s B5;
#N canvas 410 280 450 300 _ 0;
#X obj 31 123 inlet;
#X obj 31 260 outlet;
#X obj 66 140 delay 400;
#X obj 125 157 delay 400;
#X obj 184 174 delay 400;
#X obj 217 74 loadbang;
#X msg 171 91 380;
#X obj 170 3 inlet;
#X msg 170 25 set \$1;
#X obj 144 58 t b a;
#X connect 0 0 2 0;
#X connect 0 0 1 0;
#X connect 2 0 3 0;
#X connect 2 0 1 0;
#X connect 3 0 4 0;
#X connect 3 0 1 0;
#X connect 4 0 1 0;
#X connect 5 0 6 0;
#X connect 6 0 2 1;
#X connect 6 0 3 1;
#X connect 6 0 4 1;
#X connect 7 0 8 0;
#X connect 8 0 9 0;
#X connect 9 0 6 0;
#X connect 9 1 6 0;
#X restore 59 497 pd _ _ _ _;
#N canvas 410 280 450 300 _ 0;
#X obj 31 123 inlet;
#X obj 31 260 outlet;
#X obj 66 140 delay 400;
#X obj 125 157 delay 400;
#X obj 184 174 delay 400;
#X obj 217 74 loadbang;
#X msg 171 91 380;
#X obj 170 3 inlet;
#X msg 170 25 set \$1;
#X obj 144 58 t b a;
#X connect 0 0 2 0;
#X connect 0 0 1 0;
#X connect 2 0 3 0;
#X connect 2 0 1 0;
#X connect 3 0 4 0;
#X connect 3 0 1 0;
#X connect 4 0 1 0;
#X connect 5 0 6 0;
#X connect 6 0 2 1;
#X connect 6 0 3 1;
#X connect 6 0 4 1;
#X connect 7 0 8 0;
#X connect 8 0 9 0;
#X connect 9 0 6 0;
#X connect 9 1 6 0;
#X restore 439 486 pd _ _ _ _;
#N canvas 410 280 455 345 _ 0;
#X obj 31 123 inlet;
#X obj 31 260 outlet;
#X obj 73 140 delay 400;
#X obj 140 157 delay 400;
#X obj 217 74 loadbang;
#X msg 171 91 380;
#X obj 170 3 inlet;
#X msg 170 25 set \$1;
#X obj 144 58 t b a;
#X connect 0 0 2 0;
#X connect 0 0 1 0;
#X connect 2 0 3 0;
#X connect 2 0 1 0;
#X connect 3 0 1 0;
#X connect 4 0 5 0;
#X connect 5 0 2 1;
#X connect 5 0 3 1;
#X connect 6 0 7 0;
#X connect 7 0 8 0;
#X connect 8 0 5 0;
#X connect 8 1 5 0;
#X restore 482 518 pd _ _ _ .;
#N canvas 693 286 450 300 _ 0;
#X obj 31 123 inlet;
#X obj 31 260 outlet;
#X obj 66 140 delay 400;
#X obj 125 157 delay 400;
#X obj 217 74 loadbang;
#X msg 171 91 380;
#X obj 170 3 inlet;
#X msg 170 25 set \$1;
#X obj 144 58 t b a;
#X connect 0 0 2 0;
#X connect 0 0 1 0;
#X connect 2 0 3 0;
#X connect 2 0 1 0;
#X connect 3 0 1 0;
#X connect 4 0 5 0;
#X connect 5 0 2 1;
#X connect 5 0 3 1;
#X connect 6 0 7 0;
#X connect 7 0 8 0;
#X connect 8 0 5 0;
#X connect 8 1 5 0;
#X restore 650 520 pd _ _ _ .;
#N canvas 410 280 450 300 _ 0;
#X obj 31 123 inlet;
#X obj 31 260 outlet;
#X obj 66 140 delay 400;
#X obj 125 157 delay 400;
#X obj 217 74 loadbang;
#X msg 171 91 380;
#X obj 170 3 inlet;
#X msg 170 25 set \$1;
#X obj 144 58 t b a;
#X connect 0 0 2 0;
#X connect 0 0 1 0;
#X connect 2 0 3 0;
#X connect 2 0 1 0;
#X connect 3 0 1 0;
#X connect 4 0 5 0;
#X connect 5 0 2 1;
#X connect 5 0 3 1;
#X connect 6 0 7 0;
#X connect 7 0 8 0;
#X connect 8 0 5 0;
#X connect 8 1 5 0;
#X restore 909 483 pd _ _ _ .;
#N canvas 410 280 455 345 _ 0;
#X obj 31 123 inlet;
#X obj 31 260 outlet;
#X obj 73 140 delay 400;
#X obj 140 157 delay 400;
#X obj 217 74 loadbang;
#X msg 171 91 650;
#X obj 170 3 inlet;
#X msg 170 25 set \$1;
#X obj 144 58 t b a;
#X obj 119 263 outlet;
#X connect 0 0 2 0;
#X connect 0 0 1 0;
#X connect 2 0 3 0;
#X connect 3 0 9 0;
#X connect 4 0 5 0;
#X connect 5 0 2 1;
#X connect 5 0 3 1;
#X connect 6 0 7 0;
#X connect 7 0 8 0;
#X connect 8 0 5 0;
#X connect 8 1 5 0;
#X restore 442 656 pd _ . _ .;
#N canvas 410 280 450 300 _ 0;
#X obj 31 123 inlet;
#X obj 31 260 outlet;
#X obj 66 140 delay 400;
#X obj 125 157 delay 400;
#X obj 217 74 loadbang;
#X msg 171 91 380;
#X obj 170 3 inlet;
#X msg 170 25 set \$1;
#X obj 144 58 t b a;
#X connect 0 0 2 0;
#X connect 0 0 1 0;
#X connect 2 0 3 0;
#X connect 2 0 1 0;
#X connect 3 0 1 0;
#X connect 4 0 5 0;
#X connect 5 0 2 1;
#X connect 5 0 3 1;
#X connect 6 0 7 0;
#X connect 7 0 8 0;
#X connect 8 0 5 0;
#X connect 8 1 5 0;
#X restore 727 520 pd _ _ _ .;
#X obj 499 692 s A5;
#X obj 651 605 r time;
#X obj 56 633 sel 55300 56500 58000;
#X obj 651 656 s A5;
#X obj 692 656 s D5;
#N canvas 316 353 923 584 notes 0;
#X obj 31 123 inlet;
#X obj 31 307 outlet;
#X obj 66 140 delay;
#X obj 125 157 delay;
#X obj 183 174 delay;
#X obj 242 191 delay;
#X obj 299 208 delay;
#X obj 358 225 delay;
#X obj 414 242 delay;
#X obj 473 259 delay;
#X obj 74 307 outlet;
#X obj 125 306 outlet;
#X obj 194 315 outlet;
#X obj 277 316 outlet;
#X msg 670 128 390;
#X obj 670 103 loadbang;
#X connect 0 0 1 0;
#X connect 0 0 2 0;
#X connect 2 0 3 0;
#X connect 2 0 10 0;
#X connect 3 0 4 0;
#X connect 3 0 11 0;
#X connect 4 0 5 0;
#X connect 4 0 10 0;
#X connect 5 0 6 0;
#X connect 5 0 1 0;
#X connect 6 0 7 0;
#X connect 6 0 10 0;
#X connect 7 0 8 0;
#X connect 7 0 1 0;
#X connect 8 0 9 0;
#X connect 8 0 12 0;
#X connect 9 0 13 0;
#X connect 14 0 2 1;
#X connect 14 0 3 1;
#X connect 14 0 4 1;
#X connect 14 0 5 1;
#X connect 14 0 6 1;
#X connect 14 0 7 1;
#X connect 14 0 8 1;
#X connect 14 0 9 1;
#X connect 15 0 14 0;
#X restore 733 656 pd notes;
#X obj 733 692 s E5;
#X obj 763 692 s F5;
#X obj 793 692 s G5;
#X obj 823 692 s A6;
#X obj 853 692 s C5;
#X obj 940 605 r time;
#X obj 940 692 s B5;
#N canvas 410 280 455 345 _ 0;
#X obj 31 123 inlet;
#X obj 31 260 outlet;
#X obj 73 140 delay 400;
#X obj 140 157 delay 400;
#X obj 217 74 loadbang;
#X msg 171 91 650;
#X obj 170 3 inlet;
#X msg 170 25 set \$1;
#X obj 144 58 t b a;
#X obj 119 263 outlet;
#X connect 0 0 2 0;
#X connect 0 0 1 0;
#X connect 2 0 3 0;
#X connect 3 0 9 0;
#X connect 4 0 5 0;
#X connect 5 0 2 1;
#X connect 5 0 3 1;
#X connect 6 0 7 0;
#X connect 7 0 8 0;
#X connect 8 0 5 0;
#X connect 8 1 5 0;
#X restore 940 656 pd _ . _ .;
#X obj 997 692 s A5;
#X obj 442 633 sel 64500;
#X obj 651 633 sel 83300 84500 86000;
#X obj 696 54 cnv 15 543 300 empty empty Synthesis_Units 20 12 0 14
-232576 -66577 0;
#N canvas 120 235 1171 757 piano 0;
#X floatatom 383 247 5 0 0 0 - - -;
#X floatatom 508 247 5 0 0 0 - - -;
#X floatatom 633 247 5 0 0 0 - - -;
#X floatatom 758 247 5 0 0 0 - - -;
#X floatatom 383 340 5 0 0 0 - - -;
#N canvas 137 46 734 592 piano 0;
#X obj 160 249 t b b;
#X msg 160 294 441000;
#X obj 246 325 f;
#X obj 261 302 * 44.1;
#X obj 160 342 +;
#X obj 246 372 pack 0 0;
#X obj 160 411 vline~;
#X obj 160 466 tabread4~ Sample-1;
#X floatatom 261 280 10 0 0 0 - - -;
#X obj 160 129 metro 200;
#X floatatom 211 91 10 0 0 0 - - -;
#X obj 261 254 line 0 0;
#X obj 160 374 pack 0 10000;
#X obj 460 195 cnv 15 200 200 empty empty Hanning_Filter 20 12 0 14
-233017 -66577 0;
#X msg 474 266 0 0;
#X obj 501 266 pack 1 200;
#X obj 474 294 vline~;
#X obj 474 317 cos~;
#X obj 474 340 *~ -0.5;
#X obj 474 363 +~ 0.5;
#X obj 383 483 *~;
#X msg 326 237 9000;
#X msg 261 211 0 9000;
#X obj 326 199 del 9001;
#X obj 365 220 loadbang;
#X obj 161 441 clip~ 2 440998;
#X obj 384 523 outlet~;
#X obj 160 95 tgl 15 0 empty empty empty 17 7 0 10 -262144 -1 -1 1
1;
#X obj 352 74 inlet loop length;
#X obj 261 23 inlet loop on;
#X obj 261 161 tgl 15 0 empty empty empty 17 7 0 10 -262144 -1 -1 0
1;
#X obj 160 23 loadbang;
#X obj 261 182 metro 9334;
#X connect 0 0 1 0;
#X connect 0 0 15 0;
#X connect 0 1 2 0;
#X connect 0 1 14 0;
#X connect 1 0 4 0;
#X connect 2 0 4 1;
#X connect 2 0 5 0;
#X connect 3 0 2 1;
#X connect 4 0 12 0;
#X connect 5 0 6 0;
#X connect 6 0 25 0;
#X connect 7 0 20 0;
#X connect 8 0 3 0;
#X connect 9 0 0 0;
#X connect 10 0 9 1;
#X connect 10 0 15 1;
#X connect 11 0 8 0;
#X connect 12 0 6 0;
#X connect 14 0 16 0;
#X connect 15 0 16 0;
#X connect 16 0 17 0;
#X connect 17 0 18 0;
#X connect 18 0 19 0;
#X connect 19 0 20 1;
#X connect 20 0 26 0;
#X connect 21 0 11 0;
#X connect 22 0 11 0;
#X connect 23 0 21 0;
#X connect 24 0 21 0;
#X connect 25 0 7 0;
#X connect 27 0 9 0;
#X connect 28 0 10 0;
#X connect 29 0 30 0;
#X connect 30 0 32 0;
#X connect 31 0 27 0;
#X connect 32 0 22 0;
#X connect 32 0 23 0;
#X restore 290 358 pd piano sampler;
#X floatatom 508 340 5 0 0 0 - - -;
#N canvas 70 139 734 592 piano 0;
#X obj 160 249 t b b;
#X msg 160 294 441000;
#X obj 246 325 f;
#X obj 261 302 * 44.1;
#X obj 160 342 +;
#X obj 246 372 pack 0 0;
#X obj 160 411 vline~;
#X obj 160 466 tabread4~ Sample-1;
#X floatatom 261 280 10 0 0 0 - - -;
#X obj 160 129 metro 200;
#X floatatom 211 91 10 0 0 0 - - -;
#X obj 261 254 line 0 0;
#X obj 160 374 pack 0 10000;
#X obj 460 195 cnv 15 200 200 empty empty Hanning_Filter 20 12 0 14
-233017 -66577 0;
#X msg 474 266 0 0;
#X obj 501 266 pack 1 200;
#X obj 474 294 vline~;
#X obj 474 317 cos~;
#X obj 474 340 *~ -0.5;
#X obj 474 363 +~ 0.5;
#X obj 383 483 *~;
#X msg 326 237 9000;
#X msg 261 211 0 9000;
#X obj 326 199 del 9001;
#X obj 365 220 loadbang;
#X obj 161 441 clip~ 2 440998;
#X obj 384 523 outlet~;
#X obj 160 95 tgl 15 0 empty empty empty 17 7 0 10 -262144 -1 -1 1
1;
#X obj 352 74 inlet loop length;
#X obj 261 23 inlet loop on;
#X obj 261 161 tgl 15 0 empty empty empty 17 7 0 10 -262144 -1 -1 0
1;
#X obj 160 23 loadbang;
#X obj 261 182 metro 9334;
#X connect 0 0 1 0;
#X connect 0 0 15 0;
#X connect 0 1 2 0;
#X connect 0 1 14 0;
#X connect 1 0 4 0;
#X connect 2 0 4 1;
#X connect 2 0 5 0;
#X connect 3 0 2 1;
#X connect 4 0 12 0;
#X connect 5 0 6 0;
#X connect 6 0 25 0;
#X connect 7 0 20 0;
#X connect 8 0 3 0;
#X connect 9 0 0 0;
#X connect 10 0 9 1;
#X connect 10 0 15 1;
#X connect 11 0 8 0;
#X connect 12 0 6 0;
#X connect 14 0 16 0;
#X connect 15 0 16 0;
#X connect 16 0 17 0;
#X connect 17 0 18 0;
#X connect 18 0 19 0;
#X connect 19 0 20 1;
#X connect 20 0 26 0;
#X connect 21 0 11 0;
#X connect 22 0 11 0;
#X connect 23 0 21 0;
#X connect 24 0 21 0;
#X connect 25 0 7 0;
#X connect 27 0 9 0;
#X connect 28 0 10 0;
#X connect 29 0 30 0;
#X connect 30 0 32 0;
#X connect 31 0 27 0;
#X connect 32 0 22 0;
#X connect 32 0 23 0;
#X restore 415 358 pd piano sampler;
#X floatatom 633 340 5 0 0 0 - - -;
#N canvas 137 46 734 592 piano 0;
#X obj 160 249 t b b;
#X msg 160 294 441000;
#X obj 246 325 f;
#X obj 261 302 * 44.1;
#X obj 160 342 +;
#X obj 246 372 pack 0 0;
#X obj 160 411 vline~;
#X obj 160 466 tabread4~ Sample-1;
#X floatatom 261 280 10 0 0 0 - - -;
#X obj 160 129 metro 200;
#X floatatom 211 91 10 0 0 0 - - -;
#X obj 261 254 line 0 0;
#X obj 160 374 pack 0 10000;
#X obj 460 195 cnv 15 200 200 empty empty Hanning_Filter 20 12 0 14
-233017 -66577 0;
#X msg 474 266 0 0;
#X obj 501 266 pack 1 200;
#X obj 474 294 vline~;
#X obj 474 317 cos~;
#X obj 474 340 *~ -0.5;
#X obj 474 363 +~ 0.5;
#X obj 383 483 *~;
#X msg 326 237 9000;
#X msg 261 211 0 9000;
#X obj 326 199 del 9001;
#X obj 365 220 loadbang;
#X obj 161 441 clip~ 2 440998;
#X obj 384 523 outlet~;
#X obj 160 95 tgl 15 0 empty empty empty 17 7 0 10 -262144 -1 -1 1
1;
#X obj 352 74 inlet loop length;
#X obj 261 23 inlet loop on;
#X obj 261 161 tgl 15 0 empty empty empty 17 7 0 10 -262144 -1 -1 0
1;
#X obj 160 23 loadbang;
#X obj 261 182 metro 9334;
#X connect 0 0 1 0;
#X connect 0 0 15 0;
#X connect 0 1 2 0;
#X connect 0 1 14 0;
#X connect 1 0 4 0;
#X connect 2 0 4 1;
#X connect 2 0 5 0;
#X connect 3 0 2 1;
#X connect 4 0 12 0;
#X connect 5 0 6 0;
#X connect 6 0 25 0;
#X connect 7 0 20 0;
#X connect 8 0 3 0;
#X connect 9 0 0 0;
#X connect 10 0 9 1;
#X connect 10 0 15 1;
#X connect 11 0 8 0;
#X connect 12 0 6 0;
#X connect 14 0 16 0;
#X connect 15 0 16 0;
#X connect 16 0 17 0;
#X connect 17 0 18 0;
#X connect 18 0 19 0;
#X connect 19 0 20 1;
#X connect 20 0 26 0;
#X connect 21 0 11 0;
#X connect 22 0 11 0;
#X connect 23 0 21 0;
#X connect 24 0 21 0;
#X connect 25 0 7 0;
#X connect 27 0 9 0;
#X connect 28 0 10 0;
#X connect 29 0 30 0;
#X connect 30 0 32 0;
#X connect 31 0 27 0;
#X connect 32 0 22 0;
#X connect 32 0 23 0;
#X restore 540 358 pd piano sampler;
#X floatatom 758 340 5 0 0 0 - - -;
#N canvas 137 46 734 592 piano 0;
#X obj 160 249 t b b;
#X msg 160 294 441000;
#X obj 246 325 f;
#X obj 261 302 * 44.1;
#X obj 160 342 +;
#X obj 246 372 pack 0 0;
#X obj 160 411 vline~;
#X obj 160 466 tabread4~ Sample-1;
#X floatatom 261 280 10 0 0 0 - - -;
#X obj 160 129 metro 200;
#X floatatom 211 91 10 0 0 0 - - -;
#X obj 261 254 line 0 0;
#X obj 160 374 pack 0 10000;
#X obj 460 195 cnv 15 200 200 empty empty Hanning_Filter 20 12 0 14
-233017 -66577 0;
#X msg 474 266 0 0;
#X obj 501 266 pack 1 200;
#X obj 474 294 vline~;
#X obj 474 317 cos~;
#X obj 474 340 *~ -0.5;
#X obj 474 363 +~ 0.5;
#X obj 383 483 *~;
#X msg 326 237 9000;
#X msg 261 211 0 9000;
#X obj 326 199 del 9001;
#X obj 365 220 loadbang;
#X obj 161 441 clip~ 2 440998;
#X obj 384 523 outlet~;
#X obj 160 95 tgl 15 0 empty empty empty 17 7 0 10 -262144 -1 -1 1
1;
#X obj 352 74 inlet loop length;
#X obj 261 23 inlet loop on;
#X obj 261 161 tgl 15 0 empty empty empty 17 7 0 10 -262144 -1 -1 0
1;
#X obj 160 23 loadbang;
#X obj 261 182 metro 9334;
#X connect 0 0 1 0;
#X connect 0 0 15 0;
#X connect 0 1 2 0;
#X connect 0 1 14 0;
#X connect 1 0 4 0;
#X connect 2 0 4 1;
#X connect 2 0 5 0;
#X connect 3 0 2 1;
#X connect 4 0 12 0;
#X connect 5 0 6 0;
#X connect 6 0 25 0;
#X connect 7 0 20 0;
#X connect 8 0 3 0;
#X connect 9 0 0 0;
#X connect 10 0 9 1;
#X connect 10 0 15 1;
#X connect 11 0 8 0;
#X connect 12 0 6 0;
#X connect 14 0 16 0;
#X connect 15 0 16 0;
#X connect 16 0 17 0;
#X connect 17 0 18 0;
#X connect 18 0 19 0;
#X connect 19 0 20 1;
#X connect 20 0 26 0;
#X connect 21 0 11 0;
#X connect 22 0 11 0;
#X connect 23 0 21 0;
#X connect 24 0 21 0;
#X connect 25 0 7 0;
#X connect 27 0 9 0;
#X connect 28 0 10 0;
#X connect 29 0 30 0;
#X connect 30 0 32 0;
#X connect 31 0 27 0;
#X connect 32 0 22 0;
#X connect 32 0 23 0;
#X restore 665 358 pd piano sampler;
#X obj 994 281 +~;
#X obj 811 376 +~;
#X obj 159 250 tgl 15 0 empty empty empty 17 7 0 10 -262144 -1 -1 0
1;
#X obj 159 343 tgl 15 0 empty empty empty 17 7 0 10 -262144 -1 -1 0
1;
#X obj 383 320 + 0;
#X floatatom 266 211 5 0 0 0 - - -;
#X obj 383 227 + 5;
#X obj 508 227 + 10;
#X obj 508 320 + 15;
#X obj 633 227 + 20;
#X obj 633 320 + 25;
#X obj 758 227 + 30;
#X obj 758 320 + 40;
#X obj 266 303 + 0;
#X obj 812 469 outlet~ left;
#X obj 995 469 outlet~ right;
#X obj 159 192 inlet loop-on;
#X obj 266 164 inlet loop-length;
#N canvas 137 46 734 592 piano 0;
#X obj 160 249 t b b;
#X msg 160 294 441000;
#X obj 246 325 f;
#X obj 261 302 * 44.1;
#X obj 160 342 +;
#X obj 246 372 pack 0 0;
#X obj 160 411 vline~;
#X obj 160 466 tabread4~ Sample-1;
#X floatatom 261 280 10 0 0 0 - - -;
#X obj 160 129 metro 200;
#X floatatom 211 91 10 0 0 0 - - -;
#X obj 261 254 line 0 0;
#X obj 160 374 pack 0 10000;
#X obj 460 195 cnv 15 200 200 empty empty Hanning_Filter 20 12 0 14
-233017 -66577 0;
#X msg 474 266 0 0;
#X obj 501 266 pack 1 200;
#X obj 474 294 vline~;
#X obj 474 317 cos~;
#X obj 474 340 *~ -0.5;
#X obj 474 363 +~ 0.5;
#X obj 383 483 *~;
#X msg 326 237 9000;
#X msg 261 211 0 9000;
#X obj 326 199 del 9001;
#X obj 365 220 loadbang;
#X obj 161 441 clip~ 2 440998;
#X obj 384 523 outlet~;
#X obj 160 95 tgl 15 0 empty empty empty 17 7 0 10 -262144 -1 -1 1
1;
#X obj 352 74 inlet loop length;
#X obj 261 23 inlet loop on;
#X obj 261 161 tgl 15 0 empty empty empty 17 7 0 10 -262144 -1 -1 0
1;
#X obj 160 23 loadbang;
#X obj 261 182 metro 9334;
#X connect 0 0 1 0;
#X connect 0 0 15 0;
#X connect 0 1 2 0;
#X connect 0 1 14 0;
#X connect 1 0 4 0;
#X connect 2 0 4 1;
#X connect 2 0 5 0;
#X connect 3 0 2 1;
#X connect 4 0 12 0;
#X connect 5 0 6 0;
#X connect 6 0 25 0;
#X connect 7 0 20 0;
#X connect 8 0 3 0;
#X connect 9 0 0 0;
#X connect 10 0 9 1;
#X connect 10 0 15 1;
#X connect 11 0 8 0;
#X connect 12 0 6 0;
#X connect 14 0 16 0;
#X connect 15 0 16 0;
#X connect 16 0 17 0;
#X connect 17 0 18 0;
#X connect 18 0 19 0;
#X connect 19 0 20 1;
#X connect 20 0 26 0;
#X connect 21 0 11 0;
#X connect 22 0 11 0;
#X connect 23 0 21 0;
#X connect 24 0 21 0;
#X connect 25 0 7 0;
#X connect 27 0 9 0;
#X connect 28 0 10 0;
#X connect 29 0 30 0;
#X connect 30 0 32 0;
#X connect 31 0 27 0;
#X connect 32 0 22 0;
#X connect 32 0 23 0;
#X restore 290 265 pd piano sampler;
#N canvas 137 46 734 592 piano 0;
#X obj 160 249 t b b;
#X msg 160 294 441000;
#X obj 246 325 f;
#X obj 261 302 * 44.1;
#X obj 160 342 +;
#X obj 246 372 pack 0 0;
#X obj 160 411 vline~;
#X obj 160 466 tabread4~ Sample-1;
#X floatatom 261 280 10 0 0 0 - - -;
#X obj 160 129 metro 200;
#X floatatom 211 91 10 0 0 0 - - -;
#X obj 261 254 line 0 0;
#X obj 160 374 pack 0 10000;
#X obj 460 195 cnv 15 200 200 empty empty Hanning_Filter 20 12 0 14
-233017 -66577 0;
#X msg 474 266 0 0;
#X obj 501 266 pack 1 200;
#X obj 474 294 vline~;
#X obj 474 317 cos~;
#X obj 474 340 *~ -0.5;
#X obj 474 363 +~ 0.5;
#X obj 383 483 *~;
#X msg 326 237 9000;
#X msg 261 211 0 9000;
#X obj 326 199 del 9001;
#X obj 365 220 loadbang;
#X obj 161 441 clip~ 2 440998;
#X obj 384 523 outlet~;
#X obj 160 95 tgl 15 0 empty empty empty 17 7 0 10 -262144 -1 -1 1
1;
#X obj 352 74 inlet loop length;
#X obj 261 23 inlet loop on;
#X obj 261 161 tgl 15 0 empty empty empty 17 7 0 10 -262144 -1 -1 0
1;
#X obj 160 23 loadbang;
#X obj 261 182 metro 9334;
#X connect 0 0 1 0;
#X connect 0 0 15 0;
#X connect 0 1 2 0;
#X connect 0 1 14 0;
#X connect 1 0 4 0;
#X connect 2 0 4 1;
#X connect 2 0 5 0;
#X connect 3 0 2 1;
#X connect 4 0 12 0;
#X connect 5 0 6 0;
#X connect 6 0 25 0;
#X connect 7 0 20 0;
#X connect 8 0 3 0;
#X connect 9 0 0 0;
#X connect 10 0 9 1;
#X connect 10 0 15 1;
#X connect 11 0 8 0;
#X connect 12 0 6 0;
#X connect 14 0 16 0;
#X connect 15 0 16 0;
#X connect 16 0 17 0;
#X connect 17 0 18 0;
#X connect 18 0 19 0;
#X connect 19 0 20 1;
#X connect 20 0 26 0;
#X connect 21 0 11 0;
#X connect 22 0 11 0;
#X connect 23 0 21 0;
#X connect 24 0 21 0;
#X connect 25 0 7 0;
#X connect 27 0 9 0;
#X connect 28 0 10 0;
#X connect 29 0 30 0;
#X connect 30 0 32 0;
#X connect 31 0 27 0;
#X connect 32 0 22 0;
#X connect 32 0 23 0;
#X restore 415 265 pd piano sampler;
#N canvas 137 46 734 592 piano 0;
#X obj 160 249 t b b;
#X msg 160 294 441000;
#X obj 246 325 f;
#X obj 261 302 * 44.1;
#X obj 160 342 +;
#X obj 246 372 pack 0 0;
#X obj 160 411 vline~;
#X obj 160 466 tabread4~ Sample-1;
#X floatatom 261 280 10 0 0 0 - - -;
#X obj 160 129 metro 200;
#X floatatom 211 91 10 0 0 0 - - -;
#X obj 261 254 line 0 0;
#X obj 160 374 pack 0 10000;
#X obj 460 195 cnv 15 200 200 empty empty Hanning_Filter 20 12 0 14
-233017 -66577 0;
#X msg 474 266 0 0;
#X obj 501 266 pack 1 200;
#X obj 474 294 vline~;
#X obj 474 317 cos~;
#X obj 474 340 *~ -0.5;
#X obj 474 363 +~ 0.5;
#X obj 383 483 *~;
#X msg 326 237 9000;
#X msg 261 211 0 9000;
#X obj 326 199 del 9001;
#X obj 365 220 loadbang;
#X obj 161 441 clip~ 2 440998;
#X obj 384 523 outlet~;
#X obj 160 95 tgl 15 0 empty empty empty 17 7 0 10 -262144 -1 -1 1
1;
#X obj 352 74 inlet loop length;
#X obj 261 23 inlet loop on;
#X obj 261 161 tgl 15 0 empty empty empty 17 7 0 10 -262144 -1 -1 0
1;
#X obj 160 23 loadbang;
#X obj 261 182 metro 9334;
#X connect 0 0 1 0;
#X connect 0 0 15 0;
#X connect 0 1 2 0;
#X connect 0 1 14 0;
#X connect 1 0 4 0;
#X connect 2 0 4 1;
#X connect 2 0 5 0;
#X connect 3 0 2 1;
#X connect 4 0 12 0;
#X connect 5 0 6 0;
#X connect 6 0 25 0;
#X connect 7 0 20 0;
#X connect 8 0 3 0;
#X connect 9 0 0 0;
#X connect 10 0 9 1;
#X connect 10 0 15 1;
#X connect 11 0 8 0;
#X connect 12 0 6 0;
#X connect 14 0 16 0;
#X connect 15 0 16 0;
#X connect 16 0 17 0;
#X connect 17 0 18 0;
#X connect 18 0 19 0;
#X connect 19 0 20 1;
#X connect 20 0 26 0;
#X connect 21 0 11 0;
#X connect 22 0 11 0;
#X connect 23 0 21 0;
#X connect 24 0 21 0;
#X connect 25 0 7 0;
#X connect 27 0 9 0;
#X connect 28 0 10 0;
#X connect 29 0 30 0;
#X connect 30 0 32 0;
#X connect 31 0 27 0;
#X connect 32 0 22 0;
#X connect 32 0 23 0;
#X restore 540 265 pd piano sampler;
#N canvas 137 46 734 592 piano 0;
#X obj 160 249 t b b;
#X msg 160 294 441000;
#X obj 246 325 f;
#X obj 261 302 * 44.1;
#X obj 160 342 +;
#X obj 246 372 pack 0 0;
#X obj 160 411 vline~;
#X obj 160 466 tabread4~ Sample-1;
#X floatatom 261 280 10 0 0 0 - - -;
#X obj 160 129 metro 200;
#X floatatom 211 91 10 0 0 0 - - -;
#X obj 261 254 line 0 0;
#X obj 160 374 pack 0 10000;
#X obj 460 195 cnv 15 200 200 empty empty Hanning_Filter 20 12 0 14
-233017 -66577 0;
#X msg 474 266 0 0;
#X obj 501 266 pack 1 200;
#X obj 474 294 vline~;
#X obj 474 317 cos~;
#X obj 474 340 *~ -0.5;
#X obj 474 363 +~ 0.5;
#X obj 383 483 *~;
#X msg 326 237 9000;
#X msg 261 211 0 9000;
#X obj 326 199 del 9001;
#X obj 365 220 loadbang;
#X obj 161 441 clip~ 2 440998;
#X obj 384 523 outlet~;
#X obj 160 95 tgl 15 0 empty empty empty 17 7 0 10 -262144 -1 -1 1
1;
#X obj 352 74 inlet loop length;
#X obj 261 23 inlet loop on;
#X obj 261 161 tgl 15 0 empty empty empty 17 7 0 10 -262144 -1 -1 0
1;
#X obj 160 23 loadbang;
#X obj 261 182 metro 9334;
#X connect 0 0 1 0;
#X connect 0 0 15 0;
#X connect 0 1 2 0;
#X connect 0 1 14 0;
#X connect 1 0 4 0;
#X connect 2 0 4 1;
#X connect 2 0 5 0;
#X connect 3 0 2 1;
#X connect 4 0 12 0;
#X connect 5 0 6 0;
#X connect 6 0 25 0;
#X connect 7 0 20 0;
#X connect 8 0 3 0;
#X connect 9 0 0 0;
#X connect 10 0 9 1;
#X connect 10 0 15 1;
#X connect 11 0 8 0;
#X connect 12 0 6 0;
#X connect 14 0 16 0;
#X connect 15 0 16 0;
#X connect 16 0 17 0;
#X connect 17 0 18 0;
#X connect 18 0 19 0;
#X connect 19 0 20 1;
#X connect 20 0 26 0;
#X connect 21 0 11 0;
#X connect 22 0 11 0;
#X connect 23 0 21 0;
#X connect 24 0 21 0;
#X connect 25 0 7 0;
#X connect 27 0 9 0;
#X connect 28 0 10 0;
#X connect 29 0 30 0;
#X connect 30 0 32 0;
#X connect 31 0 27 0;
#X connect 32 0 22 0;
#X connect 32 0 23 0;
#X restore 665 265 pd piano sampler;
#X obj 78 53 cnv 15 250 60 empty empty Piano_Chords 30 30 0 24 -233017
-66577 0;
#X text 386 165 I wanted the chords to be kinda like... going in and
out \, so I layered the delays between left and right.;
#X text 387 195 The sub-patches are the same as the horn ones.;
#X connect 0 0 30 1;
#X connect 1 0 31 1;
#X connect 2 0 32 1;
#X connect 3 0 33 1;
#X connect 4 0 5 1;
#X connect 5 0 13 0;
#X connect 6 0 7 1;
#X connect 7 0 13 0;
#X connect 8 0 9 1;
#X connect 9 0 13 0;
#X connect 10 0 11 1;
#X connect 11 0 13 0;
#X connect 12 0 27 0;
#X connect 13 0 26 0;
#X connect 14 0 15 0;
#X connect 14 0 30 0;
#X connect 14 0 31 0;
#X connect 14 0 32 0;
#X connect 14 0 33 0;
#X connect 15 0 5 0;
#X connect 15 0 7 0;
#X connect 15 0 9 0;
#X connect 15 0 11 0;
#X connect 16 0 4 0;
#X connect 17 0 18 0;
#X connect 17 0 19 0;
#X connect 17 0 21 0;
#X connect 17 0 23 0;
#X connect 17 0 25 0;
#X connect 18 0 0 0;
#X connect 19 0 1 0;
#X connect 20 0 6 0;
#X connect 21 0 2 0;
#X connect 22 0 8 0;
#X connect 23 0 3 0;
#X connect 24 0 10 0;
#X connect 25 0 16 0;
#X connect 25 0 20 0;
#X connect 25 0 22 0;
#X connect 25 0 24 0;
#X connect 28 0 14 0;
#X connect 29 0 17 0;
#X connect 30 0 12 0;
#X connect 31 0 12 0;
#X connect 32 0 12 0;
#X connect 33 0 12 0;
#X restore 923 134 pd piano;
#X obj 906 119 tgl 15 0 empty empty empty 17 7 0 10 -262144 -1 -1 0
1;
#X floatatom 968 110 5 0 0 0 - - -;
#X obj 968 70 loadbang;
#X msg 968 90 150;
#X obj 906 97 r piano;
#N canvas 919 158 927 896 horn 0;
#X obj 299 68 t b b;
#X msg 326 89 76;
#X obj 170 715 outlet;
#X obj 316 716 outlet;
#X obj 326 112 s horn-pitch;
#X obj 299 135 s horn-play;
#X obj 435 66 t b b;
#X obj 462 110 s horn-pitch;
#X obj 435 133 s horn-play;
#X msg 462 87 77;
#X obj 170 691 r horn-play;
#X obj 316 691 r horn-pitch;
#X obj 30 59 t b b;
#X obj 57 103 s horn-pitch;
#X obj 30 126 s horn-play;
#X obj 161 60 t b b;
#X obj 188 104 s horn-pitch;
#X obj 161 127 s horn-play;
#X obj 30 38 r A5;
#X msg 57 80 69;
#X msg 188 81 74;
#X obj 161 39 r D5;
#X obj 435 45 r F5;
#X obj 299 47 r E5;
#X obj 153 214 t b b;
#X obj 180 258 s horn-pitch;
#X obj 153 281 s horn-play;
#X obj 153 193 r C5;
#X msg 180 235 72;
#X obj 36 212 t b b;
#X obj 63 256 s horn-pitch;
#X obj 36 279 s horn-play;
#X obj 36 191 r B5;
#X msg 63 233 71;
#X obj 296 216 t b b;
#X obj 323 260 s horn-pitch;
#X obj 296 283 s horn-play;
#X obj 296 195 r G5;
#X msg 323 237 79;
#X obj 435 209 t b b;
#X obj 462 253 s horn-pitch;
#X obj 435 276 s horn-play;
#X msg 462 230 81;
#X obj 435 188 r A6;
#X obj 42 330 t b b;
#X obj 69 374 s horn-pitch;
#X obj 42 397 s horn-play;
#X msg 69 351 57;
#X obj 42 309 r A4;
#X obj 184 332 t b b;
#X obj 211 376 s horn-pitch;
#X obj 184 399 s horn-play;
#X obj 184 311 r B5;
#X msg 211 353 56;
#X connect 0 0 5 0;
#X connect 0 1 1 0;
#X connect 1 0 4 0;
#X connect 6 0 8 0;
#X connect 6 1 9 0;
#X connect 9 0 7 0;
#X connect 10 0 2 0;
#X connect 11 0 3 0;
#X connect 12 0 14 0;
#X connect 12 1 19 0;
#X connect 15 0 17 0;
#X connect 15 1 20 0;
#X connect 18 0 12 0;
#X connect 19 0 13 0;
#X connect 20 0 16 0;
#X connect 21 0 15 0;
#X connect 22 0 6 0;
#X connect 23 0 0 0;
#X connect 24 0 26 0;
#X connect 24 1 28 0;
#X connect 27 0 24 0;
#X connect 28 0 25 0;
#X connect 29 0 31 0;
#X connect 29 1 33 0;
#X connect 32 0 29 0;
#X connect 33 0 30 0;
#X connect 34 0 36 0;
#X connect 34 1 38 0;
#X connect 37 0 34 0;
#X connect 38 0 35 0;
#X connect 39 0 41 0;
#X connect 39 1 42 0;
#X connect 42 0 40 0;
#X connect 43 0 39 0;
#X connect 44 0 46 0;
#X connect 44 1 47 0;
#X connect 47 0 45 0;
#X connect 48 0 44 0;
#X connect 49 0 51 0;
#X connect 49 1 53 0;
#X connect 52 0 49 0;
#X connect 53 0 50 0;
#X restore 748 93 pd horn notes;
#X obj 977 150 BP_reverb;
#X obj 1080 150 BP_reverb;
#X msg 1024 130 100;
#X msg 1127 130 100;
#X msg 1072 130 300;
#X msg 1175 130 300;
#X obj 1024 110 loadbang;
#X obj 1127 110 loadbang;
#X obj 978 320 s~ left;
#X obj 1079 320 s~ right;
#X obj 1152 330 s window-size;
#X msg 1152 307 256;
#X obj 1152 284 loadbang;
#X obj 748 180 BP_reverb;
#X obj 795 140 loadbang;
#N canvas 157 52 1137 730 horn 0;
#X obj 40 57 cnv 15 200 300 empty empty empty 20 12 0 14 -191407 -66577
0;
#X obj 253 56 cnv 15 200 300 empty empty empty 20 12 0 14 -204786 -66577
0;
#X obj 464 57 cnv 15 200 300 empty empty empty 20 12 0 14 -162280 -66577
0;
#X obj 676 58 cnv 15 200 300 empty empty empty 20 12 0 14 -261234 -66577
0;
#X obj 890 58 cnv 15 200 300 empty empty empty 20 12 0 14 -228856 -66577
0;
#X obj 464 374 cnv 15 200 300 empty empty empty 20 12 0 14 -232576
-66577 0;
#X obj 495 605 outlet~;
#X obj 103 215 metro;
#N canvas 286 234 874 660 horn 0;
#X obj 228 264 f;
#X obj 228 305 pack 0 0;
#X obj 102 342 vline~;
#X obj 402 126 cnv 15 300 300 empty empty Hanning_Filter 20 12 0 14
-233017 -66577 0;
#X msg 428 233 0 0;
#X obj 455 233 pack 1 200;
#X obj 428 261 vline~;
#X obj 428 301 cos~;
#X obj 428 324 *~ -0.5;
#X obj 325 414 *~;
#X obj 103 372 clip~ 2 440998;
#X obj 326 484 outlet~;
#X obj 102 397 tabread4~ Sample-2;
#X obj 243 209 inlet start;
#X obj 429 192 t b b;
#X obj 512 210 f;
#X obj 102 115 t b b b b;
#X obj 527 187 r pitch;
#X obj 171 237 r pitch;
#X obj 102 20 inlet;
#X obj 102 281 +;
#X obj 243 235 * 44.1;
#X obj 102 305 pack 44100 0;
#X msg 102 239 44100;
#X obj 428 347 +~ 0.5;
#X text 370 150 I tried using some other filters \, but this one just
seemed to be the most consistent.;
#X text 12 112 bang errything;
#X text 6 397 Read the sample;
#X text 193 372 forget why this was here.;
#X text 150 343 Creates the envelope;
#X text 12 240 saaaamplessss;
#X text 153 41 Wow... the comments in here are pretty useless \, huh...
I hope ou don't read this. Idk. Just seems pretty straightforward.
;
#X connect 0 0 1 0;
#X connect 0 0 20 1;
#X connect 1 0 2 0;
#X connect 2 0 10 0;
#X connect 4 0 6 0;
#X connect 5 0 6 0;
#X connect 6 0 7 0;
#X connect 7 0 8 0;
#X connect 8 0 24 0;
#X connect 9 0 11 0;
#X connect 10 0 12 0;
#X connect 12 0 9 0;
#X connect 13 0 21 0;
#X connect 14 0 5 0;
#X connect 14 1 4 0;
#X connect 15 0 5 1;
#X connect 16 0 23 0;
#X connect 16 1 1 0;
#X connect 16 2 0 0;
#X connect 16 3 14 0;
#X connect 16 3 15 0;
#X connect 17 0 15 1;
#X connect 18 0 22 1;
#X connect 19 0 16 0;
#X connect 20 0 22 0;
#X connect 21 0 0 1;
#X connect 22 0 2 0;
#X connect 23 0 20 0;
#X connect 24 0 9 1;
#X restore 103 290 pd horn 1;
#X obj 154 267 r start;
#X obj 103 240 s line1;
#X obj 103 267 r line1;
#X obj 497 246 del;
#X obj 497 152 r line1;
#X obj 548 246 r start;
#X obj 746 250 del;
#X obj 746 159 r line1;
#X obj 797 250 r start;
#X obj 948 255 del;
#X obj 948 167 r line1;
#X obj 999 255 r start;
#X obj 103 154 bng 15 250 50 0 empty empty empty 17 7 0 10 -262144
-1 -1;
#X obj 103 106 inlet;
#X obj 130 189 r pitch;
#X obj 512 177 r pitch;
#X obj 761 180 r pitch;
#X obj 963 188 r pitch;
#X obj 512 200 * 2;
#X obj 761 203 * 3;
#X obj 963 209 * 4;
#X msg 124 153 stop;
#X obj 495 474 BP_reverb;
#X obj 512 223 / 5;
#X obj 761 226 / 5;
#X obj 963 231 / 5;
#X obj 301 249 del;
#X obj 301 155 r line1;
#X obj 352 249 r start;
#X obj 316 180 r pitch;
#X obj 316 226 / 5;
#X obj 316 203 * 1;
#X msg 590 454 500;
#X msg 542 454 100;
#X obj 542 434 loadbang;
#N canvas 409 234 751 660 horn 0;
#X obj 228 264 f;
#X obj 228 305 pack 0 0;
#X obj 102 342 vline~;
#X obj 402 126 cnv 15 300 300 empty empty Hanning_Filter 20 12 0 14
-233017 -66577 0;
#X msg 428 233 0 0;
#X obj 455 233 pack 1 200;
#X obj 428 261 vline~;
#X obj 428 301 cos~;
#X obj 428 324 *~ -0.5;
#X obj 325 414 *~;
#X obj 103 372 clip~ 2 440998;
#X obj 326 484 outlet~;
#X obj 102 397 tabread4~ Sample-2;
#X obj 243 209 inlet start;
#X obj 429 192 t b b;
#X obj 512 210 f;
#X obj 102 115 t b b b b;
#X obj 527 187 r pitch;
#X obj 171 237 r pitch;
#X obj 102 20 inlet;
#X obj 15 268 f;
#X obj 30 241 r end;
#X obj 102 281 +;
#X obj 243 235 * 44.1;
#X obj 102 305 pack 44100 0;
#X msg 102 239 44100;
#X obj 428 347 +~ 0.5;
#X connect 0 0 1 0;
#X connect 0 0 22 1;
#X connect 1 0 2 0;
#X connect 2 0 10 0;
#X connect 4 0 6 0;
#X connect 5 0 6 0;
#X connect 6 0 7 0;
#X connect 7 0 8 0;
#X connect 8 0 26 0;
#X connect 9 0 11 0;
#X connect 10 0 12 0;
#X connect 12 0 9 0;
#X connect 13 0 23 0;
#X connect 14 0 5 0;
#X connect 14 1 4 0;
#X connect 15 0 5 1;
#X connect 16 0 25 0;
#X connect 16 1 1 0;
#X connect 16 2 0 0;
#X connect 16 3 14 0;
#X connect 16 3 15 0;
#X connect 17 0 15 1;
#X connect 18 0 24 1;
#X connect 19 0 16 0;
#X connect 21 0 20 1;
#X connect 22 0 24 0;
#X connect 23 0 0 1;
#X connect 24 0 2 0;
#X connect 25 0 22 0;
#X connect 26 0 9 1;
#X restore 301 272 pd horn 2;
#N canvas 409 234 751 660 horn 0;
#X obj 228 264 f;
#X obj 228 305 pack 0 0;
#X obj 102 342 vline~;
#X obj 402 126 cnv 15 300 300 empty empty Hanning_Filter 20 12 0 14
-233017 -66577 0;
#X msg 428 233 0 0;
#X obj 455 233 pack 1 200;
#X obj 428 261 vline~;
#X obj 428 301 cos~;
#X obj 428 324 *~ -0.5;
#X obj 325 414 *~;
#X obj 103 372 clip~ 2 440998;
#X obj 326 484 outlet~;
#X obj 102 397 tabread4~ Sample-2;
#X obj 243 209 inlet start;
#X obj 429 192 t b b;
#X obj 512 210 f;
#X obj 102 115 t b b b b;
#X obj 527 187 r pitch;
#X obj 171 237 r pitch;
#X obj 102 20 inlet;
#X obj 15 268 f;
#X obj 30 241 r end;
#X obj 102 281 +;
#X obj 243 235 * 44.1;
#X obj 102 305 pack 44100 0;
#X msg 102 239 44100;
#X obj 428 347 +~ 0.5;
#X connect 0 0 1 0;
#X connect 0 0 22 1;
#X connect 1 0 2 0;
#X connect 2 0 10 0;
#X connect 4 0 6 0;
#X connect 5 0 6 0;
#X connect 6 0 7 0;
#X connect 7 0 8 0;
#X connect 8 0 26 0;
#X connect 9 0 11 0;
#X connect 10 0 12 0;
#X connect 12 0 9 0;
#X connect 13 0 23 0;
#X connect 14 0 5 0;
#X connect 14 1 4 0;
#X connect 15 0 5 1;
#X connect 16 0 25 0;
#X connect 16 1 1 0;
#X connect 16 2 0 0;
#X connect 16 3 14 0;
#X connect 16 3 15 0;
#X connect 17 0 15 1;
#X connect 18 0 24 1;
#X connect 19 0 16 0;
#X connect 21 0 20 1;
#X connect 22 0 24 0;
#X connect 23 0 0 1;
#X connect 24 0 2 0;
#X connect 25 0 22 0;
#X connect 26 0 9 1;
#X restore 497 269 pd horn 3;
#N canvas 409 234 751 660 horn 0;
#X obj 228 264 f;
#X obj 228 305 pack 0 0;
#X obj 102 342 vline~;
#X obj 402 126 cnv 15 300 300 empty empty Hanning_Filter 20 12 0 14
-233017 -66577 0;
#X msg 428 233 0 0;
#X obj 455 233 pack 1 200;
#X obj 428 261 vline~;
#X obj 428 301 cos~;
#X obj 428 324 *~ -0.5;
#X obj 325 414 *~;
#X obj 103 372 clip~ 2 440998;
#X obj 326 484 outlet~;
#X obj 102 397 tabread4~ Sample-2;
#X obj 243 209 inlet start;
#X obj 429 192 t b b;
#X obj 512 210 f;
#X obj 102 115 t b b b b;
#X obj 527 187 r pitch;
#X obj 171 237 r pitch;
#X obj 102 20 inlet;
#X obj 15 268 f;
#X obj 30 241 r end;
#X obj 102 281 +;
#X obj 243 235 * 44.1;
#X obj 102 305 pack 44100 0;
#X msg 102 239 44100;
#X obj 428 347 +~ 0.5;
#X connect 0 0 1 0;
#X connect 0 0 22 1;
#X connect 1 0 2 0;
#X connect 2 0 10 0;
#X connect 4 0 6 0;
#X connect 5 0 6 0;
#X connect 6 0 7 0;
#X connect 7 0 8 0;
#X connect 8 0 26 0;
#X connect 9 0 11 0;
#X connect 10 0 12 0;
#X connect 12 0 9 0;
#X connect 13 0 23 0;
#X connect 14 0 5 0;
#X connect 14 1 4 0;
#X connect 15 0 5 1;
#X connect 16 0 25 0;
#X connect 16 1 1 0;
#X connect 16 2 0 0;
#X connect 16 3 14 0;
#X connect 16 3 15 0;
#X connect 17 0 15 1;
#X connect 18 0 24 1;
#X connect 19 0 16 0;
#X connect 21 0 20 1;
#X connect 22 0 24 0;
#X connect 23 0 0 1;
#X connect 24 0 2 0;
#X connect 25 0 22 0;
#X connect 26 0 9 1;
#X restore 746 273 pd horn 4;
#N canvas 409 234 751 660 horn 0;
#X obj 228 264 f;
#X obj 228 305 pack 0 0;
#X obj 102 342 vline~;
#X obj 402 126 cnv 15 300 300 empty empty Hanning_Filter 20 12 0 14
-233017 -66577 0;
#X msg 428 233 0 0;
#X obj 455 233 pack 1 200;
#X obj 428 261 vline~;
#X obj 428 301 cos~;
#X obj 428 324 *~ -0.5;
#X obj 325 414 *~;
#X obj 103 372 clip~ 2 440998;
#X obj 326 484 outlet~;
#X obj 102 397 tabread4~ Sample-2;
#X obj 243 209 inlet start;
#X obj 429 192 t b b;
#X obj 512 210 f;
#X obj 102 115 t b b b b;
#X obj 527 187 r pitch;
#X obj 171 237 r pitch;
#X obj 102 20 inlet;
#X obj 15 268 f;
#X obj 30 241 r end;
#X obj 102 281 +;
#X obj 243 235 * 44.1;
#X obj 102 305 pack 44100 0;
#X msg 102 239 44100;
#X obj 428 347 +~ 0.5;
#X connect 0 0 1 0;
#X connect 0 0 22 1;
#X connect 1 0 2 0;
#X connect 2 0 10 0;
#X connect 4 0 6 0;
#X connect 5 0 6 0;
#X connect 6 0 7 0;
#X connect 7 0 8 0;
#X connect 8 0 26 0;
#X connect 9 0 11 0;
#X connect 10 0 12 0;
#X connect 12 0 9 0;
#X connect 13 0 23 0;
#X connect 14 0 5 0;
#X connect 14 1 4 0;
#X connect 15 0 5 1;
#X connect 16 0 25 0;
#X connect 16 1 1 0;
#X connect 16 2 0 0;
#X connect 16 3 14 0;
#X connect 16 3 15 0;
#X connect 17 0 15 1;
#X connect 18 0 24 1;
#X connect 19 0 16 0;
#X connect 21 0 20 1;
#X connect 22 0 24 0;
#X connect 23 0 0 1;
#X connect 24 0 2 0;
#X connect 25 0 22 0;
#X connect 26 0 9 1;
#X restore 948 278 pd horn 5;
#X obj 496 411 bp~ 498 3;
#X obj 496 582 *~ 2.7;
#X obj 890 373 cnv 15 200 300 empty empty empty 20 12 0 14 -261682
-66577 0;
#X obj 676 374 cnv 15 200 300 empty empty empty 20 12 0 14 -191407
-66577 0;
#X obj 252 374 cnv 15 200 300 empty empty empty 20 12 0 14 -228856
-66577 0;
#X obj 40 374 cnv 15 200 300 empty empty empty 20 12 0 14 -203904 -66577
0;
#X obj 296 441 loadbang;
#X obj 296 503 mtof;
#X obj 296 523 /;
#X obj 352 506 t b f;
#X obj 352 485 mtof;
#X floatatom 296 483 5 0 0 0 - - -;
#X floatatom 352 465 5 0 0 0 - - -;
#X obj 352 441 inlet pitch;
#X obj 296 591 s pitch;
#X floatatom 296 569 10 0 0 0 - - -;
#X obj 105 526 s start;
#X floatatom 105 501 5 0 0 0 - - -;
#X obj 296 546 * 1000;
#X msg 296 462 64;
#X obj 105 456 loadbang;
#X msg 105 478 3;
#X obj 73 -12 cnv 15 250 60 empty empty Horn 90 30 0 24 -233017 -66577
0;
#X text 57 76 Look in this one for comments;
#X text 47 291 here - >;
#X text 348 6 The Horn. This window just has all the inputs. The bp
filter and reverb are just for taste. I like the sound they give.;
#X text 276 405 Converts the midi pitch for;
#X text 277 416 use by the ola horn thing.;
#X text 67 419 I like the attack better at;
#X text 66 432 3 for some reason LOL.;
#X text 130 172 hits dem notes out;
#X text 430 91 delays are divided in parts of 5 to overlap. The number
5 is just kinda arbitrary. I liked the sound of it better.;
#X connect 7 0 10 0;
#X connect 8 0 48 0;
#X connect 9 0 8 1;
#X connect 11 0 8 0;
#X connect 12 0 45 0;
#X connect 13 0 12 0;
#X connect 14 0 45 1;
#X connect 15 0 46 0;
#X connect 16 0 15 0;
#X connect 17 0 46 1;
#X connect 18 0 47 0;
#X connect 19 0 18 0;
#X connect 20 0 47 1;
#X connect 21 0 7 0;
#X connect 22 0 21 0;
#X connect 22 0 30 0;
#X connect 23 0 7 1;
#X connect 24 0 27 0;
#X connect 25 0 28 0;
#X connect 26 0 29 0;
#X connect 27 0 32 0;
#X connect 28 0 33 0;
#X connect 29 0 34 0;
#X connect 30 0 7 0;
#X connect 31 0 49 0;
#X connect 32 0 12 1;
#X connect 33 0 15 1;
#X connect 34 0 18 1;
#X connect 35 0 44 0;
#X connect 36 0 35 0;
#X connect 37 0 44 1;
#X connect 38 0 40 0;
#X connect 39 0 35 1;
#X connect 40 0 39 0;
#X connect 41 0 31 2;
#X connect 42 0 31 1;
#X connect 43 0 42 0;
#X connect 43 0 41 0;
#X connect 44 0 48 0;
#X connect 45 0 48 0;
#X connect 46 0 48 0;
#X connect 47 0 48 0;
#X connect 48 0 31 0;
#X connect 49 0 6 0;
#X connect 54 0 67 0;
#X connect 55 0 56 0;
#X connect 56 0 66 0;
#X connect 57 0 56 0;
#X connect 57 1 56 1;
#X connect 58 0 57 0;
#X connect 59 0 55 0;
#X connect 60 0 58 0;
#X connect 61 0 60 0;
#X connect 63 0 62 0;
#X connect 65 0 64 0;
#X connect 66 0 63 0;
#X connect 67 0 59 0;
#X connect 68 0 69 0;
#X connect 69 0 65 0;
#X restore 748 116 pd horn;
#X obj 940 633 sel 92500;
#X msg 795 160 100;
#X obj -18 54 cnv 15 360 300 empty empty GUI 20 12 0 14 -261234 -66577
0;
#X obj 93 148 cnv 15 192 45 empty empty empty 20 12 0 14 -99865 -66577
0;
#X obj 94 194 BP_timer;
#X floatatom 14 266 10 0 0 0 - - -;
#N canvas 410 280 450 300 timer 0;
#X obj 61 78 metro 1;
#X obj 61 45 tgl 15 0 empty empty empty 17 7 0 10 -262144 -1 -1 0 1
;
#X obj 61 95 f;
#X obj 89 95 + 1;
#X obj 122 60 sel 0;
#X msg 122 78 0;
#X obj 61 21 inlet;
#X obj 61 118 outlet;
#X connect 0 0 2 0;
#X connect 1 0 0 0;
#X connect 1 0 4 0;
#X connect 2 0 3 0;
#X connect 2 0 7 0;
#X connect 3 0 2 1;
#X connect 4 0 5 0;
#X connect 5 0 2 0;
#X connect 6 0 1 0;
#X restore 40 183 pd timer;
#X obj 97 153 tgl 30 0 empty empty empty 17 7 0 10 -99865 -204786 -1
0 1;
#X obj -7 183 s piano;
#X obj 14 290 s time;
#X obj 97 91 r time;
#X obj 97 116 sel 139500;
#X obj 94 267 BP_output;
#X obj 94 249 r~ left;
#X obj 276 249 r~ right;
#X obj 132 153 cnv 15 140 30 empty empty empty 20 12 0 14 -191407 -66577
0;
#X msg 843 160 100;
#X obj 748 293 BP_Pan;
#X obj 874 276 r pan;
#X obj 1254 55 cnv 15 300 710 empty empty Pan 20 12 0 14 -261682 -66577
0;
#X obj 1287 110 r time;
#X obj 1287 156 40;
#X obj 1287 180 s pan;
#X obj 1325 156 60;
#X obj 1286 203 r time;
#X obj 1286 271 s pan;
#X obj 1327 248 40;
#X obj 1286 225 sel 46200 55300 64500;
#X obj 1287 304 r time;
#X obj 1287 328 sel 74000 102000 111100 120700 129900;
#X obj 1287 351 40;
#X obj 1330 351 60;
#X obj 1374 351 30;
#X obj 1418 351 70;
#X obj 1287 378 s pan;
#X obj 1462 351 50;
#X obj 932 320 volume;
#X obj 1037 319 volume;
#X obj 995 287 r volume;
#X obj 1292 422 r time;
#X obj 1289 528 r time;
#X obj 1289 631 r time;
#X obj 1289 708 s volume;
#X obj 1334 681 90;
#X obj 1289 598 s volume;
#X obj 1292 490 s volume;
#X obj 1292 466 100;
#X obj 1289 573 100;
#X obj 1330 466 100;
#X obj 1368 466 108;
#X obj 1289 550 sel 46150 55300 64500 83300;
#X obj 1289 658 sel 102000 111100 120700 129900;
#X obj 439 435 sel 18000 19550;
#X obj 1328 573 108;
#X obj 1368 573 104;
#X obj 650 437 sel 22550 23650;
#X obj 1363 156 70;
#X obj 1286 248 30;
#X obj 1408 573 95;
#X obj 1289 681 95;
#X obj 1380 681 85;
#X obj 1426 681 80;
#X obj 909 437 sel 27300 28400;
#X obj 1292 443 sel 8600 18000 27300 36600;
#X obj 1287 133 sel 8600 18000 22550 36600;
#X obj 1368 248 49;
#X text 698 116 guts ->;
#X text 847 135 moar guts ->;
#X text -1 497 guts ->;
#N canvas 855 348 710 550 hanning 0;
#X obj 58 196 r window-size;
#X obj 58 221 t b f f;
#X obj 93 285 samplerate~;
#X msg 133 319 bang;
#N canvas 0 0 450 300 (subpatch) 0;
#X array hanning 256 float 3;
#A 0 0 0.000150591 0.000602275 0.00135478 0.00240764 0.00376022 0.00541174
0.00736117 0.00960734 0.0121489 0.0149843 0.0181119 0.0215298 0.0252359
0.0292279 0.0335035 0.0380601 0.042895 0.0480052 0.0533877 0.0590392
0.0649563 0.0711355 0.077573 0.084265 0.0912073 0.0983959 0.105826
0.113494 0.121395 0.129524 0.137876 0.146446 0.155229 0.16422 0.173413
0.182803 0.192384 0.20215 0.212095 0.222214 0.2325 0.242948 0.25355
0.264301 0.275194 0.286222 0.297379 0.308658 0.320052 0.331555 0.343159
0.354857 0.366643 0.378509 0.390449 0.402454 0.414519 0.426634 0.438794
0.450991 0.463218 0.475466 0.487729 0.5 0.512271 0.524534 0.536782
0.549009 0.561205 0.573365 0.585481 0.597545 0.609551 0.62149 0.633357
0.645143 0.656841 0.668445 0.679948 0.691342 0.702621 0.713778 0.724806
0.735699 0.74645 0.757052 0.767499 0.777786 0.787905 0.79785 0.807616
0.817197 0.826587 0.83578 0.844771 0.853554 0.862124 0.870476 0.878605
0.886506 0.894174 0.901605 0.908793 0.915736 0.922428 0.928865 0.935044
0.940961 0.946613 0.951995 0.957106 0.96194 0.966497 0.970773 0.974765
0.978471 0.981889 0.985016 0.987852 0.990393 0.992639 0.994589 0.99624
0.997593 0.998645 0.999398 0.999849 1 0.999849 0.999398 0.998645 0.997592
0.996239 0.994588 0.992638 0.990392 0.987851 0.985015 0.981887 0.978469
0.974763 0.970771 0.966495 0.961939 0.957104 0.951993 0.946611 0.940959
0.935042 0.928863 0.922425 0.915733 0.908791 0.901602 0.894171 0.886503
0.878602 0.870473 0.862121 0.853551 0.844768 0.835777 0.826584 0.817194
0.807613 0.797847 0.787901 0.777782 0.767496 0.757048 0.746446 0.735695
0.724802 0.713774 0.702617 0.691338 0.679944 0.668441 0.656837 0.645139
0.633353 0.621486 0.609547 0.597541 0.585477 0.573361 0.561201 0.549004
0.536778 0.52453 0.512266 0.499996 0.487725 0.475462 0.463213 0.450987
0.43879 0.42663 0.414515 0.40245 0.390445 0.378505 0.366639 0.354853
0.343155 0.331551 0.320048 0.308654 0.297375 0.286218 0.27519 0.264297
0.253547 0.242944 0.232497 0.222211 0.212092 0.202146 0.19238 0.182799
0.17341 0.164217 0.155226 0.146443 0.137873 0.129521 0.121392 0.113491
0.105823 0.0983929 0.0912044 0.0842621 0.0775702 0.0711328 0.0649537
0.0590367 0.0533853 0.0480029 0.0428928 0.038058 0.0335015 0.029226
0.025234 0.0215281 0.0181104 0.0149829 0.0121476 0.00960615 0.0073601
0.00541082 0.00375944 0.00240701 0.00135431 0.000601947 0.000150442
;
#X coords 0 1 256 -1 200 140 1;
#X restore 340 98 graph;
#X msg 133 342 0;
#X text 236 294 Resets phase so it will be in the same spot every time.
;
#X text 169 448 halves it \, so it fits in the window;
#X obj 93 367 osc~;
#X obj 93 341 /;
#X obj 93 410 *~ -0.5;
#X obj 94 435 +~ 0.5;
#X text 66 28 based off Miller Puckette's design \, and edited for
multiple block sizes by looking at Tom Erbe's.;
#X msg 163 238 \; hanning resize \$1;
#X obj 58 481 tabwrite~ hanning;
#X connect 0 0 1 0;
#X connect 1 0 2 0;
#X connect 1 0 3 0;
#X connect 1 0 14 0;
#X connect 1 1 9 1;
#X connect 1 2 13 0;
#X connect 2 0 9 0;
#X connect 3 0 5 0;
#X connect 5 0 8 1;
#X connect 8 0 10 0;
#X connect 9 0 8 0;
#X connect 10 0 11 0;
#X connect 11 0 14 0;
#X restore 391 83 pd hanning window;
#X obj 49 6 cnv 15 260 60 empty empty OLA_Composition 27 30 0 24 -233017
-66577 0;
#X text 5 772 Synthesis units are based off of Tom Erbe's design in
the class examples.;
#X text 156 158 A March - 2:19;
#X obj 59 440 sel 8650 36600 46150 74000 102000 111100 120700 129900
;
#X text 81 370 I have select hit stuff when it gets to times to start
phrases. The phrases themselves are handled by delays.;
#X text 516 80 Two samples \, 1 second \, and;
#X text 524 97 like 9 or so?;
#X text 529 113 Pretty basic stuff.;
#X text 753 325 Sends from volume / panning;
#X text 1306 58 Controlled the same way as the melodies.;
#X text 1329 73 I liked how panning worked in this;
#X text 1330 85 composition.;
#X text 493 367 The chords are the same chords the entire song \, so
they weren't handled by these.;
#X text 166 116 Ends the song.;
#X text -15 206 might wanna look;
#X text -16 217 at the timer.;
#X text -22 228 It took me forever.;
#X connect 2 0 8 0;
#X connect 3 0 5 0;
#X connect 4 0 6 0;
#X connect 8 0 11 0;
#X connect 8 1 9 0;
#X connect 8 1 10 0;
#X connect 9 0 3 0;
#X connect 10 0 4 0;
#X connect 13 0 48 0;
#X connect 14 0 163 0;
#X connect 15 0 142 0;
#X connect 16 0 145 0;
#X connect 17 0 152 0;
#X connect 20 0 24 0;
#X connect 20 1 25 0;
#X connect 20 2 26 0;
#X connect 20 3 27 0;
#X connect 20 4 28 0;
#X connect 32 0 51 0;
#X connect 34 0 35 0;
#X connect 34 1 36 0;
#X connect 34 2 37 0;
#X connect 34 3 38 0;
#X connect 34 4 39 0;
#X connect 40 0 64 0;
#X connect 42 0 30 0;
#X connect 43 0 21 0;
#X connect 44 0 18 0;
#X connect 45 0 22 0;
#X connect 46 0 19 0;
#X connect 47 0 41 0;
#X connect 47 1 49 0;
#X connect 48 0 23 0;
#X connect 50 0 65 0;
#X connect 51 0 31 0;
#X connect 51 1 33 0;
#X connect 51 2 34 0;
#X connect 54 0 55 0;
#X connect 54 1 56 0;
#X connect 54 2 57 0;
#X connect 54 3 58 0;
#X connect 54 4 59 0;
#X connect 60 0 90 0;
#X connect 62 0 61 0;
#X connect 62 1 63 0;
#X connect 64 0 47 0;
#X connect 65 0 52 0;
#X connect 65 1 53 0;
#X connect 65 2 54 0;
#X connect 67 0 74 0;
#X connect 67 1 75 0;
#X connect 68 0 67 0;
#X connect 69 0 67 1;
#X connect 70 0 71 0;
#X connect 71 0 69 0;
#X connect 72 0 68 0;
#X connect 73 0 89 0;
#X connect 73 1 89 1;
#X connect 74 0 82 0;
#X connect 75 0 83 0;
#X connect 76 0 74 1;
#X connect 77 0 75 1;
#X connect 78 0 74 2;
#X connect 79 0 75 2;
#X connect 80 0 76 0;
#X connect 80 0 78 0;
#X connect 81 0 77 0;
#X connect 81 0 79 0;
#X connect 85 0 84 0;
#X connect 86 0 85 0;
#X connect 87 0 107 0;
#X connect 88 0 91 0;
#X connect 88 0 106 0;
#X connect 89 0 87 0;
#X connect 90 0 62 0;
#X connect 91 0 87 1;
#X connect 94 0 95 0;
#X connect 95 0 99 0;
#X connect 96 0 94 0;
#X connect 97 0 96 0;
#X connect 97 0 98 0;
#X connect 100 0 101 0;
#X connect 101 0 97 0;
#X connect 103 0 102 0;
#X connect 104 0 102 2;
#X connect 106 0 87 2;
#X connect 107 0 126 0;
#X connect 107 1 127 0;
#X connect 108 0 107 1;
#X connect 110 0 154 0;
#X connect 111 0 112 0;
#X connect 113 0 112 0;
#X connect 114 0 117 0;
#X connect 116 0 115 0;
#X connect 117 0 147 0;
#X connect 117 1 116 0;
#X connect 117 2 155 0;
#X connect 118 0 119 0;
#X connect 119 0 120 0;
#X connect 119 1 121 0;
#X connect 119 2 122 0;
#X connect 119 3 123 0;
#X connect 119 4 125 0;
#X connect 120 0 124 0;
#X connect 121 0 124 0;
#X connect 122 0 124 0;
#X connect 123 0 124 0;
#X connect 125 0 124 0;
#X connect 126 0 82 0;
#X connect 127 0 83 0;
#X connect 128 0 126 1;
#X connect 128 0 127 1;
#X connect 129 0 153 0;
#X connect 130 0 140 0;
#X connect 131 0 141 0;
#X connect 133 0 132 0;
#X connect 136 0 135 0;
#X connect 137 0 134 0;
#X connect 138 0 135 0;
#X connect 139 0 135 0;
#X connect 140 0 137 0;
#X connect 140 1 143 0;
#X connect 140 2 144 0;
#X connect 140 3 148 0;
#X connect 141 0 149 0;
#X connect 141 1 133 0;
#X connect 141 2 150 0;
#X connect 141 3 151 0;
#X connect 142 0 43 0;
#X connect 142 1 44 0;
#X connect 143 0 134 0;
#X connect 144 0 134 0;
#X connect 145 0 45 0;
#X connect 145 1 13 0;
#X connect 145 1 29 0;
#X connect 146 0 112 0;
#X connect 147 0 115 0;
#X connect 148 0 134 0;
#X connect 149 0 132 0;
#X connect 150 0 132 0;
#X connect 151 0 132 0;
#X connect 152 0 46 0;
#X connect 152 1 20 0;
#X connect 153 0 136 0;
#X connect 153 1 138 0;
#X connect 153 2 139 0;
#X connect 154 0 111 0;
#X connect 154 1 113 0;
#X connect 154 2 146 0;
#X connect 155 0 115 0;
#X connect 163 0 42 0;
#X connect 163 1 42 0;
#X connect 163 2 42 0;
#X connect 163 3 42 0;
#X connect 163 4 42 0;
#X connect 163 5 42 0;
#X connect 163 6 42 0;
#X connect 163 7 42 0;
#X coords 0 -1 1 1 192 181 2 93 147;
