#N canvas 739 207 722 686 10;
#X obj 101 40 loadbang;
#X msg 101 63 50;
#X obj 104 101 hsl 60 25 1 100.1 0 0 empty empty Pan 18 12 0 14 -66577
-204786 -162280 2917 1;
#X obj 11 187 inlet~;
#X obj 11 352 *~ 2;
#X obj 11 324 *~;
#X obj 101 147 / 100;
#X obj 224 164 pack 0 30;
#X obj 113 285 pack 0 30;
#X obj 224 187 line~;
#X obj 113 308 line~;
#X obj 173 203 *~;
#X obj 173 226 *~ 2;
#X obj 101 216 t b f;
#X msg 101 239 1;
#X obj 113 262 -;
#X obj 11 375 outlet~;
#X obj 173 249 outlet~;
#X obj 185 84 inlet;
#X connect 0 0 1 0;
#X connect 1 0 2 0;
#X connect 2 0 6 0;
#X connect 3 0 11 0;
#X connect 3 0 5 0;
#X connect 4 0 16 0;
#X connect 5 0 4 0;
#X connect 6 0 7 0;
#X connect 6 0 13 0;
#X connect 7 0 9 0;
#X connect 8 0 10 0;
#X connect 9 0 11 1;
#X connect 10 0 5 1;
#X connect 11 0 12 0;
#X connect 12 0 17 0;
#X connect 13 0 14 0;
#X connect 13 1 15 1;
#X connect 14 0 15 0;
#X connect 15 0 8 0;
#X connect 18 0 2 0;
#X coords 0 -1 1 1 67 27 2 100 100;
