#N canvas 227 29 1434 924 10;
#X obj 26 349 cnv 15 900 300 empty empty empty 20 12 0 14 -261234 -66577
0;
#X obj 27 39 cnv 15 200 300 empty empty empty 20 12 0 14 -204786 -66577
0;
#X obj 243 41 cnv 15 400 300 empty empty empty 20 12 0 14 -204800 -66577
0;
#X obj 27 659 cnv 15 200 200 empty empty Sound_Outlet 20 12 0 14 -232576
-66577 0;
#X obj 238 660 cnv 15 600 200 empty empty ADSR_Labels 20 12 0 14 -203904
-66577 0;
#X obj 654 41 cnv 15 430 300 empty empty Presets 20 12 0 14 -261682
-66577 0;
#X obj 934 349 cnv 15 150 300 empty empty README -2 30 0 43 -262130
-66577 0;
#X obj 851 661 cnv 15 233 200 empty empty The_Array 20 12 0 14 -204786
-66577 0;
#X obj 1096 352 cnv 15 300 500 empty empty Vibrato 20 12 0 14 -203904
-66577 0;
#X obj 1095 43 cnv 15 300 300 empty empty empty 20 12 0 14 -232576
-66577 0;
#X obj 111 9 cnv 15 220 60 empty empty Midi-Synth 50 30 0 20 -233017
-66577 0;
#X obj 63 816 outlet~;
#X text 104 390 Midikeys handles the keyboard input;
#X obj 101 101 cnv 15 400 100 empty empty empty 20 12 0 14 -99865 -1
0;
#X obj 105 105 cnv 15 390 92 empty empty empty 25 24 1 24 -162280 -1
0;
#X obj 101 101 cnv 3 10 3 empty empty empty 20 12 0 14 -1 -66577 0
;
#X obj 101 198 cnv 3 10 3 empty empty empty 20 12 0 14 -1 -66577 0
;
#X obj 102 101 cnv 2 8 2 empty empty empty 20 12 0 14 -99865 -66577
0;
#X obj 1136 376 key;
#X floatatom 1136 396 5 0 0 0 - - -;
#N canvas 253 36 1404 819 _________________________midi_keys________________________
0;
#X obj 34 702 cnv 15 800 60 empty empty empty 20 12 0 14 -233017 -66577
0;
#X obj 49 457 keyup;
#X floatatom 49 495 5 0 0 0 - - -;
#X obj 49 589 sel 97 119 115 101 100 102 116 103 121 104 117 106 107
;
#X msg 49 654 bang;
#X msg 110 654 bang;
#X msg 171 654 bang;
#X msg 232 654 bang;
#X msg 293 654 bang;
#X msg 354 654 bang;
#X msg 415 654 bang;
#X msg 476 654 bang;
#X msg 537 654 bang;
#X msg 598 654 bang;
#X msg 659 654 bang;
#X msg 720 654 bang;
#X msg 781 654 bang;
#X obj 49 714 outlet;
#X obj 110 714 outlet;
#X obj 171 714 outlet;
#X obj 232 714 outlet;
#X obj 781 714 outlet;
#X obj 293 714 outlet;
#X obj 354 714 outlet;
#X obj 415 714 outlet;
#X obj 476 714 outlet;
#X obj 537 714 outlet;
#X obj 598 714 outlet;
#X obj 659 714 outlet;
#X obj 720 714 outlet;
#X text 56 738 60u;
#X text 119 738 61u;
#X text 180 738 62u;
#X text 240 738 63u;
#X text 305 738 64u;
#X text 366 738 65u;
#X text 426 738 66u;
#X text 488 738 67u;
#X text 551 738 68u;
#X text 613 738 69u;
#X text 672 738 70u;
#X text 733 738 71u;
#X obj 21 361 cnv 15 800 60 empty empty empty 20 12 0 14 -233017 -66577
0;
#X obj 824 116 cnv 15 100 150 empty empty empty 20 12 0 14 -233017
-66577 0;
#X obj 30 113 key;
#X msg 30 266 60;
#X obj 30 307 +;
#X obj 91 307 +;
#X msg 91 266 61;
#X obj 152 307 +;
#X msg 152 266 62;
#X obj 213 307 +;
#X obj 274 307 +;
#X obj 335 307 +;
#X obj 396 307 +;
#X obj 457 307 +;
#X obj 518 307 +;
#X obj 579 307 +;
#X obj 640 307 +;
#X obj 701 307 +;
#X obj 762 307 +;
#X obj 30 222 sel 97 119 115 101 100 102 116 103 121 104 117 106 107
;
#X obj 840 130 sel 122 120;
#X floatatom 864 216 5 0 0 0 - - -;
#X msg 871 169 1;
#X msg 840 169 -1;
#X obj 840 199 +;
#X obj 864 290 * 12;
#X msg 213 266 63;
#X msg 274 266 64;
#X msg 335 266 65;
#X msg 396 268 66;
#X msg 457 268 67;
#X msg 518 268 68;
#X msg 579 268 69;
#X msg 640 268 70;
#X msg 701 268 71;
#X msg 762 268 72;
#X obj 30 375 outlet;
#X obj 91 375 outlet;
#X text 39 394 60;
#X text 100 394 61;
#X obj 152 375 outlet;
#X obj 213 375 outlet;
#X text 161 394 62;
#X text 223 394 63;
#X text 286 394 64;
#X text 347 394 65;
#X text 407 394 66;
#X text 469 394 67;
#X text 532 394 68;
#X text 594 394 69;
#X text 653 394 70;
#X text 714 394 71;
#X obj 762 375 outlet;
#X text 780 394 72;
#X obj 274 375 outlet;
#X obj 335 375 outlet;
#X obj 396 375 outlet;
#X obj 457 375 outlet;
#X obj 518 375 outlet;
#X obj 579 375 outlet;
#X obj 640 375 outlet;
#X obj 701 375 outlet;
#X text 753 98 8va / 8vb is controlled by the z and x keys.;
#X text 289 439 midi 60-72 are controlled by keys a-k;
#X text 286 768 midi off 60-72 are controlled by keys a-k as well;
#X obj 40 0 cnv 15 707 57 empty empty Midikeys 260 30 1 36 -233017
-66577 0;
#X obj 108 494 s \$0-stopkey;
#X msg 108 474 bang;
#X obj 106 136 r \$0-stopkey;
#X floatatom 30 174 5 0 0 0 - - -;
#X obj 108 542 bng 15 250 50 0 empty empty empty 17 7 0 10 -262144
-1 -1;
#X msg 106 157 0;
#X obj 30 202 change;
#X connect 1 0 2 0;
#X connect 1 0 109 0;
#X connect 2 0 112 0;
#X connect 2 0 3 0;
#X connect 3 0 4 0;
#X connect 3 1 5 0;
#X connect 3 2 6 0;
#X connect 3 3 7 0;
#X connect 3 4 8 0;
#X connect 3 5 9 0;
#X connect 3 6 10 0;
#X connect 3 7 11 0;
#X connect 3 8 12 0;
#X connect 3 9 13 0;
#X connect 3 10 14 0;
#X connect 3 11 15 0;
#X connect 3 12 16 0;
#X connect 4 0 17 0;
#X connect 5 0 18 0;
#X connect 6 0 19 0;
#X connect 7 0 20 0;
#X connect 8 0 22 0;
#X connect 9 0 23 0;
#X connect 10 0 24 0;
#X connect 11 0 25 0;
#X connect 12 0 26 0;
#X connect 13 0 27 0;
#X connect 14 0 28 0;
#X connect 15 0 29 0;
#X connect 16 0 21 0;
#X connect 44 0 111 0;
#X connect 44 0 62 0;
#X connect 45 0 46 0;
#X connect 46 0 78 0;
#X connect 47 0 79 0;
#X connect 48 0 47 0;
#X connect 49 0 82 0;
#X connect 50 0 49 0;
#X connect 51 0 83 0;
#X connect 52 0 96 0;
#X connect 53 0 97 0;
#X connect 54 0 98 0;
#X connect 55 0 99 0;
#X connect 56 0 100 0;
#X connect 57 0 101 0;
#X connect 58 0 102 0;
#X connect 59 0 103 0;
#X connect 60 0 94 0;
#X connect 61 0 45 0;
#X connect 61 1 48 0;
#X connect 61 2 50 0;
#X connect 61 3 68 0;
#X connect 61 4 69 0;
#X connect 61 5 70 0;
#X connect 61 6 71 0;
#X connect 61 7 72 0;
#X connect 61 8 73 0;
#X connect 61 9 74 0;
#X connect 61 10 75 0;
#X connect 61 11 76 0;
#X connect 61 12 77 0;
#X connect 62 0 65 0;
#X connect 62 1 64 0;
#X connect 63 0 66 1;
#X connect 63 0 67 0;
#X connect 64 0 66 0;
#X connect 65 0 66 0;
#X connect 66 0 63 0;
#X connect 67 0 53 1;
#X connect 67 0 52 1;
#X connect 67 0 51 1;
#X connect 67 0 49 1;
#X connect 67 0 47 1;
#X connect 67 0 46 1;
#X connect 67 0 60 1;
#X connect 67 0 59 1;
#X connect 67 0 58 1;
#X connect 67 0 57 1;
#X connect 67 0 56 1;
#X connect 67 0 55 1;
#X connect 67 0 54 1;
#X connect 68 0 51 0;
#X connect 69 0 52 0;
#X connect 70 0 53 0;
#X connect 71 0 54 0;
#X connect 72 0 55 0;
#X connect 73 0 56 0;
#X connect 74 0 57 0;
#X connect 75 0 58 0;
#X connect 76 0 59 0;
#X connect 77 0 60 0;
#X connect 109 0 108 0;
#X connect 110 0 113 0;
#X connect 111 0 114 0;
#X connect 113 0 111 0;
#X connect 114 0 61 0;
#X coords 0 819 1 818 707 60 0;
#X restore 50 414 pd _________________________midi_keys________________________
;
#X obj 900 272 inlet;
#X text 712 222 Waveshape;
#X text 904 253 adsr;
#X obj 114 121 cnv 15 70 70 empty empty empty 20 12 0 14 -228856 -66577
0;
#X obj 878 767 r~ \$0-array;
#X obj 954 703 loadbang;
#X obj 954 731 tgl 15 0 empty empty empty 17 7 0 10 -262144 -1 -1 1
1;
#X obj 954 757 metro 80;
#X obj 954 785 tabwrite~ \$0-synth;
#N canvas 0 0 450 300 (subpatch) 0;
#X array \$0-synth 100 float 1;
#A 0 0 0 0 0 0 0 0 0 0 0 0 0 0 0 0 0 0 0 0 0 0 0 0 0 0 0 0 0 0 0 0
0 0 0 0 0 0 0 0 0 0 0 0 0 0 0 0 0 0 0 0 0 0 0 0 0 0 0 0 0 0 0 0 0 0
0 0 0 0 0 0 0 0 0 0 0 0 0 0 0 0 0 0 0 0 0 0 0 0 0 0 0 0 0 0 0 0 0 0
0;
#X coords 0 5 99 -5 70 70 2 0 0;
#X restore 114 121 graph;
#X obj 64 723 catch~ sum_voice;
#X obj 253 828 s \$0-atk_rcv;
#X floatatom 253 767 5 0 0 0 - - -;
#X floatatom 376 769 5 0 0 0 - - -;
#X obj 633 791 makefilename %f;
#X floatatom 633 771 5 0 0 0 - - -;
#X obj 505 790 makefilename %f;
#X floatatom 505 770 5 0 0 0 - - -;
#X obj 376 831 s \$0-dec_rcv;
#X obj 633 832 s \$0-sus_rcv;
#X obj 505 832 s \$0-rel_rcv;
#X obj 253 746 r \$0-attack;
#X obj 376 748 r \$0-decay;
#X obj 505 749 r \$0-sustain;
#X obj 633 750 r \$0-release;
#X obj 253 787 makefilename %f;
#X obj 376 790 makefilename %f;
#X msg 253 807 label \$1 seconds;
#X msg 376 810 label \$1 seconds;
#X msg 505 811 label \$1 seconds;
#X msg 633 811 label \$1 seconds;
#X obj 205 135 hsl 170 10 0 5000 0 0 empty empty Attack 65 5 0 10 -228856
-1 -1 304 1;
#X obj 205 149 hsl 170 10 0 5000 0 0 empty empty Decay 70 5 0 10 -228856
-1 -1 3380 1;
#X obj 205 164 hsl 170 10 0 0.99 0 0 empty empty Sustain 63 5 0 10
-228856 -1 -1 8365 1;
#X obj 205 179 hsl 170 10 0 5000 0 0 empty empty Release 63 5 0 10
-228856 -1 -1 3279 1;
#X obj 381 135 cnv 8 90 10 empty empty empty 0 4 0 10 -1 -66577 0;
#X obj 382 136 cnv 8 68 8 empty \$0-atk_rcv 89.940826 0 4 0 10 -233017
-1 0;
#X obj 381 149 cnv 8 90 10 empty empty empty 0 4 0 10 -1 -66577 0;
#X obj 382 150 cnv 8 68 8 empty \$0-dec_rcv 1000.000000 0 4 0 10 -233017
-1 0;
#X obj 381 164 cnv 8 90 10 empty empty empty 0 4 0 10 -1 -66577 0;
#X obj 381 179 cnv 8 90 10 empty empty empty 0 4 0 10 -1 -66577 0;
#X obj 382 165 cnv 8 68 8 empty \$0-rel_rcv 0.490021 0 4 0 10 -228856
-1 0;
#X obj 202 261 s \$0-sustain;
#X obj 202 282 s \$0-release;
#X obj 382 180 cnv 8 68 8 empty \$0-sus_rcv 970.118347 0 4 0 10 -233017
-1 0;
#X obj 452 136 cnv 8 18 8 empty empty ms 0 4 0 10 -233017 -1 0;
#X obj 452 150 cnv 8 18 8 empty empty ms 0 4 0 10 -233017 -1 0;
#X obj 452 180 cnv 8 18 8 empty empty ms 0 4 0 10 -233017 -1 0;
#X obj 452 165 cnv 8 18 8 empty empty rms 0 4 0 10 -233017 -1 0;
#X obj 202 240 s \$0-decay;
#X msg 515 118 90;
#X msg 549 132 1000;
#X msg 515 147 0.49;
#X obj 515 95 loadbang;
#X obj 202 219 s \$0-attack;
#X obj 882 226 pack 0 0 0 0;
#X obj 882 84 r \$0-attack;
#X obj 892 111 r \$0-decay;
#X obj 972 172 r \$0-release;
#X obj 932 142 r \$0-sustain;
#X obj 892 135 t b f;
#X obj 932 165 t b f;
#X obj 972 194 t b f;
#N canvas 0 0 450 300 adsr 0;
#X obj 83 63 inlet;
#X obj 83 109 outlet;
#X connect 0 0 1 0;
#X restore 882 295 pd adsr;
#N canvas 0 0 450 300 waveshape 0;
#X obj 118 67 inlet;
#X obj 118 121 outlet;
#X connect 0 0 1 0;
#X restore 688 266 pd waveshape;
#N canvas 479 58 953 630 triangle 0;
#X obj 328 174 /;
#X obj 414 174 /;
#X obj 499 174 /;
#X obj 586 174 /;
#X obj 672 174 /;
#X obj 757 174 /;
#X msg 343 147 1;
#X obj 151 326 pack 0 0 0 0 0 0 0 0 0 0 0 0 0;
#X msg 151 43 512;
#X msg 178 157 1;
#X obj 151 373 outlet;
#X obj 151 8 inlet;
#X obj 178 130 t b b;
#X obj 151 78 t f b;
#X obj 370 174 *;
#X msg 385 147 0;
#X obj 457 174 *;
#X msg 472 147 0;
#X obj 543 174 *;
#X msg 558 147 0;
#X obj 628 174 *;
#X msg 643 147 0;
#X msg 730 147 0;
#X obj 715 174 *;
#X msg 816 147 0;
#X obj 801 174 *;
#X msg 429 147 -9;
#X msg 514 147 25;
#X msg 601 147 -49;
#X msg 687 147 81;
#X msg 772 147 -121;
#X connect 0 0 7 1;
#X connect 1 0 7 3;
#X connect 2 0 7 5;
#X connect 3 0 7 7;
#X connect 4 0 7 9;
#X connect 5 0 7 11;
#X connect 6 0 0 1;
#X connect 7 0 10 0;
#X connect 8 0 13 0;
#X connect 9 0 0 0;
#X connect 9 0 1 0;
#X connect 9 0 2 0;
#X connect 9 0 3 0;
#X connect 9 0 4 0;
#X connect 9 0 5 0;
#X connect 9 0 14 0;
#X connect 9 0 16 0;
#X connect 9 0 18 0;
#X connect 9 0 20 0;
#X connect 9 0 23 0;
#X connect 9 0 25 0;
#X connect 11 0 8 0;
#X connect 12 0 9 0;
#X connect 12 1 6 0;
#X connect 12 1 15 0;
#X connect 12 1 26 0;
#X connect 12 1 17 0;
#X connect 12 1 27 0;
#X connect 12 1 19 0;
#X connect 12 1 28 0;
#X connect 12 1 21 0;
#X connect 12 1 29 0;
#X connect 12 1 22 0;
#X connect 12 1 30 0;
#X connect 12 1 24 0;
#X connect 13 0 7 0;
#X connect 13 1 12 0;
#X connect 14 0 7 2;
#X connect 15 0 14 1;
#X connect 16 0 7 4;
#X connect 17 0 16 1;
#X connect 18 0 7 6;
#X connect 19 0 18 1;
#X connect 20 0 7 8;
#X connect 21 0 20 1;
#X connect 22 0 23 1;
#X connect 23 0 7 10;
#X connect 24 0 25 1;
#X connect 25 0 7 12;
#X connect 26 0 1 1;
#X connect 27 0 2 1;
#X connect 28 0 3 1;
#X connect 29 0 4 1;
#X connect 30 0 5 1;
#X restore 688 145 pd triangle;
#N canvas 0 0 450 300 sine 0;
#X obj 73 54 inlet;
#X obj 73 142 outlet;
#X msg 73 99 512 1 0 0 0 0 0 0 0 0 0 0 0;
#X connect 0 0 2 0;
#X connect 2 0 1 0;
#X restore 688 126 pd sine;
#N canvas 0 0 914 496 sawtooth 0;
#X obj 318 164 /;
#X obj 404 164 /;
#X obj 360 164 /;
#X obj 447 164 /;
#X obj 533 164 /;
#X obj 489 164 /;
#X obj 576 164 /;
#X obj 662 164 /;
#X obj 618 164 /;
#X obj 705 164 /;
#X obj 791 164 /;
#X obj 747 164 /;
#X msg 333 137 1;
#X msg 375 137 2;
#X msg 419 137 3;
#X msg 462 137 4;
#X msg 504 137 5;
#X msg 548 137 6;
#X msg 591 137 7;
#X msg 633 137 8;
#X msg 677 137 9;
#X msg 762 137 11;
#X msg 806 137 12;
#X msg 720 137 10;
#X obj 141 316 pack 0 0 0 0 0 0 0 0 0 0 0 0 0;
#X msg 141 33 512;
#X msg 168 147 1;
#X obj 141 363 outlet;
#X obj 141 -2 inlet;
#X obj 168 120 t b b;
#X obj 141 68 t f b;
#X connect 0 0 24 1;
#X connect 1 0 24 3;
#X connect 2 0 24 2;
#X connect 3 0 24 4;
#X connect 4 0 24 6;
#X connect 5 0 24 5;
#X connect 6 0 24 7;
#X connect 7 0 24 9;
#X connect 8 0 24 8;
#X connect 9 0 24 10;
#X connect 10 0 24 12;
#X connect 11 0 24 11;
#X connect 12 0 0 1;
#X connect 13 0 2 1;
#X connect 14 0 1 1;
#X connect 15 0 3 1;
#X connect 16 0 5 1;
#X connect 17 0 4 1;
#X connect 18 0 6 1;
#X connect 19 0 8 1;
#X connect 20 0 7 1;
#X connect 21 0 11 1;
#X connect 22 0 10 1;
#X connect 23 0 9 1;
#X connect 24 0 27 0;
#X connect 25 0 30 0;
#X connect 26 0 0 0;
#X connect 26 0 2 0;
#X connect 26 0 1 0;
#X connect 26 0 3 0;
#X connect 26 0 5 0;
#X connect 26 0 4 0;
#X connect 26 0 6 0;
#X connect 26 0 8 0;
#X connect 26 0 7 0;
#X connect 26 0 9 0;
#X connect 26 0 11 0;
#X connect 26 0 10 0;
#X connect 28 0 25 0;
#X connect 29 0 26 0;
#X connect 29 1 12 0;
#X connect 29 1 13 0;
#X connect 29 1 14 0;
#X connect 29 1 15 0;
#X connect 29 1 16 0;
#X connect 29 1 17 0;
#X connect 29 1 18 0;
#X connect 29 1 19 0;
#X connect 29 1 20 0;
#X connect 29 1 23 0;
#X connect 29 1 21 0;
#X connect 29 1 22 0;
#X connect 30 0 24 0;
#X connect 30 1 29 0;
#X restore 688 164 pd sawtooth;
#N canvas 907 322 970 544 square 0;
#X obj 338 184 /;
#X obj 424 184 /;
#X obj 509 184 /;
#X obj 596 184 /;
#X obj 682 184 /;
#X obj 767 184 /;
#X msg 353 157 1;
#X obj 161 336 pack 0 0 0 0 0 0 0 0 0 0 0 0 0;
#X msg 161 53 512;
#X msg 188 167 1;
#X obj 161 383 outlet;
#X obj 161 18 inlet;
#X obj 188 140 t b b;
#X obj 161 88 t f b;
#X obj 380 184 *;
#X msg 395 157 0;
#X obj 467 184 *;
#X msg 482 157 0;
#X obj 553 184 *;
#X msg 568 157 0;
#X obj 638 184 *;
#X msg 653 157 0;
#X msg 740 157 0;
#X obj 725 184 *;
#X msg 826 157 0;
#X obj 811 184 *;
#X msg 439 157 2;
#X msg 524 157 3;
#X msg 611 157 4;
#X msg 697 157 5;
#X msg 782 157 6;
#X connect 0 0 7 1;
#X connect 1 0 7 3;
#X connect 2 0 7 5;
#X connect 3 0 7 7;
#X connect 4 0 7 9;
#X connect 5 0 7 11;
#X connect 6 0 0 1;
#X connect 7 0 10 0;
#X connect 8 0 13 0;
#X connect 9 0 0 0;
#X connect 9 0 1 0;
#X connect 9 0 2 0;
#X connect 9 0 3 0;
#X connect 9 0 4 0;
#X connect 9 0 5 0;
#X connect 9 0 14 0;
#X connect 9 0 16 0;
#X connect 9 0 18 0;
#X connect 9 0 20 0;
#X connect 9 0 23 0;
#X connect 9 0 25 0;
#X connect 11 0 8 0;
#X connect 12 0 9 0;
#X connect 12 1 6 0;
#X connect 12 1 15 0;
#X connect 12 1 26 0;
#X connect 12 1 17 0;
#X connect 12 1 27 0;
#X connect 12 1 19 0;
#X connect 12 1 28 0;
#X connect 12 1 21 0;
#X connect 12 1 29 0;
#X connect 12 1 22 0;
#X connect 12 1 30 0;
#X connect 12 1 24 0;
#X connect 13 0 7 0;
#X connect 13 1 12 0;
#X connect 14 0 7 2;
#X connect 15 0 14 1;
#X connect 16 0 7 4;
#X connect 17 0 16 1;
#X connect 18 0 7 6;
#X connect 19 0 18 1;
#X connect 20 0 7 8;
#X connect 21 0 20 1;
#X connect 22 0 23 1;
#X connect 23 0 7 10;
#X connect 24 0 25 1;
#X connect 25 0 7 12;
#X connect 26 0 1 1;
#X connect 27 0 2 1;
#X connect 28 0 3 1;
#X connect 29 0 4 1;
#X connect 30 0 5 1;
#X restore 688 183 pd square;
#X obj 725 242 inlet;
#X obj 203 109 bng 17 250 50 0 empty empty Sine 20 8 0 10 -99865 -204786
-1;
#X obj 255 109 bng 17 250 50 0 empty empty Tri 20 8 0 10 -99865 -204786
-1;
#X obj 305 109 bng 17 250 50 0 empty empty Saw 20 8 0 10 -99865 -204786
-1;
#X obj 352 109 bng 17 250 50 0 empty empty Square 20 8 0 10 -99865
-204786 -1;
#X obj 491 101 cnv 3 10 3 empty empty empty 20 12 0 14 -1 -66577 0
;
#X obj 492 101 cnv 2 8 2 empty empty empty 20 12 0 14 -99865 -66577
0;
#X text 41 700 All of the voices are caught;
#X text 688 103 Waveshapes;
#X text 890 64 Envelopes;
#X text 267 600 midi_voice packages the inputted midi note with a waveshape
and envelope. Each throws to "sum_voice";
#X text 119 833 To green box;
#X obj 1136 715 osc~ 2;
#X floatatom 1136 682 5 0 0 0 - - -;
#X obj 1136 738 *~;
#X obj 1167 271 delwrite~ \$0-vibrato 50;
#X obj 1136 789 vd~ \$0-vibrato;
#X obj 419 108 hsl 70 20 0 15 0 0 empty empty Vibrato 14 9 0 10 -228856
-1 -1 4600 1;
#X obj 1136 764 +~ 10;
#X obj 64 744 s~ \$0-vib-in;
#X obj 64 762 r~ \$0-vib-out;
#X obj 1168 242 r~ \$0-vib-in;
#X obj 1137 821 s~ \$0-vib-out;
#X obj 310 576 midi_voice;
#X obj 50 576 midi_voice;
#X obj 180 576 midi_voice;
#X obj 115 576 midi_voice;
#X obj 245 576 midi_voice;
#X obj 375 576 midi_voice;
#X obj 440 576 midi_voice;
#X obj 505 576 midi_voice;
#X obj 570 576 midi_voice;
#X obj 635 576 midi_voice;
#X obj 700 576 midi_voice;
#X obj 765 576 midi_voice;
#X obj 830 576 midi_voice;
#X msg 1259 721 0.4;
#X obj 1134 599 / 2;
#N canvas 635 418 445 405 counter 0;
#X obj 127 253 f;
#X obj 152 253 + 1;
#X obj 118 205 bng 15 250 50 0 empty empty empty 17 7 0 10 -262144
-1 -1;
#X floatatom 152 286 5 0 0 0 - - -;
#X msg 167 205 -1;
#X msg 63 201 1;
#X obj 75 325 > 0;
#X floatatom 75 347 5 0 0 0 - - -;
#X obj 167 228 spigot;
#X obj 63 172 inlet;
#X obj 167 177 inlet;
#X obj 152 359 outlet;
#X floatatom 210 347 5 0 0 0 - - -;
#X obj 63 223 spigot;
#X obj 210 326 < 30;
#X text 106 120 Min:;
#X floatatom 139 121 5 0 0 0 - - -;
#X floatatom 140 140 5 0 0 0 - - -;
#X text 108 141 Max:;
#X msg 131 63 30;
#X obj 130 39 loadbang;
#X connect 0 0 1 0;
#X connect 1 0 0 1;
#X connect 1 0 3 0;
#X connect 2 0 0 0;
#X connect 3 0 6 0;
#X connect 3 0 11 0;
#X connect 3 0 14 0;
#X connect 4 0 8 0;
#X connect 5 0 13 0;
#X connect 6 0 7 0;
#X connect 6 0 5 0;
#X connect 7 0 8 1;
#X connect 8 0 1 1;
#X connect 9 0 5 0;
#X connect 9 0 2 0;
#X connect 10 0 4 0;
#X connect 10 0 2 0;
#X connect 12 0 13 1;
#X connect 13 0 1 1;
#X connect 14 0 12 0;
#X connect 14 0 4 0;
#X connect 16 0 6 1;
#X connect 17 0 14 1;
#X connect 19 0 17 0;
#X connect 20 0 19 0;
#X coords 0 -1 1 1 85 60 1 100 100;
#X restore 1134 522 pd counter;
#X obj 1136 416 sel 118 99;
#X obj 1134 620 s \$0-vib_spd_in;
#X obj 1136 659 r \$0-vib_spd_out;
#X obj 416 49 r \$0-vib_spd_in;
#X obj 416 75 s \$0-vib_spd_out;
#X msg 547 162 970;
#X obj 118 815 s~ \$0-array;
#X text 33 865 Design By: Benjamin Pevsner;
#X text 974 400 Controls:;
#X text 937 420 a-k: 1 octave of pitches;
#X text 939 450 z \, x: Octave up \, down;
#X text 944 480 c \, v: Vibrato slider;
#X text 951 494 Hold down to use.;
#X text 941 535 All the guts for the;
#X text 934 550 voices \, key control \, etc.;
#X text 934 574 your left.;
#X text 936 562 are in the red box \, to;
#X text 937 600 The rest of the controls;
#X text 937 611 are pretty much;
#X text 940 624 self-explanatory.;
#X obj 1258 696 loadbang;
#X connect 18 0 19 0;
#X connect 19 0 129 0;
#X connect 20 0 114 0;
#X connect 20 1 114 1;
#X connect 20 2 116 0;
#X connect 20 3 116 1;
#X connect 20 4 115 0;
#X connect 20 5 115 1;
#X connect 20 6 117 0;
#X connect 20 7 117 1;
#X connect 20 8 113 0;
#X connect 20 9 113 1;
#X connect 20 10 118 0;
#X connect 20 11 118 1;
#X connect 20 12 119 0;
#X connect 20 13 119 1;
#X connect 20 14 120 0;
#X connect 20 15 120 1;
#X connect 20 16 121 0;
#X connect 20 17 121 1;
#X connect 20 18 122 0;
#X connect 20 19 122 1;
#X connect 20 20 123 0;
#X connect 20 21 123 1;
#X connect 20 22 124 0;
#X connect 20 23 124 1;
#X connect 20 24 125 0;
#X connect 20 25 125 1;
#X connect 21 0 84 0;
#X connect 25 0 29 0;
#X connect 26 0 27 0;
#X connect 27 0 28 0;
#X connect 28 0 29 0;
#X connect 31 0 109 0;
#X connect 33 0 46 0;
#X connect 34 0 47 0;
#X connect 35 0 51 0;
#X connect 36 0 35 0;
#X connect 37 0 50 0;
#X connect 38 0 37 0;
#X connect 42 0 33 0;
#X connect 43 0 34 0;
#X connect 44 0 38 0;
#X connect 45 0 36 0;
#X connect 46 0 48 0;
#X connect 47 0 49 0;
#X connect 48 0 32 0;
#X connect 49 0 39 0;
#X connect 50 0 41 0;
#X connect 51 0 40 0;
#X connect 52 0 75 0;
#X connect 53 0 70 0;
#X connect 54 0 63 0;
#X connect 55 0 64 0;
#X connect 71 0 52 0;
#X connect 72 0 53 0;
#X connect 73 0 54 0;
#X connect 74 0 71 0;
#X connect 74 0 72 0;
#X connect 74 0 73 0;
#X connect 74 0 134 0;
#X connect 76 0 84 0;
#X connect 77 0 76 0;
#X connect 78 0 81 0;
#X connect 79 0 83 0;
#X connect 80 0 82 0;
#X connect 81 0 76 0;
#X connect 81 1 76 1;
#X connect 82 0 76 0;
#X connect 82 1 76 2;
#X connect 83 0 76 0;
#X connect 83 1 76 3;
#X connect 84 0 113 3;
#X connect 84 0 114 3;
#X connect 84 0 115 3;
#X connect 84 0 116 3;
#X connect 84 0 117 3;
#X connect 84 0 118 3;
#X connect 84 0 119 3;
#X connect 84 0 120 3;
#X connect 84 0 121 3;
#X connect 84 0 122 3;
#X connect 84 0 123 3;
#X connect 84 0 124 3;
#X connect 84 0 125 3;
#X connect 85 0 113 2;
#X connect 85 0 114 2;
#X connect 85 0 115 2;
#X connect 85 0 116 2;
#X connect 85 0 117 2;
#X connect 85 0 118 2;
#X connect 85 0 119 2;
#X connect 85 0 120 2;
#X connect 85 0 121 2;
#X connect 85 0 122 2;
#X connect 85 0 123 2;
#X connect 85 0 124 2;
#X connect 85 0 125 2;
#X connect 86 0 85 0;
#X connect 87 0 85 0;
#X connect 88 0 85 0;
#X connect 89 0 85 0;
#X connect 90 0 85 0;
#X connect 91 0 87 0;
#X connect 92 0 86 0;
#X connect 93 0 88 0;
#X connect 94 0 89 0;
#X connect 102 0 104 0;
#X connect 103 0 102 0;
#X connect 104 0 108 0;
#X connect 106 0 112 0;
#X connect 107 0 133 0;
#X connect 108 0 106 0;
#X connect 110 0 11 0;
#X connect 110 0 135 0;
#X connect 111 0 105 0;
#X connect 126 0 104 1;
#X connect 127 0 130 0;
#X connect 128 0 127 0;
#X connect 129 0 128 0;
#X connect 129 1 128 1;
#X connect 131 0 103 0;
#X connect 132 0 107 0;
#X connect 134 0 55 0;
#X connect 149 0 126 0;
#X coords 0 955 1 954 402 102 1 100 100;
