#N canvas 68 0 1717 982 10;
#X obj 220 28 cnv 15 390 390 empty empty empty 20 12 0 14 -204786 -66577
0;
#X obj 246 81 cnv 15 333 143 empty empty empty 20 12 0 14 -99865 -66577
0;
#X obj 252 87 cnv 15 320 130 empty empty empty 20 12 0 14 -162280 -66577
0;
#X obj 12 29 cnv 15 200 390 empty empty empty 20 12 0 14 -232576 -66577
0;
#X text 1264 917 Designed by: Benjamin Pevsner;
#X obj 11 424 cnv 15 340 260 empty empty empty 20 12 0 14 -261682 -66577
0;
#X text 82 862 to array;
#X obj 245 80 cnv 3 10 3 empty empty empty 20 12 0 14 -1 -66577 0;
#X obj 389 105 cnv 15 99 99 empty empty empty 20 12 0 14 -228856 -66577
0;
#X obj 12 693 cnv 15 450 250 empty empty empty 20 12 0 14 -191407 -66577
0;
#X obj 618 28 cnv 15 500 390 empty empty empty 20 12 0 14 -261682 -66577
0;
#X obj 360 424 cnv 15 1150 260 empty empty empty 20 12 0 14 -232576
-66577 0;
#X obj 1192 693 cnv 15 320 250 empty empty empty 20 12 0 14 -203904
-66577 0;
#X obj 1127 28 cnv 15 386 390 empty empty empty 20 12 0 14 -262130
-66577 0;
#X obj 479 694 cnv 15 700 250 empty empty empty 20 12 0 14 -204800
-66577 0;
#X obj 369 534 t b f;
#X floatatom 369 512 10 0 0 0 - - -;
#X msg 127 821 normalize;
#X obj 127 800 del 1;
#X msg 127 779 bang;
#X obj 84 848 s \$0-Wave;
#X obj 23 201 phasor~;
#X obj 24 356 +~ 1;
#X obj 52 270 pack 0 50;
#X obj 52 297 line~;
#X obj 53 321 +~ 128;
#X obj 24 337 *~;
#X msg 52 248 384;
#X obj 25 398 outlet~;
#X obj 52 225 loadbang;
#X obj 369 610 s \$0-bang;
#X obj 474 536 t b f;
#X obj 474 612 s \$0-bang;
#X obj 501 591 s \$0-h1;
#X obj 396 589 s \$0-unit;
#X obj 563 537 t b f;
#X obj 563 613 s \$0-bang;
#X obj 590 592 s \$0-h2;
#X obj 647 538 t b f;
#X obj 647 614 s \$0-bang;
#X obj 736 539 t b f;
#X obj 736 615 s \$0-bang;
#X obj 674 593 s \$0-h3;
#X obj 763 594 s \$0-h4;
#X obj 821 537 t b f;
#X obj 821 613 s \$0-bang;
#X obj 910 538 t b f;
#X obj 910 614 s \$0-bang;
#X obj 994 539 t b f;
#X obj 994 615 s \$0-bang;
#X obj 1083 540 t b f;
#X obj 1083 616 s \$0-bang;
#X obj 848 592 s \$0-h5;
#X obj 937 593 s \$0-h6;
#X obj 1021 594 s \$0-h7;
#X obj 1110 596 s \$0-h8;
#X obj 1165 541 t b f;
#X obj 1165 617 s \$0-bang;
#X obj 1254 542 t b f;
#X obj 1254 618 s \$0-bang;
#X obj 1338 543 t b f;
#X obj 1338 619 s \$0-bang;
#X obj 1427 577 t b f;
#X obj 1427 620 s \$0-bang;
#X obj 1192 596 s \$0-h9;
#X obj 1281 597 s \$0-h10;
#X obj 1365 598 s \$0-h11;
#X obj 1454 600 s \$0-h12;
#X obj 99 503 r \$0-h1;
#X obj 84 479 r \$0-unit;
#X obj 115 526 r \$0-h2;
#X obj 131 548 r \$0-h3;
#X obj 147 570 r \$0-h4;
#X obj 162 592 r \$0-h5;
#X obj 178 471 r \$0-h6;
#X obj 194 493 r \$0-h7;
#X obj 210 515 r \$0-h8;
#X obj 225 536 r \$0-h9;
#X obj 241 559 r \$0-h10;
#X obj 257 581 r \$0-h11;
#X obj 273 603 r \$0-h12;
#X msg 84 752 sinesum \$1 \$2 \$3 \$4 \$5 \$6 \$7 \$8 \$9 \$10 \$11
\$12 \$13;
#X obj 831 239 unpack 0 0 0 0 0 0 0 0 0 0 0 0 0;
#X floatatom 474 514 10 0 0 0 - - -;
#X floatatom 563 515 10 0 0 0 - - -;
#X floatatom 647 517 10 0 0 0 - - -;
#X floatatom 736 517 10 0 0 0 - - -;
#X floatatom 821 516 10 0 0 0 - - -;
#X floatatom 910 517 10 0 0 0 - - -;
#X floatatom 994 517 10 0 0 0 - - -;
#X floatatom 1083 517 10 0 0 0 - - -;
#X floatatom 1165 516 10 0 0 0 - - -;
#X floatatom 1254 517 10 0 0 0 - - -;
#X floatatom 1338 517 10 0 0 0 - - -;
#X floatatom 1427 520 10 0 0 0 - - -;
#X obj 16 606 r \$0-bang;
#X obj 25 377 tabread4~ \$0-Wave;
#N canvas 479 58 953 630 triangle 0;
#X obj 328 174 /;
#X obj 414 174 /;
#X obj 499 174 /;
#X obj 586 174 /;
#X obj 672 174 /;
#X obj 757 174 /;
#X msg 343 147 1;
#X obj 151 326 pack 0 0 0 0 0 0 0 0 0 0 0 0 0;
#X msg 151 43 512;
#X msg 178 157 1;
#X obj 151 373 outlet;
#X obj 151 8 inlet;
#X obj 178 130 t b b;
#X obj 151 78 t f b;
#X obj 370 174 *;
#X msg 385 147 0;
#X obj 457 174 *;
#X msg 472 147 0;
#X obj 543 174 *;
#X msg 558 147 0;
#X obj 628 174 *;
#X msg 643 147 0;
#X msg 730 147 0;
#X obj 715 174 *;
#X msg 816 147 0;
#X obj 801 174 *;
#X msg 429 147 -9;
#X msg 514 147 25;
#X msg 601 147 -49;
#X msg 687 147 81;
#X msg 772 147 -121;
#X connect 0 0 7 1;
#X connect 1 0 7 3;
#X connect 2 0 7 5;
#X connect 3 0 7 7;
#X connect 4 0 7 9;
#X connect 5 0 7 11;
#X connect 6 0 0 1;
#X connect 7 0 10 0;
#X connect 8 0 13 0;
#X connect 9 0 0 0;
#X connect 9 0 1 0;
#X connect 9 0 2 0;
#X connect 9 0 3 0;
#X connect 9 0 4 0;
#X connect 9 0 5 0;
#X connect 9 0 14 0;
#X connect 9 0 16 0;
#X connect 9 0 18 0;
#X connect 9 0 20 0;
#X connect 9 0 23 0;
#X connect 9 0 25 0;
#X connect 11 0 8 0;
#X connect 12 0 9 0;
#X connect 12 1 6 0;
#X connect 12 1 15 0;
#X connect 12 1 26 0;
#X connect 12 1 17 0;
#X connect 12 1 27 0;
#X connect 12 1 19 0;
#X connect 12 1 28 0;
#X connect 12 1 21 0;
#X connect 12 1 29 0;
#X connect 12 1 22 0;
#X connect 12 1 30 0;
#X connect 12 1 24 0;
#X connect 13 0 7 0;
#X connect 13 1 12 0;
#X connect 14 0 7 2;
#X connect 15 0 14 1;
#X connect 16 0 7 4;
#X connect 17 0 16 1;
#X connect 18 0 7 6;
#X connect 19 0 18 1;
#X connect 20 0 7 8;
#X connect 21 0 20 1;
#X connect 22 0 23 1;
#X connect 23 0 7 10;
#X connect 24 0 25 1;
#X connect 25 0 7 12;
#X connect 26 0 1 1;
#X connect 27 0 2 1;
#X connect 28 0 3 1;
#X connect 29 0 4 1;
#X connect 30 0 5 1;
#X restore 831 142 pd triangle;
#N canvas 0 0 450 300 sine 0;
#X obj 73 54 inlet;
#X obj 73 142 outlet;
#X msg 73 99 512 1 0 0 0 0 0 0 0 0 0 0 0;
#X connect 0 0 2 0;
#X connect 2 0 1 0;
#X restore 831 123 pd sine;
#N canvas 0 0 914 496 sawtooth 0;
#X obj 318 164 /;
#X obj 404 164 /;
#X obj 360 164 /;
#X obj 447 164 /;
#X obj 533 164 /;
#X obj 489 164 /;
#X obj 576 164 /;
#X obj 662 164 /;
#X obj 618 164 /;
#X obj 705 164 /;
#X obj 791 164 /;
#X obj 747 164 /;
#X msg 333 137 1;
#X msg 375 137 2;
#X msg 419 137 3;
#X msg 462 137 4;
#X msg 504 137 5;
#X msg 548 137 6;
#X msg 591 137 7;
#X msg 633 137 8;
#X msg 677 137 9;
#X msg 762 137 11;
#X msg 806 137 12;
#X msg 720 137 10;
#X obj 141 316 pack 0 0 0 0 0 0 0 0 0 0 0 0 0;
#X msg 141 33 512;
#X msg 168 147 1;
#X obj 141 363 outlet;
#X obj 141 -2 inlet;
#X obj 168 120 t b b;
#X obj 141 68 t f b;
#X connect 0 0 24 1;
#X connect 1 0 24 3;
#X connect 2 0 24 2;
#X connect 3 0 24 4;
#X connect 4 0 24 6;
#X connect 5 0 24 5;
#X connect 6 0 24 7;
#X connect 7 0 24 9;
#X connect 8 0 24 8;
#X connect 9 0 24 10;
#X connect 10 0 24 12;
#X connect 11 0 24 11;
#X connect 12 0 0 1;
#X connect 13 0 2 1;
#X connect 14 0 1 1;
#X connect 15 0 3 1;
#X connect 16 0 5 1;
#X connect 17 0 4 1;
#X connect 18 0 6 1;
#X connect 19 0 8 1;
#X connect 20 0 7 1;
#X connect 21 0 11 1;
#X connect 22 0 10 1;
#X connect 23 0 9 1;
#X connect 24 0 27 0;
#X connect 25 0 30 0;
#X connect 26 0 0 0;
#X connect 26 0 2 0;
#X connect 26 0 1 0;
#X connect 26 0 3 0;
#X connect 26 0 5 0;
#X connect 26 0 4 0;
#X connect 26 0 6 0;
#X connect 26 0 8 0;
#X connect 26 0 7 0;
#X connect 26 0 9 0;
#X connect 26 0 11 0;
#X connect 26 0 10 0;
#X connect 28 0 25 0;
#X connect 29 0 26 0;
#X connect 29 1 12 0;
#X connect 29 1 13 0;
#X connect 29 1 14 0;
#X connect 29 1 15 0;
#X connect 29 1 16 0;
#X connect 29 1 17 0;
#X connect 29 1 18 0;
#X connect 29 1 19 0;
#X connect 29 1 20 0;
#X connect 29 1 23 0;
#X connect 29 1 21 0;
#X connect 29 1 22 0;
#X connect 30 0 24 0;
#X connect 30 1 29 0;
#X restore 831 161 pd sawtooth;
#N canvas 907 322 970 544 square 0;
#X obj 338 184 /;
#X obj 424 184 /;
#X obj 509 184 /;
#X obj 596 184 /;
#X obj 682 184 /;
#X obj 767 184 /;
#X msg 353 157 1;
#X obj 161 336 pack 0 0 0 0 0 0 0 0 0 0 0 0 0;
#X msg 161 53 512;
#X msg 188 167 1;
#X obj 161 383 outlet;
#X obj 161 18 inlet;
#X obj 188 140 t b b;
#X obj 161 88 t f b;
#X obj 380 184 *;
#X msg 395 157 0;
#X obj 467 184 *;
#X msg 482 157 0;
#X obj 553 184 *;
#X msg 568 157 0;
#X obj 638 184 *;
#X msg 653 157 0;
#X msg 740 157 0;
#X obj 725 184 *;
#X msg 826 157 0;
#X obj 811 184 *;
#X msg 439 157 2;
#X msg 524 157 3;
#X msg 611 157 4;
#X msg 697 157 5;
#X msg 782 157 6;
#X connect 0 0 7 1;
#X connect 1 0 7 3;
#X connect 2 0 7 5;
#X connect 3 0 7 7;
#X connect 4 0 7 9;
#X connect 5 0 7 11;
#X connect 6 0 0 1;
#X connect 7 0 10 0;
#X connect 8 0 13 0;
#X connect 9 0 0 0;
#X connect 9 0 1 0;
#X connect 9 0 2 0;
#X connect 9 0 3 0;
#X connect 9 0 4 0;
#X connect 9 0 5 0;
#X connect 9 0 14 0;
#X connect 9 0 16 0;
#X connect 9 0 18 0;
#X connect 9 0 20 0;
#X connect 9 0 23 0;
#X connect 9 0 25 0;
#X connect 11 0 8 0;
#X connect 12 0 9 0;
#X connect 12 1 6 0;
#X connect 12 1 15 0;
#X connect 12 1 26 0;
#X connect 12 1 17 0;
#X connect 12 1 27 0;
#X connect 12 1 19 0;
#X connect 12 1 28 0;
#X connect 12 1 21 0;
#X connect 12 1 29 0;
#X connect 12 1 22 0;
#X connect 12 1 30 0;
#X connect 12 1 24 0;
#X connect 13 0 7 0;
#X connect 13 1 12 0;
#X connect 14 0 7 2;
#X connect 15 0 14 1;
#X connect 16 0 7 4;
#X connect 17 0 16 1;
#X connect 18 0 7 6;
#X connect 19 0 18 1;
#X connect 20 0 7 8;
#X connect 21 0 20 1;
#X connect 22 0 23 1;
#X connect 23 0 7 10;
#X connect 24 0 25 1;
#X connect 25 0 7 12;
#X connect 26 0 1 1;
#X connect 27 0 2 1;
#X connect 28 0 3 1;
#X connect 29 0 4 1;
#X connect 30 0 5 1;
#X restore 831 180 pd square;
#N canvas 0 0 450 300 (subpatch) 0;
#X array \$0-Wave 515 float 3;
#A 0 -0.0122715 0 0.0122715 0.0245412 0.0368072 0.0490676 0.0613207
0.0735645 0.0857972 0.0980171 0.110222 0.122411 0.134581 0.14673 0.158858
0.170962 0.18304 0.19509 0.207111 0.219101 0.231058 0.24298 0.254865
0.266713 0.278519 0.290284 0.302006 0.313681 0.32531 0.33689 0.348418
0.359895 0.371317 0.382683 0.393992 0.405241 0.416429 0.427555 0.438616
0.449611 0.460538 0.471396 0.482183 0.492898 0.503538 0.514102 0.524589
0.534997 0.545325 0.55557 0.565731 0.575808 0.585797 0.595699 0.605511
0.615231 0.624859 0.634393 0.643831 0.653172 0.662415 0.671558 0.680601
0.68954 0.698376 0.707106 0.71573 0.724247 0.732654 0.740951 0.749136
0.757208 0.765167 0.77301 0.780737 0.788346 0.795836 0.803207 0.810457
0.817584 0.824589 0.831469 0.838224 0.844853 0.851355 0.857728 0.863972
0.870087 0.87607 0.881921 0.887639 0.893224 0.898674 0.903989 0.909168
0.914209 0.919113 0.923879 0.928506 0.932992 0.937339 0.941544 0.945607
0.949528 0.953306 0.95694 0.96043 0.963776 0.966976 0.970031 0.97294
0.975702 0.978317 0.980785 0.983105 0.985277 0.987301 0.989176 0.990902
0.992479 0.993907 0.995185 0.996312 0.99729 0.998118 0.998795 0.999322
0.999699 0.999925 1 0.999925 0.999699 0.999322 0.998796 0.998118 0.997291
0.996313 0.995185 0.993907 0.99248 0.990903 0.989177 0.987302 0.985278
0.983106 0.980786 0.978318 0.975702 0.97294 0.970032 0.966977 0.963776
0.960431 0.956941 0.953306 0.949529 0.945608 0.941545 0.93734 0.932993
0.928507 0.92388 0.919115 0.91421 0.909169 0.90399 0.898675 0.893225
0.88764 0.881922 0.876071 0.870088 0.863974 0.85773 0.851356 0.844855
0.838226 0.831471 0.82459 0.817586 0.810458 0.803209 0.795838 0.788348
0.780738 0.773012 0.765168 0.75721 0.749138 0.740952 0.732656 0.724248
0.715732 0.707108 0.698378 0.689542 0.680602 0.67156 0.662417 0.653174
0.643833 0.634395 0.624861 0.615233 0.605513 0.595701 0.5858 0.57581
0.565734 0.555572 0.545327 0.534999 0.524592 0.514105 0.50354 0.4929
0.482186 0.471399 0.460541 0.449613 0.438618 0.427557 0.416432 0.405243
0.393994 0.382686 0.371319 0.359897 0.348421 0.336892 0.325313 0.313684
0.302008 0.290287 0.278522 0.266715 0.254868 0.242983 0.231061 0.219104
0.207114 0.195093 0.183042 0.170964 0.158861 0.146733 0.134583 0.122413
0.110225 0.0980197 0.0857999 0.0735671 0.0613233 0.0490703 0.0368098
0.0245439 0.0122742 2.65359e-006 -0.0122689 -0.0245386 -0.0368045 -0.049065
-0.061318 -0.0735619 -0.0857946 -0.0980144 -0.110219 -0.122408 -0.134578
-0.146728 -0.158855 -0.170959 -0.183037 -0.195088 -0.207109 -0.219098
-0.231055 -0.242977 -0.254863 -0.26671 -0.278517 -0.290282 -0.302003
-0.313679 -0.325308 -0.336887 -0.348416 -0.359892 -0.371314 -0.382681
-0.393989 -0.405239 -0.416427 -0.427552 -0.438614 -0.449609 -0.460536
-0.471394 -0.482181 -0.492896 -0.503536 -0.5141 -0.524587 -0.534995
-0.545322 -0.555568 -0.565729 -0.575806 -0.585795 -0.595697 -0.605509
-0.615229 -0.624857 -0.634391 -0.643829 -0.65317 -0.662413 -0.671557
-0.680599 -0.689538 -0.698374 -0.707104 -0.715729 -0.724245 -0.732652
-0.740949 -0.749134 -0.757207 -0.765165 -0.773008 -0.780735 -0.788344
-0.795835 -0.803205 -0.810455 -0.817583 -0.824587 -0.831468 -0.838223
-0.844852 -0.851353 -0.857727 -0.863971 -0.870085 -0.876068 -0.88192
-0.887638 -0.893223 -0.898673 -0.903988 -0.909166 -0.914208 -0.919112
-0.923878 -0.928505 -0.932992 -0.937338 -0.941543 -0.945606 -0.949527
-0.953305 -0.956939 -0.960429 -0.963775 -0.966976 -0.97003 -0.972939
-0.975701 -0.978317 -0.980785 -0.983105 -0.985277 -0.987301 -0.989176
-0.990902 -0.992479 -0.993907 -0.995184 -0.996312 -0.99729 -0.998118
-0.998795 -0.999322 -0.999699 -0.999925 -1 -0.999925 -0.999699 -0.999323
-0.998796 -0.998118 -0.997291 -0.996313 -0.995185 -0.993907 -0.99248
-0.990903 -0.989177 -0.987302 -0.985278 -0.983106 -0.980786 -0.978318
-0.975703 -0.972941 -0.970032 -0.966978 -0.963777 -0.960432 -0.956942
-0.953307 -0.94953 -0.945609 -0.941545 -0.93734 -0.932994 -0.928508
-0.923881 -0.919116 -0.914212 -0.90917 -0.903991 -0.898676 -0.893226
-0.887642 -0.881923 -0.876072 -0.870089 -0.863975 -0.857731 -0.851358
-0.844856 -0.838227 -0.831472 -0.824592 -0.817587 -0.81046 -0.80321
-0.79584 -0.788349 -0.78074 -0.773013 -0.76517 -0.757212 -0.749139
-0.740954 -0.732657 -0.72425 -0.715734 -0.70711 -0.69838 -0.689544
-0.680604 -0.671562 -0.662419 -0.653176 -0.643835 -0.634397 -0.624863
-0.615235 -0.605515 -0.595703 -0.585802 -0.575812 -0.565736 -0.555574
-0.545329 -0.535002 -0.524594 -0.514107 -0.503543 -0.492902 -0.482188
-0.471401 -0.460543 -0.449616 -0.438621 -0.42756 -0.416434 -0.405246
-0.393997 -0.382688 -0.371322 -0.3599 -0.348423 -0.336895 -0.325315
-0.313687 -0.302011 -0.29029 -0.278525 -0.266718 -0.254871 -0.242985
-0.231063 -0.219106 -0.207116 -0.195095 -0.183045 -0.170967 -0.158863
-0.146736 -0.134586 -0.122416 -0.110227 -0.0980223 -0.0858025 -0.0735698
-0.061326 -0.0490729 -0.0368125 -0.0245465 -0.0122768 -5.30718e-006
0.0122662;
#X coords 0 1 515 -1 100 100 1 0 0;
#X restore 389 105 graph;
#X obj 495 108 bng 15 250 50 0 empty empty empty 17 7 0 10 -228856
-1 -1;
#X text 515 106 Sine;
#X obj 495 127 bng 15 250 50 0 empty empty empty 17 7 0 10 -228856
-1 -1;
#X text 516 124 Triangle;
#X obj 495 146 bng 15 250 50 0 empty empty empty 17 7 0 10 -228856
-1 -1;
#X text 516 144 Sawtooth;
#X obj 495 165 bng 15 250 50 0 empty empty empty 17 7 0 10 -228856
-1 -1;
#X text 517 164 Square;
#X floatatom 495 185 5 0 0 0 - - -;
#X text 530 184 Freq.;
#X obj 1003 162 inlet;
#X msg 533 794 label \$1;
#X obj 533 815 s \$0-h1_rcv;
#X obj 533 752 r \$0-h1;
#X msg 637 793 label \$1;
#X obj 637 751 r \$0-h2;
#X obj 637 814 s \$0-h2_rcv;
#X msg 738 793 label \$1;
#X msg 842 792 label \$1;
#X obj 738 751 r \$0-h3;
#X obj 842 750 r \$0-h4;
#X obj 738 814 s \$0-h3_rcv;
#X obj 842 813 s \$0-h4_rcv;
#X msg 954 791 label \$1;
#X msg 1058 790 label \$1;
#X msg 533 888 label \$1;
#X msg 637 887 label \$1;
#X obj 954 749 r \$0-h5;
#X obj 1058 748 r \$0-h6;
#X obj 533 846 r \$0-h7;
#X obj 637 845 r \$0-h8;
#X obj 1058 811 s \$0-h6_rcv;
#X obj 533 909 s \$0-h7_rcv;
#X obj 637 908 s \$0-h8_rcv;
#X obj 954 812 s \$0-h5_rcv;
#X msg 740 887 label \$1;
#X msg 844 886 label \$1;
#X msg 956 886 label \$1;
#X msg 1060 885 label \$1;
#X obj 740 845 r \$0-h9;
#X obj 740 908 s \$0-h9_rcv;
#X obj 844 844 r \$0-h10;
#X obj 844 907 s \$0-h10_rcv;
#X obj 956 844 r \$0-h11;
#X obj 956 907 s \$0-h11_rcv;
#X obj 1060 843 r \$0-h12;
#X obj 1060 906 s \$0-h12_rcv;
#X obj 533 773 makefilename %f;
#X obj 637 772 makefilename %f;
#X obj 738 772 makefilename %f;
#X obj 842 771 makefilename %f;
#X obj 954 770 makefilename %f;
#X obj 1058 769 makefilename %f;
#X obj 533 868 makefilename %f;
#X obj 637 866 makefilename %f;
#X obj 740 866 makefilename %f;
#X obj 844 865 makefilename %f;
#X obj 956 865 makefilename %f;
#X obj 1060 864 makefilename %f;
#X obj 23 168 inlet;
#X text 23 147 pitch;
#X text 836 84 Sub-patches hold common waveshapes;
#X text 982 121 Other Waveshapes;
#X text 982 132 can be sent via;
#X text 983 141 message.;
#X text 645 241 unpacks the waveshape into;
#X text 644 254 its components;
#X text 222 796 Creates the sinesum \, graphs it \, and;
#X text 118 252 runs a phasor through;
#X text 120 281 the audio signal.;
#X text 222 808 normalizes the resulting array.;
#X text 370 628 to red rectangles;
#X text 764 647 The separate harmonics are sent out to the blue box
\, as well as the red boxes.;
#X obj 84 623 pack 512 0 0 0 0 0 0 0 0 0 0 0 0;
#X obj 108 705 outlet;
#X text 151 704 The harmonics are exported as a pack to be used;
#X text 153 716 by other abstractions.;
#X text 78 440 Re-packs the harmonics after;
#X text 76 452 they have been edited.;
#X obj 375 108 vsl 8 95 -1 1 0 0 empty empty empty 0 -9 0 10 -228856
-1 -1 9400 1;
#X obj 282 92 vradio 10 1 0 12 empty empty empty 0 -8 0 10 -262144
-1 -1 0;
#X text 267 98 h2;
#X text 267 109 h3;
#X text 267 119 h4;
#X text 267 129 h5;
#X text 267 139 h6;
#X text 267 149 h7;
#X text 267 158 h8;
#X text 267 168 h9;
#X text 260 178 h10;
#X text 260 188 h11;
#X text 260 199 h12;
#X obj 296 93 cnv 8 60 8 empty \$0-h1_rcv 1.000000 0 4 0 10 -228856
-1 0;
#X obj 296 103 cnv 8 60 8 empty \$0-h2_rcv 0.000000 0 4 0 10 -228856
-1 0;
#X obj 296 113 cnv 8 60 8 empty \$0-h3_rcv 0.000000 0 4 0 10 -228856
-1 0;
#X obj 296 123 cnv 8 60 8 empty \$0-h4_rcv 0.000000 0 4 0 10 -228856
-1 0;
#X obj 296 133 cnv 8 60 8 empty \$0-h5_rcv 0.000000 0 4 0 10 -228856
-1 0;
#X obj 296 143 cnv 8 60 8 empty \$0-h6_rcv 0.000000 0 4 0 10 -228856
-1 0;
#X obj 296 153 cnv 8 60 8 empty \$0-h7_rcv 0.000000 0 4 0 10 -228856
-1 0;
#X obj 296 163 cnv 8 60 8 empty \$0-h8_rcv 0.000000 0 4 0 10 -228856
-1 0;
#X obj 296 173 cnv 8 60 8 empty \$0-h9_rcv 0.000000 0 4 0 10 -228856
-1 0;
#X obj 296 183 cnv 8 60 8 empty \$0-h10_rcv 0.000000 0 4 0 10 -228856
-1 0;
#X obj 296 193 cnv 8 60 8 empty \$0-h11_rcv 0.000000 0 4 0 10 -228856
-1 0;
#X obj 296 203 cnv 8 60 8 empty \$0-h12_rcv 0.000000 0 4 0 10 -228856
-1 0;
#X obj 291 377 route 0 1 2 3 4 5 6 7 8 9 10 11;
#X obj 291 352 pack 0 0;
#X obj 1253 37 r \$0-h1;
#X obj 1269 60 r \$0-h2;
#X obj 1285 82 r \$0-h3;
#X obj 1301 104 r \$0-h4;
#X obj 1316 126 r \$0-h5;
#X obj 1332 149 r \$0-h6;
#X obj 1348 171 r \$0-h7;
#X obj 1364 193 r \$0-h8;
#X obj 1379 214 r \$0-h9;
#X obj 1395 237 r \$0-h10;
#X obj 1411 259 r \$0-h11;
#X obj 1427 281 r \$0-h12;
#X obj 1152 196 r \$0-radio;
#X text 119 266 the array \, and exports;
#X obj 325 306 t b f;
#X obj 316 276 s \$0-radio;
#X obj 1152 225 sel 0 1 2 3 4 5 6 7 8 9 10 11;
#X obj 1252 379 s \$0-slider;
#X obj 1138 315 f;
#X obj 1165 315 f;
#X obj 1193 315 f;
#X obj 1220 315 f;
#X obj 1247 315 f;
#X obj 1274 315 f;
#X obj 1302 315 f;
#X obj 1329 315 f;
#X obj 1357 315 f;
#X obj 1384 315 f;
#X obj 1412 315 f;
#X obj 1439 315 f;
#X obj 375 237 spigot;
#X obj 408 261 tgl 15 0 empty empty empty 17 7 0 10 -262144 -1 -1 1
1;
#X obj 250 335 f;
#X obj 282 244 t f b f b;
#X obj 265 285 t f b;
#X msg 292 306 13;
#X obj 375 59 r \$0-slider;
#X text 365 103 1;
#X text 365 147 0;
#X text 361 192 -1;
#X obj 439 244 loadbang;
#X obj 245 222 cnv 3 10 3 empty empty empty 20 12 0 14 -1 -66577 0
;
#X obj 570 80 cnv 3 10 3 empty empty empty 20 12 0 14 -1 -66577 0;
#X obj 571 80 cnv 2 8 2 empty empty empty 20 12 0 14 -99865 -66577
0;
#X obj 570 222 cnv 3 10 3 empty empty empty 20 12 0 14 -1 -66577 0
;
#X obj 571 223 cnv 2 8 2 empty empty empty 20 12 0 14 -99865 -66577
0;
#X text 378 294 Crazy logic to make the slider;
#X text 378 305 match the harmonics \, and allow;
#X text 531 705 Converts the numbers into labels \, and sends them
to the canvases that list the harmonics.;
#X text 1352 47 Stores the harmonics;
#X text 1353 59 to set the slider.;
#X obj 66 3 cnv 15 270 60 empty empty Waveshaper 20 30 0 40 -233017
-66577 0;
#X obj 831 102 loadbang;
#X text 16 945 Design By: Benjamin Pevsner;
#X text 16 957 Not Based on anyone else's designs;
#X text 498 61 Presets;
#X text 376 317 it to modify them without overloading.;
#X obj 1457 341 loadbang;
#X msg 1457 362 1;
#X text 269 88 f;
#X connect 15 0 30 0;
#X connect 15 1 34 0;
#X connect 16 0 15 0;
#X connect 17 0 20 0;
#X connect 18 0 17 0;
#X connect 19 0 18 0;
#X connect 21 0 26 0;
#X connect 22 0 96 0;
#X connect 23 0 24 0;
#X connect 24 0 25 0;
#X connect 25 0 26 1;
#X connect 26 0 22 0;
#X connect 27 0 23 0;
#X connect 29 0 27 0;
#X connect 31 0 32 0;
#X connect 31 1 33 0;
#X connect 35 0 36 0;
#X connect 35 1 37 0;
#X connect 38 0 39 0;
#X connect 38 1 42 0;
#X connect 40 0 41 0;
#X connect 40 1 43 0;
#X connect 44 0 45 0;
#X connect 44 1 52 0;
#X connect 46 0 47 0;
#X connect 46 1 53 0;
#X connect 48 0 49 0;
#X connect 48 1 54 0;
#X connect 50 0 51 0;
#X connect 50 1 55 0;
#X connect 56 0 57 0;
#X connect 56 1 64 0;
#X connect 58 0 59 0;
#X connect 58 1 65 0;
#X connect 60 0 61 0;
#X connect 60 1 66 0;
#X connect 62 0 63 0;
#X connect 62 1 67 0;
#X connect 68 0 175 1;
#X connect 69 0 175 0;
#X connect 70 0 175 2;
#X connect 71 0 175 3;
#X connect 72 0 175 4;
#X connect 73 0 175 5;
#X connect 74 0 175 6;
#X connect 75 0 175 7;
#X connect 76 0 175 8;
#X connect 77 0 175 9;
#X connect 78 0 175 10;
#X connect 79 0 175 11;
#X connect 80 0 175 12;
#X connect 81 0 20 0;
#X connect 81 0 19 0;
#X connect 82 0 16 0;
#X connect 82 1 83 0;
#X connect 82 2 84 0;
#X connect 82 3 85 0;
#X connect 82 4 86 0;
#X connect 82 5 87 0;
#X connect 82 6 88 0;
#X connect 82 7 89 0;
#X connect 82 8 90 0;
#X connect 82 9 91 0;
#X connect 82 10 92 0;
#X connect 82 11 93 0;
#X connect 82 12 94 0;
#X connect 83 0 31 0;
#X connect 84 0 35 0;
#X connect 85 0 38 0;
#X connect 86 0 40 0;
#X connect 87 0 44 0;
#X connect 88 0 46 0;
#X connect 89 0 48 0;
#X connect 90 0 50 0;
#X connect 91 0 56 0;
#X connect 92 0 58 0;
#X connect 93 0 60 0;
#X connect 94 0 62 0;
#X connect 95 0 175 0;
#X connect 96 0 28 0;
#X connect 97 0 82 0;
#X connect 98 0 82 0;
#X connect 99 0 82 0;
#X connect 100 0 82 0;
#X connect 102 0 98 0;
#X connect 104 0 97 0;
#X connect 106 0 99 0;
#X connect 108 0 100 0;
#X connect 110 0 21 0;
#X connect 112 0 82 0;
#X connect 113 0 114 0;
#X connect 115 0 149 0;
#X connect 116 0 118 0;
#X connect 117 0 150 0;
#X connect 119 0 123 0;
#X connect 120 0 124 0;
#X connect 121 0 151 0;
#X connect 122 0 152 0;
#X connect 125 0 136 0;
#X connect 126 0 133 0;
#X connect 127 0 134 0;
#X connect 128 0 135 0;
#X connect 129 0 153 0;
#X connect 130 0 154 0;
#X connect 131 0 155 0;
#X connect 132 0 156 0;
#X connect 137 0 142 0;
#X connect 138 0 144 0;
#X connect 139 0 146 0;
#X connect 140 0 148 0;
#X connect 141 0 157 0;
#X connect 143 0 158 0;
#X connect 145 0 159 0;
#X connect 147 0 160 0;
#X connect 149 0 113 0;
#X connect 150 0 116 0;
#X connect 151 0 119 0;
#X connect 152 0 120 0;
#X connect 153 0 125 0;
#X connect 154 0 126 0;
#X connect 155 0 127 0;
#X connect 156 0 128 0;
#X connect 157 0 137 0;
#X connect 158 0 138 0;
#X connect 159 0 139 0;
#X connect 160 0 140 0;
#X connect 161 0 110 0;
#X connect 175 0 81 0;
#X connect 175 0 176 0;
#X connect 181 0 238 0;
#X connect 182 0 241 0;
#X connect 206 0 83 0;
#X connect 206 1 84 0;
#X connect 206 2 85 0;
#X connect 206 3 86 0;
#X connect 206 4 87 0;
#X connect 206 5 88 0;
#X connect 206 6 89 0;
#X connect 206 7 90 0;
#X connect 206 8 91 0;
#X connect 206 9 92 0;
#X connect 206 10 93 0;
#X connect 206 11 94 0;
#X connect 207 0 206 0;
#X connect 208 0 226 1;
#X connect 209 0 227 1;
#X connect 210 0 228 1;
#X connect 211 0 229 1;
#X connect 212 0 230 1;
#X connect 213 0 231 1;
#X connect 214 0 232 1;
#X connect 215 0 233 1;
#X connect 216 0 234 1;
#X connect 217 0 235 1;
#X connect 218 0 236 1;
#X connect 219 0 237 1;
#X connect 220 0 224 0;
#X connect 222 0 207 0;
#X connect 222 0 240 0;
#X connect 222 1 207 1;
#X connect 224 0 226 0;
#X connect 224 1 227 0;
#X connect 224 2 228 0;
#X connect 224 3 229 0;
#X connect 224 4 230 0;
#X connect 224 5 231 0;
#X connect 224 6 232 0;
#X connect 224 7 233 0;
#X connect 224 8 234 0;
#X connect 224 9 235 0;
#X connect 224 10 236 0;
#X connect 224 11 237 0;
#X connect 226 0 225 0;
#X connect 227 0 225 0;
#X connect 228 0 225 0;
#X connect 229 0 225 0;
#X connect 230 0 225 0;
#X connect 231 0 225 0;
#X connect 232 0 225 0;
#X connect 233 0 225 0;
#X connect 234 0 225 0;
#X connect 235 0 225 0;
#X connect 236 0 225 0;
#X connect 237 0 225 0;
#X connect 238 0 222 0;
#X connect 239 0 238 1;
#X connect 240 0 207 0;
#X connect 241 0 242 0;
#X connect 241 1 239 0;
#X connect 241 2 223 0;
#X connect 241 3 239 0;
#X connect 242 0 240 1;
#X connect 242 1 243 0;
#X connect 243 0 240 0;
#X connect 244 0 181 0;
#X connect 248 0 239 0;
#X connect 260 0 98 0;
#X connect 265 0 266 0;
#X connect 266 0 225 0;
#X coords 0 955 1 954 335 145 2 245 80;
