#N canvas 141 82 1015 743 10;
#X floatatom 386 302 5 0 0 0 - - -;
#X floatatom 531 304 5 0 0 0 - - -;
#X obj 257 413 +~;
#X floatatom 674 304 5 0 0 0 - - -;
#X floatatom 812 304 5 0 0 0 - - -;
#X obj 385 433 *~ 0.2;
#X obj 530 433 *~ 0.2;
#X obj 674 433 *~ 0.2;
#X obj 813 433 *~ 0.2;
#X text 35 20 Benjamin Pevsner;
#X text 36 43 Simple Reverb;
#X obj 257 149 inlet~;
#X obj 257 562 outlet~;
#X floatatom 386 201 5 0 0 0 - - -;
#X obj 531 217 * 1.3;
#X obj 674 234 * 1.3;
#X obj 812 251 * 1.3;
#X obj 386 171 inlet;
#X obj 71 335 / 100;
#X floatatom 71 307 5 0 0 0 - - -;
#X floatatom 150 352 5 0 0 0 - - -;
#X obj 71 369 t b f;
#X msg 71 393 1;
#X obj 83 417 -;
#X floatatom 83 441 5 0 0 0 - - -;
#X obj 258 503 *~;
#X obj 196 502 *~;
#X obj 83 464 pack 0 30;
#X obj 83 484 line~;
#X obj 150 374 pack 0 30;
#X obj 150 394 line~;
#X obj 64 114 cnv 15 100 100 empty empty empty 20 20 0 14 -162280 -1
0;
#X obj 63 113 cnv 3 10 3 empty empty empty 20 12 0 14 -1 -66577 0;
#X obj 67 118 cnv 15 92 92 empty empty Reverb 22 20 0 14 -99865 -191407
0;
#X obj 73 154 hsl 80 20 0 100 0 0 empty empty Dry/Wet 20 9 0 10 -228856
-1 -66577 0 1;
#X obj 73 181 hsl 80 20 0 500 0 0 empty empty Length 23 9 0 10 -228856
-1 -66577 0 1;
#X obj 386 327 vd~ \$0-delay1;
#X obj 531 327 vd~ \$0-delay2;
#X obj 674 327 vd~ \$0-delay3;
#X obj 812 327 vd~ \$0-delay4;
#X obj 385 612 delwrite~ \$0-delay1 1000;
#X obj 530 612 delwrite~ \$0-delay2 1000;
#X obj 674 612 delwrite~ \$0-delay3 1000;
#X obj 813 612 delwrite~ \$0-delay4 1000;
#X obj 63 212 cnv 3 10 3 empty empty empty 20 12 0 14 -1 -66577 0;
#X obj 155 113 cnv 3 10 3 empty empty empty 20 12 0 14 -1 -66577 0
;
#X obj 156 113 cnv 2 8 2 empty empty empty 20 12 0 14 -99865 -66577
0;
#X connect 0 0 36 0;
#X connect 1 0 37 0;
#X connect 2 0 25 0;
#X connect 3 0 38 0;
#X connect 4 0 39 0;
#X connect 5 0 41 0;
#X connect 5 0 42 0;
#X connect 5 0 43 0;
#X connect 6 0 40 0;
#X connect 6 0 42 0;
#X connect 6 0 43 0;
#X connect 7 0 40 0;
#X connect 7 0 41 0;
#X connect 7 0 43 0;
#X connect 8 0 40 0;
#X connect 8 0 41 0;
#X connect 8 0 42 0;
#X connect 11 0 2 0;
#X connect 11 0 5 0;
#X connect 11 0 26 0;
#X connect 13 0 0 0;
#X connect 13 0 14 0;
#X connect 14 0 1 0;
#X connect 14 0 15 0;
#X connect 15 0 3 0;
#X connect 15 0 16 0;
#X connect 16 0 4 0;
#X connect 17 0 13 0;
#X connect 18 0 20 0;
#X connect 18 0 21 0;
#X connect 19 0 18 0;
#X connect 20 0 29 0;
#X connect 21 0 22 0;
#X connect 21 1 23 1;
#X connect 22 0 23 0;
#X connect 23 0 24 0;
#X connect 24 0 27 0;
#X connect 25 0 12 0;
#X connect 26 0 12 0;
#X connect 27 0 28 0;
#X connect 28 0 26 1;
#X connect 29 0 30 0;
#X connect 30 0 25 1;
#X connect 34 0 19 0;
#X connect 35 0 13 0;
#X connect 36 0 2 0;
#X connect 36 0 5 0;
#X connect 37 0 6 0;
#X connect 37 0 2 0;
#X connect 38 0 2 1;
#X connect 38 0 7 0;
#X connect 39 0 8 0;
#X connect 39 0 2 1;
#X coords 0 -1 1 1 102 102 1 63 113;
